spectral-bolditalic.ufo
<glyph name="exclam" format="2">
  <advance width="257.3928571428571"/>
  <unicode hex="0021"/>
  <outline>
    <contour>
      <point x="100.53571428571428" y="218.21428571428572" type="line"/>
      <point x="128.85714285714286" y="218.21428571428572" type="line"/>
      <point x="260.60714285714283" y="660.0" type="line"/>
      <point x="123.5" y="660.0" type="line"/>
    </contour>
    <contour>
      <point x="80.60714285714286" y="-5.0" type="curve" smooth="yes"/>
      <point x="123.67857142857142" y="-5.0"/>
      <point x="151.92857142857142" y="29.035714285714285"/>
      <point x="151.92857142857142" y="71.53571428571428" type="curve" smooth="yes"/>
      <point x="151.92857142857142" y="105.39285714285714"/>
      <point x="134.5" y="130.03571428571428"/>
      <point x="95.42857142857142" y="130.03571428571428" type="curve" smooth="yes"/>
      <point x="53.35714285714286" y="130.03571428571428"/>
      <point x="24.107142857142854" y="92.96428571428571"/>
      <point x="24.107142857142854" y="53.5" type="curve" smooth="yes"/>
      <point x="24.107142857142854" y="19.642857142857142"/>
      <point x="41.535714285714285" y="-5.0"/>
    </contour>
  </outline>
</glyph>
<glyph name="numbersign" format="2">
  <advance width="560.7142857142857"/>
  <unicode hex="0023"/>
  <outline>
    <contour>
      <point x="40.75" y="0.0" type="line"/>
      <point x="88.96428571428572" y="0.0" type="line"/>
      <point x="357.9642857142857" y="660.0" type="line"/>
      <point x="309.75" y="660.0" type="line"/>
    </contour>
    <contour>
      <point x="250.96428571428572" y="0.0" type="line"/>
      <point x="519.9642857142857" y="660.0" type="line"/>
      <point x="471.75" y="660.0" type="line"/>
      <point x="202.75" y="0.0" type="line"/>
    </contour>
    <contour>
      <point x="113.35714285714286" y="407.39285714285717" type="line"/>
      <point x="506.35714285714283" y="407.39285714285717" type="line"/>
      <point x="513.3571428571429" y="450.60714285714283" type="line"/>
      <point x="120.35714285714286" y="450.60714285714283" type="line"/>
    </contour>
    <contour>
      <point x="439.35714285714283" y="207.39285714285714" type="line"/>
      <point x="446.35714285714283" y="250.60714285714286" type="line"/>
      <point x="53.357142857142854" y="250.60714285714286" type="line"/>
      <point x="46.357142857142854" y="207.39285714285714" type="line"/>
    </contour>
  </outline>
</glyph>
<glyph name="dollar" format="2">
  <advance width="560.7142857142857"/>
  <unicode hex="0024"/>
  <outline>
    <contour>
      <point x="239.35714285714286" y="-10.0" type="curve" smooth="yes"/>
      <point x="383.9286933206072" y="-10.0"/>
      <point x="492.67857142857144" y="76.5"/>
      <point x="492.67857142857144" y="202.71428571428572" type="curve" smooth="yes"/>
      <point x="492.67857142857144" y="281.75"/>
      <point x="453.8928571428571" y="330.57142857142856"/>
      <point x="354.2857142857143" y="386.14285714285717" type="curve" smooth="yes"/>
      <point x="254.56107813857142" y="442.16166078867855"/>
      <point x="218.89285714285714" y="466.57142857142856"/>
      <point x="218.89285714285714" y="517.1428571428571" type="curve" smooth="yes"/>
      <point x="218.89285714285714" y="585.2857142857143"/>
      <point x="279.6761083743214" y="620.3214285714286"/>
      <point x="342.82142857142856" y="620.3214285714286" type="curve" smooth="yes"/>
      <point x="415.05115830092853" y="620.3214285714286"/>
      <point x="453.3413560058214" y="591.6576081471785"/>
      <point x="443.85714285714283" y="536.75" type="curve" smooth="yes"/>
      <point x="439.25" y="509.75" type="line"/>
      <point x="443.85714285714283" y="505.75" type="line"/>
      <point x="489.67857142857144" y="505.75" type="line" smooth="yes"/>
      <point x="512.0" y="505.75"/>
      <point x="532.4642857142857" y="522.7857142857143"/>
      <point x="532.4642857142857" y="554.1785714285714" type="curve" smooth="yes"/>
      <point x="532.4642857142857" y="579.1785714285714"/>
      <point x="517.0" y="604.1785714285714"/>
      <point x="493.0" y="625.3571428571429" type="curve" smooth="yes"/>
      <point x="464.7170254262857" y="649.9084311927857"/>
      <point x="426.56555153728567" y="670.0"/>
      <point x="354.7857142857143" y="670.0" type="curve" smooth="yes"/>
      <point x="225.96428571428572" y="670.0"/>
      <point x="112.89285714285714" y="578.5"/>
      <point x="112.89285714285714" y="463.2142857142857" type="curve" smooth="yes"/>
      <point x="112.89285714285714" y="389.2142857142857"/>
      <point x="149.10714285714286" y="345.64285714285717"/>
      <point x="212.39285714285714" y="308.07142857142856" type="curve" smooth="yes"/>
      <point x="336.31705173175" y="232.63149653982146"/>
      <point x="379.82142857142856" y="214.25"/>
      <point x="379.82142857142856" y="150.78571428571428" type="curve" smooth="yes"/>
      <point x="379.82142857142856" y="83.25"/>
      <point x="322.2904208195" y="38.89285714285714"/>
      <point x="240.57142857142856" y="38.89285714285714" type="curve" smooth="yes"/>
      <point x="172.18707482964285" y="38.89285714285714"/>
      <point x="138.51778460385714" y="80.64603686234642"/>
      <point x="148.82142857142856" y="141.0" type="curve" smooth="yes"/>
      <point x="153.42857142857144" y="168.0" type="line"/>
      <point x="148.42857142857142" y="172.0" type="line"/>
      <point x="105.03571428571428" y="172.0" type="line" smooth="yes"/>
      <point x="82.10714285714286" y="172.0"/>
      <point x="60.21428571428571" y="156.13435132089285"/>
      <point x="60.21428571428571" y="122.60714285714286" type="curve" smooth="yes"/>
      <point x="60.21428571428571" y="97.02380952378928"/>
      <point x="71.82142857142857" y="70.64285714285714"/>
      <point x="93.42857142857143" y="46.64285714285714" type="curve" smooth="yes"/>
      <point x="117.85714285714286" y="20.428571428571427"/>
      <point x="172.24113475203572" y="-10.0"/>
    </contour>
    <contour>
      <point x="159.78571428571428" y="-80.0" type="line"/>
      <point x="199.21428571428572" y="-80.0" type="line"/>
      <point x="340.07142857142856" y="740.0" type="line"/>
      <point x="300.64285714285717" y="740.0" type="line"/>
    </contour>
    <contour>
      <point x="254.82142857142856" y="-80.0" type="line"/>
      <point x="294.25" y="-80.0" type="line"/>
      <point x="435.10714285714283" y="740.0" type="line"/>
      <point x="396.07142857142856" y="740.0" type="line"/>
    </contour>
  </outline>
</glyph>
<glyph name="ampersand" format="2">
  <advance width="788.9285714285714"/>
  <unicode hex="0026"/>
  <outline>
    <contour>
      <point x="582.1785714285714" y="-10.0" type="curve" smooth="yes"/>
      <point x="641.5357142857142" y="-10.0"/>
      <point x="701.5357142857142" y="18.892857142857142"/>
      <point x="737.3928571428571" y="72.42857142857142" type="curve"/>
      <point x="726.5714285714286" y="85.25" type="line"/>
      <point x="723.9642857142857" y="85.25" type="line"/>
      <point x="705.3571428571429" y="71.07142857142857"/>
      <point x="686.1428571428571" y="65.28571428571428"/>
      <point x="661.9285714285714" y="65.28571428571428" type="curve" smooth="yes"/>
      <point x="608.1071428571429" y="65.28571428571428"/>
      <point x="555.6428571428571" y="101.03571428571428"/>
      <point x="490.2142857142857" y="188.35714285714283" type="curve"/>
      <point x="351.8928571428571" y="370.0357142857143" type="line" smooth="yes"/>
      <point x="290.4642857142857" y="450.8928571428571"/>
      <point x="268.9642857142857" y="494.85714285714283"/>
      <point x="268.9642857142857" y="537.1071428571429" type="curve" smooth="yes"/>
      <point x="268.9642857142857" y="589.1071428571429"/>
      <point x="298.75" y="629.0"/>
      <point x="346.10714285714283" y="629.0" type="curve" smooth="yes"/>
      <point x="391.64285714285717" y="629.0"/>
      <point x="413.32142857142856" y="597.1785714285714"/>
      <point x="413.32142857142856" y="554.0357142857143" type="curve" smooth="yes"/>
      <point x="413.32142857142856" y="498.9642857142857"/>
      <point x="380.25" y="440.5357142857143"/>
      <point x="313.57142857142856" y="402.35714285714283" type="curve"/>
      <point x="327.9642857142857" y="380.92857142857144" type="line"/>
      <point x="474.2142857142857" y="425.0357142857143"/>
      <point x="531.4285714285714" y="474.57142857142856"/>
      <point x="531.4285714285714" y="544.5357142857143" type="curve" smooth="yes"/>
      <point x="531.4285714285714" y="620.4285714285714"/>
      <point x="459.9642857142857" y="670.0"/>
      <point x="355.7142857142857" y="670.0" type="curve" smooth="yes"/>
      <point x="229.82142857142858" y="670.0"/>
      <point x="151.03571428571428" y="600.9285714285714"/>
      <point x="151.03571428571428" y="486.64285714285717" type="curve" smooth="yes"/>
      <point x="151.03571428571428" y="427.3928571428571"/>
      <point x="176.92857142857144" y="382.2142857142857"/>
      <point x="233.03571428571428" y="308.07142857142856" type="curve" smooth="yes"/>
      <point x="376.3928571428571" y="119.60714285714286" type="line"/>
      <point x="444.0357142857143" y="31.5"/>
      <point x="496.5" y="-10.0"/>
    </contour>
    <contour>
      <point x="222.21428571428572" y="-10.0" type="curve" smooth="yes"/>
      <point x="405.6428571428571" y="-10.0"/>
      <point x="526.25" y="128.78571428571428"/>
      <point x="661.1071428571429" y="350.0" type="curve"/>
      <point x="627.7142857142857" y="325.0" type="line"/>
      <point x="739.7142857142857" y="372.0" type="line"/>
      <point x="742.7142857142857" y="388.0" type="line"/>
      <point x="508.82142857142856" y="388.0" type="line"/>
      <point x="505.82142857142856" y="372.0" type="line"/>
      <point x="592.2142857142857" y="333.0" type="line"/>
      <point x="501.3928571428571" y="152.25"/>
      <point x="392.92857142857144" y="47.785714285714285"/>
      <point x="278.75" y="47.785714285714285" type="curve" smooth="yes"/>
      <point x="195.78571428571428" y="47.785714285714285"/>
      <point x="152.03571428571428" y="103.91032325338895"/>
      <point x="152.03571428571428" y="183.78571428571428" type="curve" smooth="yes"/>
      <point x="152.03571428571428" y="254.3108108108108"/>
      <point x="184.6149995781021" y="306.77305175628015"/>
      <point x="238.85714285714286" y="337.10714285714283" type="curve"/>
      <point x="222.89285714285714" y="355.5" type="line"/>
      <point x="104.5892964964791" y="311.2099834666257"/>
      <point x="29.392857142857146" y="252.69642857142856"/>
      <point x="29.392857142857146" y="148.14285714285714" type="curve" smooth="yes"/>
      <point x="29.392857142857146" y="49.63736263736264"/>
      <point x="105.78571428571428" y="-10.0"/>
    </contour>
  </outline>
</glyph>
<glyph name="quotesingle" format="2">
  <advance width="250.0"/>
  <unicode hex="0027"/>
  <outline>
    <contour>
      <point x="142.10714285714286" y="490.0" type="line"/>
      <point x="166.96428571428572" y="490.0" type="line"/>
      <point x="249.60714285714286" y="740.0" type="line"/>
      <point x="147.46428571428572" y="740.0" type="line"/>
    </contour>
  </outline>
</glyph>
<glyph name="parenleft" format="2">
  <advance width="271.25"/>
  <unicode hex="0028"/>
  <outline>
    <contour>
      <point x="174.28571428571428" y="-150.0" type="curve"/>
      <point x="194.28571428571428" y="-150.0" type="line"/>
      <point x="194.28571428571428" y="-147.0" type="line"/>
      <point x="152.67857142857142" y="-47.17857142857143"/>
      <point x="137.89285714285714" y="53.64285714285714"/>
      <point x="137.89285714285714" y="176.07142857142858" type="curve" smooth="yes"/>
      <point x="137.89285714285714" y="384.64285714285717"/>
      <point x="217.89285714285714" y="575.2142857142857"/>
      <point x="342.2857142857143" y="737.0" type="curve"/>
      <point x="342.2857142857143" y="740.0" type="line"/>
      <point x="322.2857142857143" y="740.0" type="line"/>
      <point x="174.21428571428572" y="605.0714285714286"/>
      <point x="73.21428571428571" y="413.2857142857143"/>
      <point x="73.21428571428571" y="207.14285714285714" type="curve" smooth="yes"/>
      <point x="73.21428571428571" y="76.89285714285714"/>
      <point x="104.78571428571428" y="-42.75"/>
    </contour>
  </outline>
</glyph>
<glyph name="parenright" format="2">
  <advance width="271.25"/>
  <unicode hex="0029"/>
  <outline>
    <contour>
      <point x="-71.07142857142857" y="-149.60714285714286" type="line"/>
      <point x="-51.07142857142857" y="-149.60714285714286" type="line"/>
      <point x="97.0" y="-14.678571428571429"/>
      <point x="198.0" y="177.10714285714286"/>
      <point x="198.0" y="383.25" type="curve" smooth="yes"/>
      <point x="198.0" y="513.5"/>
      <point x="166.42857142857142" y="633.1428571428571"/>
      <point x="96.92857142857143" y="740.3928571428571" type="curve"/>
      <point x="76.92857142857143" y="740.3928571428571" type="line"/>
      <point x="76.92857142857143" y="737.3928571428571" type="line"/>
      <point x="118.53571428571429" y="637.5714285714286"/>
      <point x="133.32142857142858" y="536.75"/>
      <point x="133.32142857142858" y="414.32142857142856" type="curve" smooth="yes"/>
      <point x="133.32142857142858" y="205.75"/>
      <point x="53.32142857142857" y="15.178571428571429"/>
      <point x="-71.07142857142857" y="-146.60714285714286" type="curve"/>
    </contour>
  </outline>
</glyph>
<glyph name="asterisk" format="2">
  <advance width="360.2142857142857"/>
  <unicode hex="002A"/>
  <outline>
    <contour>
      <point x="69.35714285714286" y="474.07142857142856" type="line"/>
      <point x="124.89285714285714" y="427.75" type="line"/>
      <point x="208.07142857142858" y="554.1785714285714" type="line"/>
      <point x="247.21428571428572" y="428.9642857142857" type="line"/>
      <point x="318.0" y="471.64285714285717" type="line"/>
      <point x="231.5" y="573.3928571428571" type="line"/>
      <point x="374.75" y="592.1071428571429" type="line"/>
      <point x="361.5" y="665.0714285714286" type="line"/>
      <point x="227.5" y="599.8214285714286" type="line"/>
      <point x="278.60714285714283" y="740.0" type="line"/>
      <point x="201.57142857142858" y="740.0" type="line"/>
      <point x="203.85714285714286" y="599.8214285714286" type="line"/>
      <point x="91.07142857142857" y="665.0714285714286" type="line"/>
      <point x="56.60714285714286" y="592.1071428571429" type="line"/>
      <point x="190.64285714285714" y="573.3928571428571" type="line"/>
    </contour>
  </outline>
</glyph>
<glyph name="plus" format="2">
  <advance width="560.7142857142857"/>
  <unicode hex="002B"/>
  <outline>
    <contour>
      <point x="478.3928571428571" y="245.96428571428572" type="line"/>
      <point x="487.60714285714283" y="298.0357142857143" type="line"/>
      <point x="68.39285714285714" y="298.0357142857143" type="line"/>
      <point x="59.17857142857143" y="245.96428571428572" type="line"/>
    </contour>
    <contour>
      <point x="282.14285714285717" y="482.0" type="line"/>
      <point x="208.14285714285714" y="62.0" type="line"/>
      <point x="265.0357142857143" y="62.0" type="line"/>
      <point x="339.0357142857143" y="482.0" type="line"/>
    </contour>
  </outline>
</glyph>
<glyph name="comma" format="2">
  <advance width="250.53571428571428"/>
  <unicode hex="002C"/>
  <outline>
    <contour>
      <point x="-5.0357142857142865" y="-193.21428571428572" type="line"/>
      <point x="119.28571428571428" y="-140.07142857142858"/>
      <point x="176.85714285714283" y="-68.0"/>
      <point x="176.85714285714283" y="6.392857142857142" type="curve" smooth="yes"/>
      <point x="176.85714285714283" y="48.42857142857142"/>
      <point x="159.60714285714286" y="86.10714285714286"/>
      <point x="122.35714285714286" y="109.10714285714285" type="curve" smooth="yes"/>
      <point x="112.75" y="115.10714285714286"/>
      <point x="106.75" y="118.10714285714286"/>
      <point x="100.35714285714286" y="118.10714285714286" type="curve" smooth="yes"/>
      <point x="91.14285714285714" y="118.10714285714286"/>
      <point x="86.35714285714286" y="112.89285714285714"/>
      <point x="74.17857142857142" y="97.32142857142857" type="curve" smooth="yes"/>
      <point x="31.964285714285715" y="42.42857142857143" type="line"/>
      <point x="33.17857142857143" y="30.607142857142858" type="line"/>
      <point x="61.57142857142857" y="12.821428571428571" type="line" smooth="yes"/>
      <point x="85.17857142857143" y="-2.178571428571429"/>
      <point x="97.60714285714286" y="-22.0"/>
      <point x="97.60714285714286" y="-52.214285714285715" type="curve" smooth="yes"/>
      <point x="97.60714285714286" y="-96.85714285714286"/>
      <point x="69.57142857142857" y="-130.78571428571428"/>
      <point x="-5.0357142857142865" y="-166.71428571428572" type="curve"/>
    </contour>
  </outline>
</glyph>
<glyph name="hyphen" format="2">
  <advance width="354.25"/>
  <unicode hex="002D"/>
  <outline>
    <contour>
      <point x="36.964285714285715" y="224.75" type="line"/>
      <point x="306.07142857142856" y="224.75" type="line"/>
      <point x="317.2857142857143" y="289.25" type="line"/>
      <point x="48.17857142857143" y="289.25" type="line"/>
    </contour>
  </outline>
</glyph>
<glyph name="period" format="2">
  <advance width="250.53571428571428"/>
  <unicode hex="002E"/>
  <outline>
    <contour>
      <point x="88.46428571428571" y="-5.0" type="curve" smooth="yes"/>
      <point x="131.53571428571428" y="-5.0"/>
      <point x="159.78571428571428" y="32.07142857142857"/>
      <point x="159.78571428571428" y="71.53571428571428" type="curve" smooth="yes"/>
      <point x="159.78571428571428" y="105.39285714285714"/>
      <point x="142.35714285714286" y="130.03571428571428"/>
      <point x="103.28571428571428" y="130.03571428571428" type="curve" smooth="yes"/>
      <point x="61.214285714285715" y="130.03571428571428"/>
      <point x="31.964285714285715" y="92.96428571428571"/>
      <point x="31.964285714285715" y="53.5" type="curve" smooth="yes"/>
      <point x="31.964285714285715" y="19.642857142857142"/>
      <point x="49.392857142857146" y="-5.0"/>
    </contour>
  </outline>
</glyph>
<glyph name="one" format="2">
  <advance width="560.7142857142857"/>
  <unicode hex="0031"/>
  <outline>
    <contour>
      <point x="90.5" y="0.0" type="line"/>
      <point x="396.0357142857143" y="0.0" type="line"/>
      <point x="399.0357142857143" y="16.0" type="line"/>
      <point x="320.5357142857143" y="57.21428571428571" type="line"/>
      <point x="425.7142857142857" y="660.0" type="line"/>
      <point x="357.75" y="660.0" type="line"/>
      <point x="117.53571428571428" y="510.0" type="line"/>
      <point x="109.92857142857143" y="468.32142857142856" type="line"/>
      <point x="274.2857142857143" y="545.4285714285714" type="line"/>
      <point x="188.32142857142858" y="57.21428571428571" type="line"/>
      <point x="93.89285714285714" y="16.0" type="line"/>
    </contour>
  </outline>
</glyph>
<glyph name="two" format="2">
  <advance width="560.7142857142857"/>
  <unicode hex="0032"/>
  <outline>
    <contour>
      <point x="13.571428571428571" y="0.0" type="line"/>
      <point x="436.07142857142856" y="0.0" type="line"/>
      <point x="480.10714285714283" y="211.78571428571428" type="line"/>
      <point x="464.1071428571429" y="211.78571428571428" type="line"/>
      <point x="390.17857142857144" y="108.82142857142857" type="line"/>
      <point x="112.10714285714286" y="108.82142857142857" type="line"/>
      <point x="88.35714285714286" y="55.607142857142854" type="line"/>
      <point x="435.14285714285717" y="338.2857142857143"/>
      <point x="512.9642857142857" y="413.35714285714283"/>
      <point x="512.9642857142857" y="523.6071428571429" type="curve" smooth="yes"/>
      <point x="512.9642857142857" y="612.0714285714286"/>
      <point x="440.85714285714283" y="670.0"/>
      <point x="345.75" y="670.0" type="curve" smooth="yes"/>
      <point x="258.0" y="670.0"/>
      <point x="220.78571428571428" y="643.1785714285714"/>
      <point x="172.67857142857142" y="609.8214285714286" type="curve" smooth="yes"/>
      <point x="116.35714285714286" y="570.7142857142857"/>
      <point x="93.85714285714286" y="530.1071428571429"/>
      <point x="86.64285714285714" y="490.8571428571429" type="curve" smooth="yes"/>
      <point x="80.85714285714286" y="453.8571428571429"/>
      <point x="93.03571428571429" y="452.0"/>
      <point x="117.42857142857143" y="452.0" type="curve" smooth="yes"/>
      <point x="175.28571428571428" y="452.0" type="line"/>
      <point x="186.10714285714286" y="463.82142857142856" type="line"/>
      <point x="192.71428571428572" y="505.1071428571429" type="line" smooth="yes"/>
      <point x="204.5" y="577.5"/>
      <point x="235.07142857142856" y="618.1428571428571"/>
      <point x="291.35714285714283" y="618.1428571428571" type="curve" smooth="yes"/>
      <point x="342.75" y="618.1428571428571"/>
      <point x="374.32142857142856" y="581.1785714285714"/>
      <point x="374.32142857142856" y="528.75" type="curve" smooth="yes"/>
      <point x="374.32142857142856" y="422.67857142857144"/>
      <point x="333.0" y="347.2142857142857"/>
      <point x="21.0" y="37.14285714285714" type="curve"/>
    </contour>
  </outline>
</glyph>
<glyph name="three" format="2">
  <advance width="560.7142857142857"/>
  <unicode hex="0033"/>
  <outline>
    <contour>
      <point x="204.35714285714286" y="-10.0" type="curve" smooth="yes"/>
      <point x="350.9642857142857" y="-10.0"/>
      <point x="478.3928571428571" y="88.03571428571428"/>
      <point x="478.3928571428571" y="204.89285714285714" type="curve" smooth="yes"/>
      <point x="478.3928571428571" y="301.85714285714283"/>
      <point x="395.57142857142856" y="363.0"/>
      <point x="238.75" y="363.0" type="curve"/>
      <point x="235.03571428571428" y="352.85714285714283" type="line"/>
      <point x="237.64285714285714" y="352.85714285714283"/>
      <point x="239.64285714285714" y="352.85714285714283"/>
      <point x="242.25" y="352.85714285714283" type="curve" smooth="yes"/>
      <point x="385.3928571428571" y="352.85714285714283"/>
      <point x="500.9642857142857" y="427.0"/>
      <point x="500.9642857142857" y="532.0714285714286" type="curve" smooth="yes"/>
      <point x="500.9642857142857" y="608.5"/>
      <point x="431.4642857142857" y="670.0"/>
      <point x="321.5" y="670.0" type="curve" smooth="yes"/>
      <point x="255.78571428571428" y="670.0"/>
      <point x="211.53571428571428" y="651.3571428571429"/>
      <point x="165.25" y="616.8214285714286" type="curve" smooth="yes"/>
      <point x="118.75" y="583.6071428571429"/>
      <point x="94.14285714285714" y="546.1071428571429"/>
      <point x="94.14285714285714" y="508.2142857142857" type="curve" smooth="yes"/>
      <point x="94.14285714285714" y="486.7857142857143"/>
      <point x="105.14285714285714" y="483.17857142857144"/>
      <point x="125.53571428571429" y="483.17857142857144" type="curve" smooth="yes"/>
      <point x="184.96428571428572" y="483.17857142857144" type="line"/>
      <point x="195.78571428571428" y="494.2142857142857" type="line"/>
      <point x="202.39285714285714" y="537.4642857142857" type="line" smooth="yes"/>
      <point x="211.39285714285714" y="596.6785714285714"/>
      <point x="245.07142857142856" y="625.7142857142857"/>
      <point x="294.0" y="625.7142857142857" type="curve" smooth="yes"/>
      <point x="338.85714285714283" y="625.7142857142857"/>
      <point x="361.5" y="593.0714285714286"/>
      <point x="361.5" y="538.3214285714286" type="curve" smooth="yes"/>
      <point x="361.5" y="440.57142857142856"/>
      <point x="290.7142857142857" y="365.2142857142857"/>
      <point x="190.28571428571428" y="365.2142857142857" type="curve" smooth="yes"/>
      <point x="160.89285714285714" y="365.2142857142857" type="line"/>
      <point x="152.5" y="317.57142857142856" type="line"/>
      <point x="211.67857142857142" y="317.57142857142856" type="line" smooth="yes"/>
      <point x="295.89285714285717" y="317.57142857142856"/>
      <point x="337.32142857142856" y="274.07142857142856"/>
      <point x="337.32142857142856" y="204.78571428571428" type="curve" smooth="yes"/>
      <point x="337.32142857142856" y="100.0"/>
      <point x="284.07142857142856" y="34.285714285714285"/>
      <point x="206.21428571428572" y="34.285714285714285" type="curve" smooth="yes"/>
      <point x="146.07142857142856" y="34.285714285714285"/>
      <point x="116.21428571428572" y="59.60714285714286"/>
      <point x="125.64285714285714" y="114.75" type="curve" smooth="yes"/>
      <point x="131.25" y="149.57142857142856" type="line"/>
      <point x="124.42857142857142" y="160.21428571428572" type="line"/>
      <point x="60.285714285714285" y="160.21428571428572" type="line" smooth="yes"/>
      <point x="35.82142857142857" y="160.21428571428572"/>
      <point x="21.0" y="148.21428571428572"/>
      <point x="21.0" y="107.75" type="curve" smooth="yes"/>
      <point x="21.0" y="78.64285714285714"/>
      <point x="35.07142857142857" y="55.357142857142854"/>
      <point x="59.5" y="34.75" type="curve" smooth="yes"/>
      <point x="89.32142857142857" y="8.750000000000002"/>
      <point x="138.10714285714286" y="-10.0"/>
    </contour>
  </outline>
</glyph>
<glyph name="four" format="2">
  <advance width="560.7142857142857"/>
  <unicode hex="0034"/>
  <outline>
    <contour>
      <point x="226.28571428571428" y="0.0" type="line"/>
      <point x="359.7142857142857" y="0.0" type="line"/>
      <point x="474.8928571428571" y="660.0" type="line"/>
      <point x="413.0" y="660.0" type="line"/>
      <point x="11.39285714285714" y="206.32142857142858" type="line"/>
      <point x="5.357142857142856" y="174.78571428571428" type="line"/>
      <point x="500.42857142857144" y="174.78571428571428" type="line"/>
      <point x="512.8571428571429" y="251.17857142857142" type="line"/>
      <point x="53.57142857142857" y="251.17857142857142" type="line"/>
      <point x="73.39285714285714" y="210.32142857142858" type="line"/>
      <point x="388.85714285714283" y="574.0357142857143" type="line"/>
      <point x="323.0357142857143" y="549.75" type="line"/>
    </contour>
  </outline>
</glyph>
<glyph name="five" format="2">
  <advance width="560.7142857142857"/>
  <unicode hex="0035"/>
  <outline>
    <contour>
      <point x="184.71428571428572" y="-10.0" type="curve" smooth="yes"/>
      <point x="345.10714285714283" y="-10.0"/>
      <point x="470.9642857142857" y="108.85714285714286"/>
      <point x="470.9642857142857" y="242.53571428571428" type="curve" smooth="yes"/>
      <point x="470.9642857142857" y="357.4642857142857"/>
      <point x="393.2142857142857" y="433.0357142857143"/>
      <point x="242.78571428571428" y="433.0357142857143" type="curve" smooth="yes"/>
      <point x="204.35714285714286" y="433.0357142857143"/>
      <point x="178.28571428571428" y="430.82142857142856"/>
      <point x="154.28571428571428" y="428.82142857142856" type="curve"/>
      <point x="158.57142857142856" y="402.0" type="line"/>
      <point x="199.39285714285714" y="626.0" type="line"/>
      <point x="172.71428571428572" y="558.7142857142858" type="line"/>
      <point x="472.2142857142857" y="558.7142857142858" type="line"/>
      <point x="491.67857142857144" y="660.0" type="line"/>
      <point x="155.28571428571428" y="660.0" type="line"/>
      <point x="88.75" y="303.1071428571429" type="line"/>
      <point x="123.53571428571429" y="308.5"/>
      <point x="149.07142857142858" y="312.1071428571429"/>
      <point x="179.32142857142858" y="312.1071428571429" type="curve" smooth="yes"/>
      <point x="288.2142857142857" y="312.1071428571429"/>
      <point x="340.2142857142857" y="267.11706349192855"/>
      <point x="340.2142857142857" y="180.0" type="curve" smooth="yes"/>
      <point x="340.2142857142857" y="91.65059940059643"/>
      <point x="287.00200267" y="36.35714285714286"/>
      <point x="216.28571428571428" y="36.35714285714286" type="curve" smooth="yes"/>
      <point x="161.25955149521428" y="36.35714285714286"/>
      <point x="138.05491897428573" y="63.87095736212857"/>
      <point x="122.46428571428571" y="109.46428571428572" type="curve" smooth="yes"/>
      <point x="113.46428571428571" y="134.89285714285714" type="line"/>
      <point x="100.21428571428571" y="134.89285714285714" type="line"/>
      <point x="42.17857142857143" y="95.14285714285714" type="line" smooth="yes"/>
      <point x="27.785714285714285" y="85.75"/>
      <point x="19.964285714285715" y="75.96428571428571"/>
      <point x="19.357142857142858" y="66.17857142857143" type="curve" smooth="yes"/>
      <point x="16.92922717467143" y="31.970023492539283"/>
      <point x="74.32142857142857" y="-10.0"/>
    </contour>
  </outline>
</glyph>
<glyph name="six" format="2">
  <advance width="560.7142857142857"/>
  <unicode hex="0036"/>
  <outline>
    <contour>
      <point x="238.35714285714286" y="-10.0" type="curve" smooth="yes"/>
      <point x="377.8928571428571" y="-10.0"/>
      <point x="485.7142857142857" y="82.57142857142857"/>
      <point x="485.7142857142857" y="230.39285714285714" type="curve" smooth="yes"/>
      <point x="485.7142857142857" y="325.42857142857144"/>
      <point x="438.32142857142856" y="394.07142857142856"/>
      <point x="338.07142857142856" y="394.07142857142856" type="curve" smooth="yes"/>
      <point x="254.96428571428572" y="394.07142857142856"/>
      <point x="188.46428571428572" y="335.57142857142856"/>
      <point x="150.67857142857142" y="241.92857142857142" type="curve"/>
      <point x="153.46428571428572" y="208.53571428571428" type="line"/>
      <point x="180.28571428571428" y="281.5"/>
      <point x="230.57142857142856" y="321.75"/>
      <point x="283.14285714285717" y="321.75" type="curve" smooth="yes"/>
      <point x="328.75" y="321.75"/>
      <point x="351.8571428571429" y="288.2142857142857"/>
      <point x="351.8571428571429" y="221.57142857142858" type="curve" smooth="yes"/>
      <point x="351.8571428571429" y="109.5"/>
      <point x="306.7142857142857" y="36.464285714285715"/>
      <point x="243.5" y="36.464285714285715" type="curve" smooth="yes"/>
      <point x="198.28571428571428" y="36.464285714285715"/>
      <point x="170.85714285714283" y="74.78571428571428"/>
      <point x="170.85714285714283" y="156.71428571428572" type="curve" smooth="yes"/>
      <point x="170.85714285714283" y="339.42857142857144"/>
      <point x="258.07142857142856" y="555.9285714285714"/>
      <point x="501.17857142857144" y="636.1071428571429" type="curve"/>
      <point x="507.7857142857143" y="670.0" type="line"/>
      <point x="209.35714285714286" y="608.8571428571429"/>
      <point x="34.642857142857146" y="415.39285714285717"/>
      <point x="34.642857142857146" y="197.32142857142858" type="curve" smooth="yes"/>
      <point x="34.642857142857146" y="69.75"/>
      <point x="108.85714285714286" y="-10.0"/>
    </contour>
  </outline>
</glyph>
<glyph name="seven" format="2">
  <advance width="560.7142857142857"/>
  <unicode hex="0037"/>
  <outline>
    <contour>
      <point x="75.64285714285714" y="0.0" type="curve"/>
      <point x="202.14285714285714" y="0.0" type="line"/>
      <point x="291.07142857142856" y="249.17857142857144"/>
      <point x="415.7857142857143" y="439.10714285714283"/>
      <point x="537.1785714285714" y="621.7857142857143" type="curve"/>
      <point x="543.8214285714286" y="660.0" type="line"/>
      <point x="126.32142857142857" y="660.0" type="line"/>
      <point x="104.03571428571428" y="532.6071428571429" type="line"/>
      <point x="459.2857142857143" y="532.6071428571429" type="line"/>
      <point x="499.35714285714283" y="626.0" type="line"/>
      <point x="270.7142857142857" y="315.67857142857144"/>
      <point x="163.71428571428572" y="153.60714285714286"/>
    </contour>
  </outline>
</glyph>
<glyph name="eight" format="2">
  <advance width="560.7142857142857"/>
  <unicode hex="0038"/>
  <outline>
    <contour>
      <point x="226.89285714285714" y="-10.0" type="curve" smooth="yes"/>
      <point x="365.9339080462143" y="-10.0"/>
      <point x="473.7857142857143" y="73.14285714285714"/>
      <point x="473.7857142857143" y="191.64285714285714" type="curve" smooth="yes"/>
      <point x="473.7857142857143" y="261.25"/>
      <point x="442.78125976639285" y="317.8778114838214"/>
      <point x="335.25" y="383.9642857142857" type="curve" smooth="yes"/>
      <point x="246.50696567274997" y="438.62834427728575"/>
      <point x="232.03571428571428" y="480.783730159"/>
      <point x="232.03571428571428" y="522.8571428571429" type="curve" smooth="yes"/>
      <point x="232.03571428571428" y="578.38095238075"/>
      <point x="262.57142857142856" y="625.5714285714286"/>
      <point x="326.4642857142857" y="625.5714285714286" type="curve" smooth="yes"/>
      <point x="377.5" y="625.5714285714286"/>
      <point x="410.4642857142857" y="593.0357142857143"/>
      <point x="410.4642857142857" y="531.9642857142857" type="curve" smooth="yes"/>
      <point x="410.4642857142857" y="466.82142857142856"/>
      <point x="390.47398770785713" y="435.9654652057143"/>
      <point x="314.4642857142857" y="384.25" type="curve"/>
      <point x="334.32142857142856" y="354.25" type="line"/>
      <point x="448.17857142857144" y="398.35714285714283"/>
      <point x="510.7142857142857" y="449.2857142857143"/>
      <point x="510.7142857142857" y="522.5714285714286" type="curve" smooth="yes"/>
      <point x="510.7142857142857" y="607.4285714285714"/>
      <point x="440.07142857142856" y="670.0"/>
      <point x="330.2857142857143" y="670.0" type="curve" smooth="yes"/>
      <point x="202.5" y="670.0"/>
      <point x="103.67857142857143" y="581.0635319456429"/>
      <point x="103.67857142857143" y="473.0357142857143" type="curve" smooth="yes"/>
      <point x="103.67857142857143" y="407.24541101335717"/>
      <point x="132.40459380585713" y="359.47139728499997"/>
      <point x="218.78571428571428" y="302.6071428571429" type="curve" smooth="yes"/>
      <point x="317.2926243900357" y="239.8126454702857"/>
      <point x="346.7857142857143" y="207.40527003503573"/>
      <point x="346.7857142857143" y="142.42857142857144" type="curve" smooth="yes"/>
      <point x="346.7857142857143" y="76.86917701860715"/>
      <point x="302.86778115482144" y="34.035714285714285"/>
      <point x="236.42857142857142" y="34.035714285714285" type="curve" smooth="yes"/>
      <point x="172.57142857142856" y="34.035714285714285"/>
      <point x="132.0" y="74.19787644789285"/>
      <point x="132.0" y="142.92857142857142" type="curve" smooth="yes"/>
      <point x="132.0" y="217.51373626364284"/>
      <point x="152.70893181067856" y="249.51588635657143"/>
      <point x="230.85714285714286" y="309.2857142857143" type="curve"/>
      <point x="220.57142857142858" y="340.7857142857143" type="line"/>
      <point x="101.25239287542857" y="285.95198245346427"/>
      <point x="25.5" y="228.55707610167858"/>
      <point x="25.5" y="136.64285714285714" type="curve" smooth="yes"/>
      <point x="25.5" y="46.58928571428928"/>
      <point x="106.01602136182143" y="-10.0"/>
    </contour>
  </outline>
</glyph>
<glyph name="nine" format="2">
  <advance width="560.7142857142857"/>
  <unicode hex="0039"/>
  <outline>
    <contour>
      <point x="38.89285714285714" y="-10.0" type="line"/>
      <point x="334.89285714285717" y="52.35714285714286"/>
      <point x="512.0357142857143" y="244.60714285714286"/>
      <point x="512.0357142857143" y="462.67857142857144" type="curve" smooth="yes"/>
      <point x="512.0357142857143" y="590.25"/>
      <point x="437.82142857142856" y="670.0"/>
      <point x="308.32142857142856" y="670.0" type="curve" smooth="yes"/>
      <point x="168.78571428571428" y="670.0"/>
      <point x="60.964285714285715" y="577.4285714285714"/>
      <point x="60.964285714285715" y="429.60714285714283" type="curve" smooth="yes"/>
      <point x="60.964285714285715" y="334.57142857142856"/>
      <point x="108.35714285714286" y="265.92857142857144"/>
      <point x="208.60714285714286" y="265.92857142857144" type="curve" smooth="yes"/>
      <point x="291.7142857142857" y="265.92857142857144"/>
      <point x="358.2142857142857" y="324.42857142857144"/>
      <point x="396.0" y="418.07142857142856" type="curve"/>
      <point x="393.2142857142857" y="451.4642857142857" type="line"/>
      <point x="366.39285714285717" y="378.5"/>
      <point x="316.10714285714283" y="338.25"/>
      <point x="263.5357142857143" y="338.25" type="curve" smooth="yes"/>
      <point x="217.92857142857142" y="338.25"/>
      <point x="194.82142857142856" y="371.7857142857143"/>
      <point x="194.82142857142856" y="438.42857142857144" type="curve" smooth="yes"/>
      <point x="194.82142857142856" y="550.5"/>
      <point x="239.96428571428572" y="623.5357142857143"/>
      <point x="303.17857142857144" y="623.5357142857143" type="curve" smooth="yes"/>
      <point x="348.39285714285717" y="623.5357142857143"/>
      <point x="375.82142857142856" y="585.2142857142857"/>
      <point x="375.82142857142856" y="503.2857142857143" type="curve" smooth="yes"/>
      <point x="375.82142857142856" y="320.57142857142856"/>
      <point x="288.60714285714283" y="104.07142857142857"/>
      <point x="45.5" y="23.892857142857142" type="curve"/>
    </contour>
  </outline>
</glyph>
<glyph name="less" format="2">
  <advance width="560.7142857142857"/>
  <unicode hex="003C"/>
  <outline>
    <contour>
      <point x="437.6428571428571" y="62.0" type="line"/>
      <point x="447.4642857142857" y="116.89285714285714" type="line"/>
      <point x="88.67857142857142" y="288.89285714285717" type="line"/>
      <point x="81.03571428571428" y="249.5" type="line"/>
      <point x="501.0357142857143" y="421.5" type="line"/>
      <point x="511.25" y="482.0" type="line"/>
      <point x="59.25" y="297.0" type="line"/>
      <point x="51.25" y="247.0" type="line"/>
    </contour>
  </outline>
</glyph>
<glyph name="equal" format="2">
  <advance width="560.7142857142857"/>
  <unicode hex="003D"/>
  <outline>
    <contour>
      <point x="462.35714285714283" y="143.96428571428572" type="line"/>
      <point x="471.57142857142856" y="196.03571428571428" type="line"/>
      <point x="52.357142857142854" y="196.03571428571428" type="line"/>
      <point x="43.14285714285714" y="143.96428571428572" type="line"/>
    </contour>
    <contour>
      <point x="498.35714285714283" y="347.9642857142857" type="line"/>
      <point x="507.57142857142856" y="400.0357142857143" type="line"/>
      <point x="88.35714285714286" y="400.0357142857143" type="line"/>
      <point x="79.14285714285714" y="347.9642857142857" type="line"/>
    </contour>
  </outline>
</glyph>
<glyph name="greater" format="2">
  <advance width="560.7142857142857"/>
  <unicode hex="003E"/>
  <outline>
    <contour>
      <point x="109.14285714285714" y="482.0" type="line"/>
      <point x="99.32142857142857" y="427.1071428571429" type="line"/>
      <point x="458.10714285714283" y="255.10714285714286" type="line"/>
      <point x="465.75" y="294.5" type="line"/>
      <point x="45.75" y="122.5" type="line"/>
      <point x="35.535714285714285" y="62.0" type="line"/>
      <point x="487.5357142857143" y="247.0" type="line"/>
      <point x="495.5357142857143" y="297.0" type="line"/>
    </contour>
  </outline>
</glyph>
<glyph name="question" format="2">
  <advance width="397.32142857142856"/>
  <unicode hex="003F"/>
  <outline>
    <contour>
      <point x="152.53571428571428" y="214.67857142857142" type="curve"/>
      <point x="178.89285714285714" y="219.39285714285714" type="line"/>
      <point x="168.78571428571428" y="233.32142857142858"/>
      <point x="162.42857142857142" y="247.25"/>
      <point x="162.42857142857142" y="266.9642857142857" type="curve" smooth="yes"/>
      <point x="162.42857142857142" y="381.0357142857143"/>
      <point x="376.42857142857144" y="324.07142857142856"/>
      <point x="376.42857142857144" y="487.57142857142856" type="curve" smooth="yes"/>
      <point x="376.42857142857144" y="588.4285714285714"/>
      <point x="248.67857142857142" y="670.0"/>
      <point x="146.25" y="670.0" type="curve" smooth="yes"/>
      <point x="98.25" y="670.0"/>
      <point x="85.25" y="659.0"/>
      <point x="85.25" y="644.0" type="curve" smooth="yes"/>
      <point x="85.25" y="639.0"/>
      <point x="86.85714285714286" y="632.3928571428571"/>
      <point x="90.25" y="625.0" type="curve" smooth="yes"/>
      <point x="116.57142857142857" y="562.25" type="line"/>
      <point x="130.78571428571428" y="556.6428571428571" type="line"/>
      <point x="171.14285714285714" y="565.0357142857143" type="line" smooth="yes"/>
      <point x="186.32142857142856" y="568.4285714285714"/>
      <point x="213.85714285714286" y="570.0357142857143"/>
      <point x="226.64285714285714" y="570.0357142857143" type="curve" smooth="yes"/>
      <point x="277.5357142857143" y="570.0357142857143"/>
      <point x="329.75" y="555.8214285714286"/>
      <point x="329.75" y="516.3928571428571" type="curve" smooth="yes"/>
      <point x="329.75" y="441.9642857142857"/>
      <point x="102.10714285714286" y="471.92857142857144"/>
      <point x="102.10714285714286" y="320.67857142857144" type="curve" smooth="yes"/>
      <point x="102.10714285714286" y="280.2857142857143"/>
      <point x="122.92857142857143" y="245.75"/>
    </contour>
    <contour>
      <point x="130.42857142857142" y="-5.0" type="curve" smooth="yes"/>
      <point x="173.5" y="-5.0"/>
      <point x="201.75" y="32.07142857142857"/>
      <point x="201.75" y="71.53571428571428" type="curve" smooth="yes"/>
      <point x="201.75" y="105.39285714285714"/>
      <point x="184.32142857142856" y="130.03571428571428"/>
      <point x="145.25" y="130.03571428571428" type="curve" smooth="yes"/>
      <point x="103.17857142857143" y="130.03571428571428"/>
      <point x="73.92857142857143" y="92.96428571428571"/>
      <point x="73.92857142857143" y="53.5" type="curve" smooth="yes"/>
      <point x="73.92857142857143" y="19.642857142857142"/>
      <point x="91.35714285714286" y="-5.0"/>
    </contour>
  </outline>
</glyph>
<glyph name="at" format="2">
  <advance width="799.6785714285714"/>
  <unicode hex="0040"/>
  <outline>
    <contour>
      <point x="365.60714285714283" y="-118.0" type="curve" smooth="yes"/>
      <point x="469.4642857142857" y="-118.0"/>
      <point x="541.4285714285714" y="-93.21428571428571"/>
      <point x="611.4285714285714" y="-49.214285714285715" type="curve"/>
      <point x="600.6071428571429" y="-27.0" type="line"/>
      <point x="543.4285714285714" y="-65.35714285714286"/>
      <point x="479.60714285714283" y="-85.53571428571429"/>
      <point x="392.60714285714283" y="-85.53571428571429" type="curve" smooth="yes"/>
      <point x="236.46428571428572" y="-85.53571428571429"/>
      <point x="128.10714285714286" y="14.642857142857142"/>
      <point x="128.10714285714286" y="186.0" type="curve" smooth="yes"/>
      <point x="128.10714285714286" y="377.57142857142856"/>
      <point x="247.46428571428572" y="531.75"/>
      <point x="431.60714285714283" y="531.75" type="curve" smooth="yes"/>
      <point x="592.0357142857143" y="531.75"/>
      <point x="696.25" y="421.57142857142856"/>
      <point x="696.25" y="281.0" type="curve" smooth="yes"/>
      <point x="696.25" y="173.92857142857142"/>
      <point x="637.3928571428571" y="71.14285714285714"/>
      <point x="572.0714285714286" y="71.14285714285714" type="curve" smooth="yes"/>
      <point x="545.1428571428571" y="71.14285714285714"/>
      <point x="540.1071428571429" y="86.71428571428571"/>
      <point x="548.2857142857143" y="133.0" type="curve" smooth="yes"/>
      <point x="600.0714285714286" y="423.5357142857143" type="line"/>
      <point x="581.75" y="423.5357142857143" type="line"/>
      <point x="516.7142857142857" y="398.7857142857143" type="line"/>
      <point x="549.8571428571429" y="396.4642857142857" type="line"/>
      <point x="532.4642857142857" y="416.25"/>
      <point x="500.35714285714283" y="429.0"/>
      <point x="461.60714285714283" y="429.0" type="curve" smooth="yes"/>
      <point x="341.57142857142856" y="429.0"/>
      <point x="211.25" y="296.75"/>
      <point x="211.25" y="132.5" type="curve" smooth="yes"/>
      <point x="211.25" y="60.392857142857146"/>
      <point x="245.64285714285714" y="21.0"/>
      <point x="292.25" y="21.0" type="curve" smooth="yes"/>
      <point x="350.42857142857144" y="21.0"/>
      <point x="392.67857142857144" y="57.0"/>
      <point x="446.9642857142857" y="136.96428571428572" type="curve"/>
      <point x="455.10714285714283" y="179.92857142857142" type="line"/>
      <point x="429.14285714285717" y="140.67857142857144"/>
      <point x="397.0" y="99.64285714285714"/>
      <point x="363.0" y="99.64285714285714" type="curve" smooth="yes"/>
      <point x="335.35714285714283" y="99.64285714285714"/>
      <point x="326.17857142857144" y="123.96428571428571"/>
      <point x="326.17857142857144" y="178.64285714285714" type="curve" smooth="yes"/>
      <point x="326.17857142857144" y="288.42857142857144"/>
      <point x="369.5" y="389.5357142857143"/>
      <point x="431.14285714285717" y="389.5357142857143" type="curve" smooth="yes"/>
      <point x="454.60714285714283" y="389.5357142857143"/>
      <point x="470.35714285714283" y="379.0357142857143"/>
      <point x="485.25" y="360.0" type="curve"/>
      <point x="480.2142857142857" y="375.5" type="line"/>
      <point x="439.07142857142856" y="137.35714285714286" type="line" smooth="yes"/>
      <point x="425.82142857142856" y="61.285714285714285"/>
      <point x="452.75" y="21.0"/>
      <point x="516.6071428571429" y="21.0" type="curve" smooth="yes"/>
      <point x="658.8928571428571" y="21.0"/>
      <point x="745.75" y="156.0"/>
      <point x="745.75" y="284.0" type="curve" smooth="yes"/>
      <point x="745.75" y="445.0"/>
      <point x="632.8928571428571" y="562.0"/>
      <point x="453.60714285714283" y="562.0" type="curve" smooth="yes"/>
      <point x="231.96428571428572" y="562.0"/>
      <point x="53.92857142857143" y="381.60714285714283"/>
      <point x="53.92857142857143" y="168.21428571428572" type="curve" smooth="yes"/>
      <point x="53.92857142857143" y="-4.392857142857143"/>
      <point x="180.35714285714286" y="-118.0"/>
    </contour>
  </outline>
</glyph>
<glyph name="A" format="2">
  <advance width="717.4285714285714"/>
  <unicode hex="0041"/>
  <anchor x="424.5357142857143" y="710.0" name="top"/>
  <anchor x="523.8571428571429" y="0.0" name="right"/>
  <anchor x="264.57142857142856" y="0.0" name="bottom"/>
  <outline>
    <contour>
      <point x="-33.21428571428571" y="0.0" type="line"/>
      <point x="163.14285714285714" y="0.0" type="line"/>
      <point x="166.75" y="16.0" type="line"/>
      <point x="82.57142857142857" y="53.64285714285714" type="line"/>
      <point x="80.21428571428571" y="28.0" type="line"/>
      <point x="378.9642857142857" y="562.5714285714286" type="line"/>
      <point x="340.14285714285717" y="562.5714285714286" type="line"/>
      <point x="446.25" y="28.0" type="line"/>
      <point x="462.4642857142857" y="60.42857142857142" type="line"/>
      <point x="354.5" y="16.0" type="line"/>
      <point x="351.5" y="0.0" type="line"/>
      <point x="641.3214285714286" y="0.0" type="line"/>
      <point x="644.7142857142857" y="16.0" type="line"/>
      <point x="560.25" y="66.71428571428571" type="line"/>
      <point x="591.5357142857142" y="28.0" type="line"/>
      <point x="457.9642857142857" y="665.0" type="line"/>
      <point x="378.5357142857143" y="665.0" type="line"/>
      <point x="16.964285714285715" y="28.0" type="line"/>
      <point x="55.85714285714286" y="62.14285714285714" type="line"/>
      <point x="-29.82142857142857" y="16.0" type="line"/>
    </contour>
    <contour>
      <point x="156.28571428571428" y="219.17857142857144" type="line"/>
      <point x="488.82142857142856" y="219.17857142857144" type="line"/>
      <point x="499.42857142857144" y="272.2142857142857" type="line"/>
      <point x="166.89285714285714" y="272.2142857142857" type="line"/>
    </contour>
  </outline>
</glyph>
<glyph name="B" format="2">
  <advance width="657.5714285714286"/>
  <unicode hex="0042"/>
  <outline>
    <contour>
      <point x="-14.285714285714285" y="0.0" type="line"/>
      <point x="201.35714285714283" y="0.0" type="line"/>
      <point x="317.35714285714283" y="660.0" type="line"/>
      <point x="101.71428571428572" y="660.0" type="line"/>
      <point x="98.71428571428572" y="644.0" type="line"/>
      <point x="170.14285714285714" y="602.7857142857143" type="line"/>
      <point x="74.14285714285714" y="57.214285714285715" type="line"/>
      <point x="-11.285714285714285" y="16.0" type="line"/>
    </contour>
    <contour>
      <point x="309.3571428571429" y="0.0" type="line" smooth="yes"/>
      <point x="501.7857142857143" y="0.0"/>
      <point x="600.6071428571429" y="102.39285714285714"/>
      <point x="600.6071428571429" y="204.25" type="curve" smooth="yes"/>
      <point x="600.6071428571429" y="301.64285714285717"/>
      <point x="519.9642857142857" y="361.0357142857143"/>
      <point x="360.7142857142857" y="361.0357142857143" type="curve"/>
      <point x="352.4642857142857" y="346.0357142857143" type="line"/>
      <point x="503.32142857142856" y="346.0357142857143"/>
      <point x="598.6428571428571" y="433.2142857142857"/>
      <point x="598.6428571428571" y="521.8214285714286" type="curve" smooth="yes"/>
      <point x="598.6428571428571" y="614.6071428571429"/>
      <point x="508.7857142857143" y="660.0"/>
      <point x="377.82142857142856" y="660.0" type="curve" smooth="yes"/>
      <point x="252.78571428571428" y="660.0" type="line"/>
      <point x="242.57142857142856" y="606.9642857142857" type="line"/>
      <point x="340.82142857142856" y="606.9642857142857" type="line" smooth="yes"/>
      <point x="424.92857142857144" y="606.9642857142857"/>
      <point x="455.25" y="569.3571428571429"/>
      <point x="455.25" y="499.9642857142857" type="curve" smooth="yes"/>
      <point x="455.25" y="423.39285714285717"/>
      <point x="402.07142857142856" y="363.7857142857143"/>
      <point x="303.85714285714283" y="363.7857142857143" type="curve" smooth="yes"/>
      <point x="204.53571428571428" y="363.7857142857143" type="line"/>
      <point x="194.92857142857142" y="316.82142857142856" type="line"/>
      <point x="318.8571428571429" y="316.82142857142856" type="line" smooth="yes"/>
      <point x="413.07142857142856" y="316.82142857142856"/>
      <point x="452.57142857142856" y="280.0"/>
      <point x="452.57142857142856" y="203.03571428571428" type="curve" smooth="yes"/>
      <point x="452.57142857142856" y="121.75"/>
      <point x="402.2857142857143" y="53.035714285714285"/>
      <point x="291.0357142857143" y="53.035714285714285" type="curve" smooth="yes"/>
      <point x="157.0" y="53.035714285714285" type="line"/>
      <point x="147.39285714285714" y="0.0" type="line"/>
    </contour>
  </outline>
</glyph>
<glyph name="C" format="2">
  <advance width="664.75"/>
  <unicode hex="0043"/>
  <anchor x="442.64285714285717" y="710.0" name="top"/>
  <anchor x="328.42857142857144" y="0.0" name="bottom"/>
  <outline>
    <contour>
      <point x="325.4642857142857" y="-10.0" type="curve" smooth="yes"/>
      <point x="416.64285714285717" y="-10.0"/>
      <point x="492.25" y="9.607142857142858"/>
      <point x="547.9642857142857" y="42.035714285714285" type="curve"/>
      <point x="588.3928571428571" y="210.75" type="line"/>
      <point x="571.1785714285714" y="210.75" type="line"/>
      <point x="462.0357142857143" y="73.82142857142857" type="line"/>
      <point x="427.89285714285717" y="54.285714285714285"/>
      <point x="390.42857142857144" y="40.25"/>
      <point x="350.0357142857143" y="40.25" type="curve" smooth="yes"/>
      <point x="253.03571428571428" y="40.25"/>
      <point x="191.85714285714286" y="122.53571428571429"/>
      <point x="191.85714285714286" y="254.42857142857142" type="curve" smooth="yes"/>
      <point x="191.85714285714286" y="456.89285714285717"/>
      <point x="289.6428571428571" y="622.7857142857143"/>
      <point x="435.42857142857144" y="622.7857142857143" type="curve" smooth="yes"/>
      <point x="474.2857142857143" y="622.7857142857143"/>
      <point x="497.0" y="613.2857142857143"/>
      <point x="520.2857142857143" y="592.8571428571429" type="curve"/>
      <point x="584.5714285714286" y="435.4642857142857" type="line"/>
      <point x="601.7857142857143" y="435.4642857142857" type="line"/>
      <point x="622.3214285714286" y="622.0" type="line"/>
      <point x="570.4642857142857" y="652.1428571428571"/>
      <point x="528.2857142857143" y="670.0"/>
      <point x="449.25" y="670.0" type="curve" smooth="yes"/>
      <point x="227.85714285714286" y="670.0"/>
      <point x="47.85714285714286" y="478.5"/>
      <point x="47.85714285714286" y="259.60714285714283" type="curve" smooth="yes"/>
      <point x="47.85714285714286" y="102.82142857142857"/>
      <point x="152.78571428571428" y="-10.0"/>
    </contour>
  </outline>
</glyph>
<glyph name="D" format="2">
  <advance width="747.1785714285714"/>
  <unicode hex="0044"/>
  <anchor x="402.60714285714283" y="710.0" name="top"/>
  <anchor x="313.0" y="0.0" name="bottom"/>
  <outline>
    <contour>
      <point x="-14.285714285714285" y="0.0" type="line"/>
      <point x="198.92857142857144" y="0.0" type="line"/>
      <point x="315.92857142857144" y="660.0" type="line"/>
      <point x="101.71428571428572" y="660.0" type="line"/>
      <point x="98.71428571428572" y="644.0" type="line"/>
      <point x="167.71428571428572" y="604.0" type="line"/>
      <point x="71.71428571428572" y="56.0" type="line"/>
      <point x="-11.285714285714285" y="16.0" type="line"/>
    </contour>
    <contour>
      <point x="283.82142857142856" y="0.0" type="line" smooth="yes"/>
      <point x="539.1071428571429" y="0.0"/>
      <point x="703.25" y="187.5"/>
      <point x="703.25" y="381.67857142857144" type="curve" smooth="yes"/>
      <point x="703.25" y="547.3928571428571"/>
      <point x="590.89480519475" y="660.0"/>
      <point x="364.0" y="660.0" type="curve" smooth="yes"/>
      <point x="270.3928571428571" y="660.0" type="line"/>
      <point x="261.3928571428571" y="608.1785714285714" type="line"/>
      <point x="342.10714285714283" y="608.1785714285714" type="line" smooth="yes"/>
      <point x="484.2857142857143" y="608.1785714285714"/>
      <point x="559.8571428571429" y="522.2142857142857"/>
      <point x="559.8571428571429" y="384.25" type="curve" smooth="yes"/>
      <point x="559.8571428571429" y="183.64285714285714"/>
      <point x="453.39285714285717" y="48.785714285714285"/>
      <point x="294.85714285714283" y="48.785714285714285" type="curve" smooth="yes"/>
      <point x="166.10714285714286" y="48.785714285714285" type="line"/>
      <point x="154.67857142857144" y="0.0" type="line"/>
    </contour>
  </outline>
</glyph>
<glyph name="E" format="2">
  <advance width="622.8214285714286"/>
  <unicode hex="0045"/>
  <anchor x="390.5" y="710.0" name="top"/>
  <anchor x="439.1428571428571" y="0.0" name="right"/>
  <anchor x="289.0" y="0.0" name="bottom"/>
  <outline>
    <contour>
      <point x="-14.285714285714285" y="0.0" type="line"/>
      <point x="201.35714285714283" y="0.0" type="line"/>
      <point x="317.75" y="660.0" type="line"/>
      <point x="101.71428571428572" y="660.0" type="line"/>
      <point x="98.71428571428572" y="644.0" type="line"/>
      <point x="170.14285714285714" y="602.7857142857143" type="line"/>
      <point x="74.14285714285714" y="57.214285714285715" type="line"/>
      <point x="-11.285714285714285" y="16.0" type="line"/>
    </contour>
    <contour>
      <point x="554.1785714285714" y="486.7857142857143" type="line"/>
      <point x="569.5714285714286" y="486.7857142857143" type="line"/>
      <point x="599.9642857142857" y="660.0" type="line"/>
      <point x="241.85714285714286" y="660.0" type="line"/>
      <point x="232.25" y="606.9642857142857" type="line"/>
      <point x="507.4642857142857" y="606.9642857142857" type="line"/>
    </contour>
    <contour>
      <point x="434.57142857142856" y="232.0" type="line"/>
      <point x="450.57142857142856" y="232.0" type="line"/>
      <point x="489.57142857142856" y="451.0" type="line"/>
      <point x="473.57142857142856" y="451.0" type="line"/>
      <point x="401.85714285714283" y="364.17857142857144" type="line"/>
      <point x="203.32142857142856" y="364.17857142857144" type="line"/>
      <point x="194.92857142857142" y="317.2142857142857" type="line"/>
      <point x="393.85714285714283" y="317.2142857142857" type="line"/>
    </contour>
    <contour>
      <point x="515.8571428571429" y="0.0" type="line"/>
      <point x="552.1071428571429" y="204.46428571428572" type="line"/>
      <point x="536.1071428571429" y="204.46428571428572" type="line"/>
      <point x="437.2857142857143" y="53.035714285714285" type="line"/>
      <point x="159.42857142857142" y="53.035714285714285" type="line"/>
      <point x="151.64285714285714" y="0.0" type="line"/>
    </contour>
  </outline>
</glyph>
<glyph name="F" format="2">
  <advance width="601.1785714285714"/>
  <unicode hex="0046"/>
  <outline>
    <contour>
      <point x="-14.285714285714285" y="0.0" type="line"/>
      <point x="305.25" y="0.0" type="line"/>
      <point x="308.25" y="16.0" type="line"/>
      <point x="211.35714285714283" y="57.214285714285715" type="line"/>
      <point x="317.75" y="660.0" type="line"/>
      <point x="101.71428571428572" y="660.0" type="line"/>
      <point x="98.71428571428572" y="644.0" type="line"/>
      <point x="170.14285714285714" y="602.7857142857143" type="line"/>
      <point x="74.14285714285714" y="57.214285714285715" type="line"/>
      <point x="-11.285714285714285" y="16.0" type="line"/>
    </contour>
    <contour>
      <point x="549.5714285714286" y="486.7857142857143" type="line"/>
      <point x="565.5714285714286" y="486.7857142857143" type="line"/>
      <point x="595.5714285714286" y="660.0" type="line"/>
      <point x="238.32142857142856" y="660.0" type="line"/>
      <point x="228.32142857142858" y="606.9642857142857" type="line"/>
      <point x="503.07142857142856" y="606.9642857142857" type="line"/>
    </contour>
    <contour>
      <point x="428.2142857142857" y="232.0" type="line"/>
      <point x="444.2142857142857" y="232.0" type="line"/>
      <point x="483.2142857142857" y="451.0" type="line"/>
      <point x="467.2142857142857" y="451.0" type="line"/>
      <point x="395.5" y="364.17857142857144" type="line"/>
      <point x="196.96428571428572" y="364.17857142857144" type="line"/>
      <point x="188.57142857142856" y="317.2142857142857" type="line"/>
      <point x="387.5" y="317.2142857142857" type="line"/>
    </contour>
  </outline>
</glyph>
<glyph name="G" format="2">
  <advance width="709.25"/>
  <unicode hex="0047"/>
  <anchor x="453.2857142857143" y="710.0" name="top"/>
  <anchor x="321.67857142857144" y="0.0" name="bottom"/>
  <outline>
    <contour>
      <point x="310.89285714285717" y="-10.0" type="curve" smooth="yes"/>
      <point x="389.85714285714283" y="-10.0"/>
      <point x="496.5357142857143" y="23.0"/>
      <point x="561.7142857142857" y="74.0" type="curve"/>
      <point x="589.9285714285714" y="235.85714285714286" type="line"/>
      <point x="667.1785714285714" y="284.32142857142856" type="line"/>
      <point x="670.1785714285714" y="300.32142857142856" type="line"/>
      <point x="382.3571428571429" y="300.32142857142856" type="line"/>
      <point x="378.9642857142857" y="284.32142857142856" type="line"/>
      <point x="452.7142857142857" y="237.03571428571428" type="line"/>
      <point x="417.8571428571429" y="37.32142857142857" type="line"/>
      <point x="498.0357142857143" y="82.60714285714286" type="line"/>
      <point x="447.92857142857144" y="56.64285714285714"/>
      <point x="390.60714285714283" y="47.42857142857143"/>
      <point x="347.89285714285717" y="47.42857142857143" type="curve" smooth="yes"/>
      <point x="255.21428571428572" y="47.42857142857143"/>
      <point x="190.85714285714283" y="123.5"/>
      <point x="190.85714285714283" y="252.21428571428572" type="curve" smooth="yes"/>
      <point x="190.85714285714283" y="442.92857142857144"/>
      <point x="298.7142857142857" y="622.7857142857143"/>
      <point x="451.5" y="622.7857142857143" type="curve" smooth="yes"/>
      <point x="495.32142857142856" y="622.7857142857143"/>
      <point x="520.7857142857143" y="614.4642857142857"/>
      <point x="549.5" y="592.25" type="curve"/>
      <point x="613.1785714285714" y="446.07142857142856" type="line"/>
      <point x="629.1785714285714" y="446.07142857142856" type="line"/>
      <point x="650.9285714285714" y="622.0" type="line"/>
      <point x="595.2857142857143" y="653.9285714285714"/>
      <point x="548.9285714285714" y="670.3928571428571"/>
      <point x="456.82142857142856" y="670.3928571428571" type="curve" smooth="yes"/>
      <point x="248.64285714285714" y="670.3928571428571"/>
      <point x="47.85714285714286" y="483.9642857142857"/>
      <point x="47.85714285714286" y="258.39285714285717" type="curve" smooth="yes"/>
      <point x="47.85714285714286" y="102.21428571428571"/>
      <point x="152.17857142857142" y="-10.0"/>
    </contour>
  </outline>
</glyph>
<glyph name="I" format="2">
  <advance width="378.3571428571429"/>
  <unicode hex="0049"/>
  <anchor x="254.5" y="710.0" name="top"/>
  <anchor x="149.25" y="0.0" name="right"/>
  <anchor x="129.5" y="0.0" name="bottom"/>
  <outline>
    <contour>
      <point x="-14.285714285714285" y="0.0" type="line"/>
      <point x="280.17857142857144" y="0.0" type="line"/>
      <point x="283.17857142857144" y="16.0" type="line"/>
      <point x="208.60714285714283" y="57.21428571428571" type="line"/>
      <point x="305.0" y="602.7857142857143" type="line"/>
      <point x="389.6428571428571" y="644.0" type="line"/>
      <point x="392.6428571428571" y="660.0" type="line"/>
      <point x="98.17857142857143" y="660.0" type="line"/>
      <point x="95.17857142857143" y="644.0" type="line"/>
      <point x="167.78571428571428" y="602.7857142857143" type="line"/>
      <point x="71.39285714285714" y="57.21428571428571" type="line"/>
      <point x="-11.285714285714285" y="16.0" type="line"/>
    </contour>
  </outline>
</glyph>
<glyph name="J" format="2">
  <advance width="388.35714285714283"/>
  <unicode hex="004A"/>
  <anchor x="271.92857142857144" y="710.0" name="top"/>
  <outline>
    <contour>
      <point x="-39.464285714285715" y="-173.0" type="curve" smooth="yes"/>
      <point x="7.25" y="-173.0"/>
      <point x="26.678571428571427" y="-155.32142857142858"/>
      <point x="99.57142857142857" y="-83.21428571428572" type="curve" smooth="yes"/>
      <point x="167.17857142857144" y="-16.785714285714292"/>
      <point x="230.42857142857142" y="88.78571428571428"/>
      <point x="256.42857142857144" y="233.32142857142856" type="curve" smooth="yes"/>
      <point x="323.8571428571429" y="602.7857142857143" type="line"/>
      <point x="403.42857142857144" y="644.0" type="line"/>
      <point x="405.82142857142856" y="660.0" type="line"/>
      <point x="111.14285714285714" y="660.0" type="line"/>
      <point x="108.75" y="644.0" type="line"/>
      <point x="186.25" y="602.7857142857143" type="line"/>
      <point x="92.5" y="72.85714285714286" type="line" smooth="yes"/>
      <point x="68.89285714285714" y="-61.142857142857146"/>
      <point x="43.535714285714285" y="-78.14285714285714"/>
      <point x="0.10714285714285854" y="-78.14285714285714" type="curve" smooth="yes"/>
      <point x="-16.892857142857142" y="-78.14285714285714"/>
      <point x="-28.928571428571427" y="-75.14285714285714"/>
      <point x="-47.107142857142854" y="-69.14285714285714" type="curve"/>
      <point x="-53.107142857142854" y="-69.14285714285714" type="line"/>
      <point x="-71.57142857142857" y="-125.14285714285714" type="line" smooth="yes"/>
      <point x="-82.30210526156071" y="-157.23335953042857"/>
      <point x="-67.30952380952381" y="-173.0"/>
    </contour>
  </outline>
</glyph>
<glyph name="K" format="2">
  <advance width="720.6428571428571"/>
  <unicode hex="004B"/>
  <anchor x="444.57142857142856" y="710.0" name="top"/>
  <anchor x="332.1428571428571" y="0.0" name="bottom"/>
  <outline>
    <contour>
      <point x="-14.285714285714285" y="0.0" type="line"/>
      <point x="279.7857142857143" y="0.0" type="line"/>
      <point x="283.7857142857143" y="16.0" type="line"/>
      <point x="211.35714285714283" y="57.21428571428571" type="line"/>
      <point x="307.75" y="602.7857142857143" type="line"/>
      <point x="392.7857142857143" y="644.0" type="line"/>
      <point x="396.7857142857143" y="660.0" type="line"/>
      <point x="101.71428571428572" y="660.0" type="line"/>
      <point x="98.71428571428572" y="644.0" type="line"/>
      <point x="170.14285714285714" y="602.7857142857143" type="line"/>
      <point x="74.14285714285714" y="57.21428571428571" type="line"/>
      <point x="-11.285714285714285" y="16.0" type="line"/>
    </contour>
    <contour>
      <point x="467.85714285714283" y="0.0" type="line"/>
      <point x="654.3214285714286" y="0.0" type="line"/>
      <point x="657.3214285714286" y="16.0" type="line"/>
      <point x="599.3571428571429" y="52.0" type="line"/>
      <point x="370.82142857142856" y="402.25" type="line"/>
      <point x="339.32142857142856" y="338.0" type="line"/>
      <point x="662.3571428571429" y="632.0" type="line"/>
      <point x="602.9285714285714" y="602.1071428571429" type="line"/>
      <point x="710.3571428571429" y="644.0" type="line"/>
      <point x="714.3571428571429" y="660.0" type="line"/>
      <point x="498.57142857142856" y="660.0" type="line"/>
      <point x="495.57142857142856" y="644.0" type="line"/>
      <point x="581.5714285714286" y="597.0" type="line"/>
      <point x="583.7857142857142" y="632.0" type="line"/>
      <point x="262.35714285714283" y="333.75" type="line"/>
    </contour>
  </outline>
</glyph>
<glyph name="L" format="2">
  <advance width="581.0"/>
  <unicode hex="004C"/>
  <anchor x="257.64285714285717" y="710.0" name="top"/>
  <anchor x="517.8214285714286" y="660.0" name="right"/>
  <anchor x="486.35714285714283" y="351.85714285714283" name="mid"/>
  <anchor x="263.0" y="0.0" name="bottom"/>
  <outline>
    <contour>
      <point x="-14.285714285714285" y="0.0" type="line"/>
      <point x="486.25" y="0.0" type="line"/>
      <point x="529.5" y="235.96428571428572" type="line"/>
      <point x="513.5" y="235.96428571428572" type="line"/>
      <point x="401.67857142857144" y="53.035714285714285" type="line"/>
      <point x="210.75" y="53.035714285714285" type="line"/>
      <point x="307.75" y="602.7857142857143" type="line"/>
      <point x="402.7857142857143" y="644.0" type="line"/>
      <point x="405.7857142857143" y="660.0" type="line"/>
      <point x="101.71428571428572" y="660.0" type="line"/>
      <point x="98.71428571428572" y="644.0" type="line"/>
      <point x="170.14285714285714" y="602.7857142857143" type="line"/>
      <point x="74.14285714285714" y="57.214285714285715" type="line"/>
      <point x="-11.285714285714285" y="16.0" type="line"/>
    </contour>
  </outline>
</glyph>
<glyph name="M" format="2">
  <advance width="933.5357142857142"/>
  <unicode hex="004D"/>
  <anchor x="384.10714285714283" y="0.0" name="bottom"/>
  <outline>
    <contour>
      <point x="-14.285714285714285" y="0.0" type="line"/>
      <point x="207.64285714285714" y="0.0" type="line"/>
      <point x="211.25" y="16.0" type="line"/>
      <point x="137.0" y="56.214285714285715" type="line"/>
      <point x="256.0" y="637.2857142857143" type="line"/>
      <point x="197.14285714285714" y="637.2857142857143" type="line"/>
      <point x="73.75" y="57.214285714285715" type="line"/>
      <point x="-11.285714285714285" y="16.0" type="line"/>
    </contour>
    <contour>
      <point x="358.4642857142857" y="-5.0" type="line"/>
      <point x="409.57142857142856" y="-5.0" type="line"/>
      <point x="740.3214285714286" y="593.7857142857143" type="line"/>
      <point x="822.0357142857143" y="593.7857142857143" type="line"/>
      <point x="926.2142857142857" y="644.0" type="line"/>
      <point x="929.6071428571429" y="660.0" type="line"/>
      <point x="711.2142857142857" y="660.0" type="line"/>
      <point x="428.1428571428571" y="142.64285714285714" type="line"/>
      <point x="466.32142857142856" y="142.64285714285714" type="line"/>
      <point x="344.17857142857144" y="660.0" type="line"/>
      <point x="112.75" y="660.0" type="line"/>
      <point x="109.35714285714286" y="644.0" type="line"/>
      <point x="208.14285714285714" y="593.7857142857143" type="line"/>
      <point x="219.32142857142858" y="593.7857142857143" type="line"/>
    </contour>
    <contour>
      <point x="560.7857142857143" y="0.0" type="line"/>
      <point x="840.0714285714286" y="0.0" type="line"/>
      <point x="843.0714285714286" y="16.0" type="line"/>
      <point x="779.4285714285714" y="57.214285714285715" type="line"/>
      <point x="845.8214285714286" y="637.2857142857143" type="line"/>
      <point x="711.3928571428571" y="637.2857142857143" type="line"/>
      <point x="643.2142857142857" y="56.214285714285715" type="line"/>
      <point x="563.7857142857143" y="16.0" type="line"/>
    </contour>
  </outline>
</glyph>
<glyph name="N" format="2">
  <advance width="760.8214285714286"/>
  <unicode hex="004E"/>
  <anchor x="458.0" y="710.0" name="top"/>
  <anchor x="339.64285714285717" y="0.0" name="bottom"/>
  <outline>
    <contour>
      <point x="-11.25" y="0.0" type="line"/>
      <point x="241.53571428571428" y="0.0" type="line"/>
      <point x="244.92857142857144" y="16.0" type="line"/>
      <point x="145.64285714285714" y="56.82142857142857" type="line"/>
      <point x="227.35714285714286" y="520.9285714285714" type="line"/>
      <point x="199.75" y="520.9285714285714" type="line"/>
      <point x="520.5714285714286" y="-5.0" type="line"/>
      <point x="582.4642857142857" y="-5.0" type="line"/>
      <point x="689.4642857142857" y="603.1785714285714" type="line"/>
      <point x="774.0714285714286" y="644.0" type="line"/>
      <point x="777.0714285714286" y="660.0" type="line"/>
      <point x="525.8928571428571" y="660.0" type="line"/>
      <point x="522.5" y="644.0" type="line"/>
      <point x="621.7857142857143" y="603.5714285714286" type="line"/>
      <point x="540.8928571428571" y="144.17857142857142" type="line"/>
      <point x="588.0714285714286" y="144.17857142857144" type="line"/>
      <point x="278.5357142857143" y="660.0" type="line"/>
      <point x="105.14285714285714" y="660.0" type="line"/>
      <point x="102.14285714285714" y="644.0" type="line"/>
      <point x="173.96428571428572" y="602.0" type="line"/>
      <point x="77.96428571428571" y="57.214285714285715" type="line"/>
      <point x="-8.25" y="16.0" type="line"/>
    </contour>
  </outline>
</glyph>
<glyph name="O" format="2">
  <advance width="773.8928571428571"/>
  <unicode hex="004F"/>
  <anchor x="453.0357142857143" y="710.0" name="top"/>
  <anchor x="355.75" y="0.0" name="right"/>
  <anchor x="331.4642857142857" y="0.0" name="bottom"/>
  <outline>
    <contour>
      <point x="336.25" y="-10.0" type="curve" smooth="yes"/>
      <point x="565.5714285714286" y="-10.0"/>
      <point x="726.0357142857142" y="172.28571428571428"/>
      <point x="726.0357142857142" y="385.2857142857143" type="curve" smooth="yes"/>
      <point x="726.0357142857142" y="553.4285714285714"/>
      <point x="618.6428571428571" y="670.3928571428571"/>
      <point x="436.6428571428571" y="670.3928571428571" type="curve" smooth="yes"/>
      <point x="216.57142857142858" y="670.3928571428571"/>
      <point x="47.85714285714286" y="489.67857142857144"/>
      <point x="47.85714285714286" y="275.32142857142856" type="curve" smooth="yes"/>
      <point x="47.85714285714286" y="106.57142857142857"/>
      <point x="154.03571428571428" y="-10.0"/>
    </contour>
    <contour>
      <point x="354.8928571428571" y="40.42857142857142" type="curve" smooth="yes"/>
      <point x="252.97638724925" y="40.42857142857142"/>
      <point x="193.5" y="131.67857142857142"/>
      <point x="193.5" y="263.4642857142857" type="curve" smooth="yes"/>
      <point x="193.5" y="457.9642857142857"/>
      <point x="290.9608294931071" y="620.1428571428571"/>
      <point x="421.17857142857144" y="620.1428571428571" type="curve" smooth="yes"/>
      <point x="528.0897284532142" y="620.1428571428571"/>
      <point x="580.7857142857143" y="529.5"/>
      <point x="580.7857142857143" y="397.92857142857144" type="curve" smooth="yes"/>
      <point x="580.7857142857143" y="204.57142857142856"/>
      <point x="489.4182027650357" y="40.42857142857142"/>
    </contour>
  </outline>
</glyph>
<glyph name="P" format="2">
  <advance width="636.1785714285714"/>
  <unicode hex="0050"/>
  <outline>
    <contour>
      <point x="-14.285714285714285" y="0.0" type="line"/>
      <point x="296.4642857142857" y="0.0" type="line"/>
      <point x="299.4642857142857" y="16.0" type="line"/>
      <point x="211.35714285714283" y="57.214285714285715" type="line"/>
      <point x="307.5357142857143" y="606.9642857142857" type="line"/>
      <point x="341.2142857142857" y="606.9642857142857" type="line" smooth="yes"/>
      <point x="427.25" y="606.9642857142857"/>
      <point x="475.14285714285717" y="569.1428571428571"/>
      <point x="475.14285714285717" y="495.4642857142857" type="curve" smooth="yes"/>
      <point x="475.14285714285717" y="408.85714285714283"/>
      <point x="426.82142857142856" y="341.7857142857143"/>
      <point x="319.92857142857144" y="341.7857142857143" type="curve" smooth="yes"/>
      <point x="187.14285714285714" y="341.7857142857143" type="line"/>
      <point x="177.14285714285714" y="294.82142857142856" type="line"/>
      <point x="303.0" y="294.82142857142856" type="line" smooth="yes"/>
      <point x="514.7857142857142" y="294.82142857142856"/>
      <point x="621.3571428571429" y="390.17857142857144"/>
      <point x="621.3571428571429" y="501.25" type="curve" smooth="yes"/>
      <point x="621.3571428571429" y="607.5714285714286"/>
      <point x="534.8928571428571" y="660.0"/>
      <point x="368.07142857142856" y="660.0" type="curve" smooth="yes"/>
      <point x="101.71428571428572" y="660.0" type="line"/>
      <point x="98.71428571428572" y="644.0" type="line"/>
      <point x="170.14285714285714" y="602.7857142857143" type="line"/>
      <point x="74.14285714285714" y="57.214285714285715" type="line"/>
      <point x="-11.285714285714285" y="16.0" type="line"/>
    </contour>
  </outline>
</glyph>
<glyph name="Q" format="2">
  <advance width="773.8928571428571"/>
  <unicode hex="0051"/>
  <outline>
    <contour>
      <point x="336.25" y="-10.0" type="curve" smooth="yes"/>
      <point x="565.5714285714286" y="-10.0"/>
      <point x="726.0357142857142" y="172.28571428571428"/>
      <point x="726.0357142857142" y="385.2857142857143" type="curve" smooth="yes"/>
      <point x="726.0357142857142" y="553.4285714285714"/>
      <point x="618.6428571428571" y="670.3928571428571"/>
      <point x="436.6428571428571" y="670.3928571428571" type="curve" smooth="yes"/>
      <point x="216.57142857142858" y="670.3928571428571"/>
      <point x="47.85714285714286" y="489.67857142857144"/>
      <point x="47.85714285714286" y="275.32142857142856" type="curve" smooth="yes"/>
      <point x="47.85714285714286" y="106.57142857142857"/>
      <point x="154.03571428571428" y="-10.0"/>
    </contour>
    <contour>
      <point x="354.8928571428571" y="40.42857142857142" type="curve" smooth="yes"/>
      <point x="252.78571428571428" y="40.42857142857142"/>
      <point x="193.5" y="131.67857142857142"/>
      <point x="193.5" y="263.4642857142857" type="curve" smooth="yes"/>
      <point x="193.5" y="457.9642857142857"/>
      <point x="291.0" y="620.1428571428571"/>
      <point x="421.17857142857144" y="620.1428571428571" type="curve" smooth="yes"/>
      <point x="527.9642857142857" y="620.1428571428571"/>
      <point x="580.7857142857143" y="529.5"/>
      <point x="580.7857142857143" y="397.92857142857144" type="curve" smooth="yes"/>
      <point x="580.7857142857143" y="204.57142857142856"/>
      <point x="489.5357142857143" y="40.42857142857142"/>
    </contour>
    <contour>
      <point x="608.0714285714286" y="-149.0" type="curve" smooth="yes"/>
      <point x="657.5" y="-149.0"/>
      <point x="701.0714285714286" y="-137.60714285714286"/>
      <point x="731.0714285714286" y="-122.0" type="curve"/>
      <point x="737.7142857142857" y="-98.10714285714286" type="line"/>
      <point x="724.5" y="-103.10714285714286"/>
      <point x="703.25" y="-107.32142857142857"/>
      <point x="681.6071428571429" y="-107.32142857142857" type="curve" smooth="yes"/>
      <point x="614.8571428571429" y="-107.32142857142857"/>
      <point x="566.0357142857142" y="-86.96428571428572"/>
      <point x="442.0" y="16.0" type="curve"/>
      <point x="270.7142857142857" y="16.0" type="line"/>
      <point x="403.89285714285717" y="-119.32142857142857"/>
      <point x="529.0714285714286" y="-149.0"/>
    </contour>
  </outline>
</glyph>
<glyph name="R" format="2">
  <advance width="685.3214285714286"/>
  <unicode hex="0052"/>
  <anchor x="359.9642857142857" y="710.0" name="top"/>
  <anchor x="298.42857142857144" y="0.0" name="bottom"/>
  <outline>
    <contour>
      <point x="-14.285714285714285" y="0.0" type="line"/>
      <point x="277.60714285714283" y="0.0" type="line"/>
      <point x="280.60714285714283" y="16.0" type="line"/>
      <point x="210.75" y="57.607142857142854" type="line"/>
      <point x="316.5357142857143" y="660.0" type="line"/>
      <point x="101.10714285714286" y="660.0" type="line"/>
      <point x="98.10714285714286" y="644.0" type="line"/>
      <point x="169.53571428571428" y="602.7857142857143" type="line"/>
      <point x="73.53571428571429" y="57.214285714285715" type="line"/>
      <point x="-11.892857142857142" y="16.0" type="line"/>
    </contour>
    <contour>
      <point x="595.4642857142857" y="509.82142857142856" type="curve" smooth="yes"/>
      <point x="595.4642857142857" y="605.6428571428571"/>
      <point x="509.4642857142857" y="660.0"/>
      <point x="362.7857142857143" y="660.0" type="curve" smooth="yes"/>
      <point x="267.9642857142857" y="660.0" type="line"/>
      <point x="258.35714285714283" y="606.9642857142857" type="line"/>
      <point x="338.35714285714283" y="606.9642857142857" type="line" smooth="yes"/>
      <point x="414.25" y="606.9642857142857"/>
      <point x="455.10714285714283" y="569.0357142857143"/>
      <point x="455.10714285714283" y="497.0357142857143" type="curve" smooth="yes"/>
      <point x="455.10714285714283" y="419.7857142857143"/>
      <point x="403.5357142857143" y="354.17857142857144"/>
      <point x="315.57142857142856" y="354.17857142857144" type="curve"/>
      <point x="224.78571428571428" y="354.17857142857144" type="line"/>
      <point x="216.0" y="307.2142857142857" type="line"/>
      <point x="381.0357142857143" y="307.2142857142857" type="line"/>
      <point x="381.0357142857143" y="320.57142857142856" type="line"/>
      <point x="508.85714285714283" y="347.57142857142856"/>
      <point x="595.4642857142857" y="413.14285714285717"/>
    </contour>
    <contour>
      <point x="442.5" y="0.0" type="line"/>
      <point x="626.5357142857142" y="0.0" type="line"/>
      <point x="628.9285714285714" y="16.0" type="line"/>
      <point x="568.8928571428571" y="56.25" type="line"/>
      <point x="436.75" y="347.07142857142856" type="line"/>
      <point x="300.9642857142857" y="347.07142857142856" type="line"/>
    </contour>
  </outline>
</glyph>
<glyph name="S" format="2">
  <advance width="540.0"/>
  <unicode hex="0053"/>
  <anchor x="355.6428571428571" y="710.0" name="top"/>
  <anchor x="212.57142857142856" y="0.0" name="bottom"/>
  <outline>
    <contour>
      <point x="206.14285714285714" y="-10.0" type="curve" smooth="yes"/>
      <point x="354.25" y="-10.0"/>
      <point x="467.4642857142857" y="87.14285714285714"/>
      <point x="467.4642857142857" y="208.71428571428572" type="curve" smooth="yes"/>
      <point x="467.4642857142857" y="290.60714285714283"/>
      <point x="424.7857142857143" y="328.9642857142857"/>
      <point x="328.4642857142857" y="386.35714285714283" type="curve" smooth="yes"/>
      <point x="248.96428571428572" y="434.25"/>
      <point x="226.82142857142856" y="462.82142857142856"/>
      <point x="226.82142857142856" y="509.60714285714283" type="curve" smooth="yes"/>
      <point x="226.82142857142856" y="573.0"/>
      <point x="275.75" y="619.9285714285714"/>
      <point x="336.5357142857143" y="619.9285714285714" type="curve" smooth="yes"/>
      <point x="377.67857142857144" y="619.9285714285714"/>
      <point x="401.42857142857144" y="604.1785714285714"/>
      <point x="422.0" y="584.6071428571429" type="curve"/>
      <point x="472.9642857142857" y="464.35714285714283" type="line"/>
      <point x="490.17857142857144" y="464.35714285714283" type="line"/>
      <point x="506.9642857142857" y="624.3571428571429" type="line"/>
      <point x="463.3928571428571" y="653.1785714285714"/>
      <point x="409.07142857142856" y="670.0"/>
      <point x="347.0357142857143" y="670.0" type="curve" smooth="yes"/>
      <point x="212.5" y="670.0"/>
      <point x="101.64285714285714" y="577.3214285714286"/>
      <point x="101.64285714285714" y="460.07142857142856" type="curve" smooth="yes"/>
      <point x="101.64285714285714" y="387.39285714285717"/>
      <point x="133.42857142857142" y="347.8571428571429"/>
      <point x="208.42857142857142" y="302.2142857142857" type="curve" smooth="yes"/>
      <point x="310.14285714285717" y="240.89285714285714"/>
      <point x="341.35714285714283" y="215.57142857142858"/>
      <point x="341.35714285714283" y="158.53571428571428" type="curve" smooth="yes"/>
      <point x="341.35714285714283" y="86.32142857142857"/>
      <point x="286.2857142857143" y="38.67857142857143"/>
      <point x="206.85714285714286" y="38.67857142857143" type="curve" smooth="yes"/>
      <point x="164.21428571428572" y="38.67857142857143"/>
      <point x="131.85714285714286" y="55.5"/>
      <point x="106.17857142857143" y="78.75" type="curve"/>
      <point x="53.82142857142857" y="210.32142857142856" type="line"/>
      <point x="36.60714285714286" y="210.32142857142856" type="line"/>
      <point x="18.214285714285715" y="40.857142857142854" type="line"/>
      <point x="71.0" y="8.642857142857142"/>
      <point x="125.10714285714286" y="-10.0"/>
    </contour>
  </outline>
</glyph>
<glyph name="T" format="2">
  <advance width="639.5357142857143"/>
  <unicode hex="0054"/>
  <anchor x="390.5357142857143" y="710.0" name="top"/>
  <anchor x="265.14285714285717" y="0.0" name="bottom"/>
  <outline>
    <contour>
      <point x="100.21428571428572" y="0.0" type="line"/>
      <point x="432.67857142857144" y="0.0" type="line"/>
      <point x="435.67857142857144" y="16.0" type="line"/>
      <point x="344.6428571428571" y="57.214285714285715" type="line"/>
      <point x="443.0357142857143" y="606.9642857142857" type="line"/>
      <point x="573.7857142857143" y="606.9642857142857" type="line"/>
      <point x="617.8571428571429" y="440.39285714285717" type="line"/>
      <point x="633.8571428571429" y="440.39285714285717" type="line"/>
      <point x="671.6785714285714" y="660.0" type="line"/>
      <point x="94.21428571428572" y="660.0" type="line"/>
      <point x="56.78571428571429" y="440.39285714285717" type="line"/>
      <point x="72.78571428571429" y="440.39285714285717" type="line"/>
      <point x="173.5" y="606.9642857142857" type="line"/>
      <point x="305.42857142857144" y="606.9642857142857" type="line"/>
      <point x="207.03571428571428" y="57.214285714285715" type="line"/>
      <point x="103.60714285714286" y="16.0" type="line"/>
    </contour>
  </outline>
</glyph>
<glyph name="U" format="2">
  <advance width="761.1428571428571"/>
  <unicode hex="0055"/>
  <anchor x="485.85714285714283" y="710.0" name="top"/>
  <anchor x="361.32142857142856" y="0.0" name="right"/>
  <anchor x="339.32142857142856" y="0.0" name="bottom"/>
  <outline>
    <contour>
      <point x="346.25" y="-10.0" type="curve" smooth="yes"/>
      <point x="498.1428571428571" y="-10.0"/>
      <point x="606.1428571428571" y="66.21428571428571"/>
      <point x="644.0" y="283.92857142857144" type="curve" smooth="yes"/>
      <point x="699.5357142857142" y="603.7857142857143" type="line"/>
      <point x="785.1785714285714" y="644.0" type="line"/>
      <point x="788.1785714285714" y="660.0" type="line"/>
      <point x="559.4642857142857" y="660.0" type="line"/>
      <point x="556.0714285714286" y="644.0" type="line"/>
      <point x="635.9642857142857" y="604.7857142857143" type="line"/>
      <point x="574.0" y="247.53571428571428" type="line" smooth="yes"/>
      <point x="551.6071428571429" y="117.53571428571428"/>
      <point x="470.82142857142856" y="63.64285714285714"/>
      <point x="389.85714285714283" y="63.64285714285714" type="curve" smooth="yes"/>
      <point x="302.3928571428571" y="63.64285714285714"/>
      <point x="242.96428571428572" y="103.78571428571428"/>
      <point x="242.96428571428572" y="212.39285714285714" type="curve" smooth="yes"/>
      <point x="242.96428571428572" y="232.78571428571428"/>
      <point x="245.75" y="257.14285714285717"/>
      <point x="250.14285714285714" y="282.5357142857143" type="curve" smooth="yes"/>
      <point x="306.1071428571429" y="602.7857142857143" type="line"/>
      <point x="391.75" y="644.0" type="line"/>
      <point x="395.1428571428571" y="660.0" type="line"/>
      <point x="99.46428571428572" y="660.0" type="line"/>
      <point x="96.46428571428572" y="644.0" type="line"/>
      <point x="168.5" y="602.7857142857143" type="line"/>
      <point x="112.96428571428572" y="283.92857142857144" type="line" smooth="yes"/>
      <point x="107.75" y="253.46428571428572"/>
      <point x="104.75" y="226.21428571428572"/>
      <point x="104.75" y="201.17857142857142" type="curve" smooth="yes"/>
      <point x="104.75" y="48.17857142857143"/>
      <point x="201.25" y="-10.0"/>
    </contour>
  </outline>
</glyph>
<glyph name="V" format="2">
  <advance width="690.2857142857142"/>
  <unicode hex="0056"/>
  <outline>
    <contour>
      <point x="265.82142857142856" y="-5.0" type="line"/>
      <point x="336.75" y="-5.0" type="line"/>
      <point x="689.5357142857142" y="632.0" type="line"/>
      <point x="634.2857142857143" y="587.25" type="line"/>
      <point x="735.7142857142857" y="644.0" type="line"/>
      <point x="739.7142857142857" y="660.0" type="line"/>
      <point x="542.75" y="660.0" type="line"/>
      <point x="539.75" y="644.0" type="line"/>
      <point x="620.0357142857143" y="606.0" type="line"/>
      <point x="626.2857142857142" y="632.0" type="line"/>
      <point x="336.92857142857144" y="97.42857142857142" type="line"/>
      <point x="400.17857142857144" y="168.07142857142856" type="line"/>
      <point x="344.32142857142856" y="168.07142857142856" type="line"/>
      <point x="383.35714285714283" y="97.42857142857142" type="line"/>
      <point x="266.17857142857144" y="632.0" type="line"/>
      <point x="249.17857142857142" y="600.1785714285714" type="line"/>
      <point x="352.2857142857143" y="644.0" type="line"/>
      <point x="355.8928571428571" y="660.0" type="line"/>
      <point x="74.57142857142857" y="660.0" type="line"/>
      <point x="70.57142857142857" y="644.0" type="line"/>
      <point x="163.53571428571428" y="587.3928571428571" type="line"/>
      <point x="123.75" y="632.0" type="line"/>
    </contour>
  </outline>
</glyph>
<glyph name="W" format="2">
  <advance width="951.25"/>
  <unicode hex="0057"/>
  <anchor x="591.0714285714286" y="710.0" name="top"/>
  <outline>
    <contour>
      <point x="205.35714285714286" y="-5.0" type="line"/>
      <point x="273.5357142857143" y="-5.0" type="line"/>
      <point x="539.7857142857143" y="519.9285714285714" type="line"/>
      <point x="484.89285714285717" y="459.3928571428571" type="line"/>
      <point x="540.1428571428571" y="459.3928571428571" type="line"/>
      <point x="504.2857142857143" y="519.9285714285714" type="line"/>
      <point x="598.4642857142857" y="-5.0" type="line"/>
      <point x="666.25" y="-5.0" type="line"/>
      <point x="948.3571428571429" y="632.0" type="line"/>
      <point x="903.75" y="593.2857142857143" type="line"/>
      <point x="1005.5357142857143" y="644.0" type="line"/>
      <point x="1008.5357142857143" y="660.0" type="line"/>
      <point x="802.1785714285714" y="660.0" type="line"/>
      <point x="799.1785714285714" y="644.0" type="line"/>
      <point x="893.5357142857143" y="601.1785714285714" type="line"/>
      <point x="884.7142857142857" y="632.0" type="line"/>
      <point x="672.6071428571429" y="136.28571428571428" type="line"/>
      <point x="725.3928571428571" y="206.96428571428572" type="line"/>
      <point x="676.2142857142857" y="206.96428571428572" type="line"/>
      <point x="709.2857142857142" y="136.28571428571428" type="line"/>
      <point x="618.0714285714286" y="665.0" type="line"/>
      <point x="550.8928571428571" y="665.0" type="line"/>
      <point x="285.10714285714283" y="133.53571428571428" type="line"/>
      <point x="343.5357142857143" y="204.75" type="line"/>
      <point x="292.5357142857143" y="204.75" type="line"/>
      <point x="321.9642857142857" y="133.53571428571428" type="line"/>
      <point x="268.9642857142857" y="632.0" type="line"/>
      <point x="240.14285714285714" y="594.1785714285714" type="line"/>
      <point x="357.5" y="644.0" type="line"/>
      <point x="360.5" y="660.0" type="line"/>
      <point x="73.96428571428572" y="660.0" type="line"/>
      <point x="70.57142857142857" y="644.0" type="line"/>
      <point x="158.82142857142858" y="594.1785714285714" type="line"/>
      <point x="131.75" y="632.0" type="line"/>
    </contour>
  </outline>
</glyph>
<glyph name="X" format="2">
  <advance width="713.5357142857143"/>
  <unicode hex="0058"/>
  <outline>
    <contour>
      <point x="351.5" y="0.0" type="line"/>
      <point x="646.3214285714286" y="0.0" type="line"/>
      <point x="649.3214285714286" y="16.0" type="line"/>
      <point x="554.5357142857143" y="76.21428571428572" type="line"/>
      <point x="606.3214285714286" y="22.392857142857142" type="line"/>
      <point x="292.4642857142857" y="604.1785714285714" type="line"/>
      <point x="292.85714285714283" y="609.1785714285714" type="line"/>
      <point x="377.9642857142857" y="644.0" type="line"/>
      <point x="380.9642857142857" y="660.0" type="line"/>
      <point x="90.53571428571429" y="660.0" type="line"/>
      <point x="87.53571428571429" y="644.0" type="line"/>
      <point x="182.53571428571428" y="585.0" type="line"/>
      <point x="130.14285714285714" y="632.0" type="line"/>
      <point x="433.39285714285717" y="55.214285714285715" type="line"/>
      <point x="433.0" y="51.214285714285715" type="line"/>
      <point x="354.5" y="16.0" type="line"/>
    </contour>
    <contour>
      <point x="-37.75" y="0.0" type="line"/>
      <point x="185.07142857142858" y="0.0" type="line"/>
      <point x="188.07142857142858" y="16.0" type="line"/>
      <point x="117.32142857142857" y="53.035714285714285" type="line"/>
      <point x="119.75" y="57.035714285714285" type="line"/>
      <point x="352.42857142857144" y="309.85714285714283" type="line"/>
      <point x="317.5" y="348.39285714285717" type="line"/>
      <point x="27.67857142857143" y="37.21428571428571" type="line"/>
      <point x="71.82142857142857" y="67.39285714285714" type="line"/>
      <point x="-34.357142857142854" y="16.0" type="line"/>
    </contour>
    <contour>
      <point x="734.0357142857142" y="644.0" type="line"/>
      <point x="737.0357142857142" y="660.0" type="line"/>
      <point x="523.5357142857143" y="660.0" type="line"/>
      <point x="520.5357142857143" y="644.0" type="line"/>
      <point x="589.5357142857143" y="608.1785714285714" type="line"/>
      <point x="588.9285714285714" y="604.1785714285714" type="line"/>
      <point x="376.32142857142856" y="371.42857142857144" type="line"/>
      <point x="405.0" y="329.07142857142856" type="line"/>
      <point x="688.0" y="630.7857142857143" type="line"/>
      <point x="613.0357142857143" y="581.0" type="line"/>
    </contour>
  </outline>
</glyph>
<glyph name="Y" format="2">
  <advance width="685.6785714285714"/>
  <unicode hex="0059"/>
  <anchor x="448.32142857142856" y="710.0" name="top"/>
  <anchor x="299.25" y="0.0" name="bottom"/>
  <outline>
    <contour>
      <point x="147.17857142857144" y="0.0" type="line"/>
      <point x="448.7142857142857" y="0.0" type="line"/>
      <point x="451.7142857142857" y="16.0" type="line"/>
      <point x="376.35714285714283" y="57.214285714285715" type="line"/>
      <point x="427.17857142857144" y="345.35714285714283" type="line"/>
      <point x="384.35714285714283" y="265.82142857142856" type="line"/>
      <point x="692.1428571428571" y="632.0" type="line"/>
      <point x="619.1428571428571" y="585.6071428571429" type="line"/>
      <point x="740.1428571428571" y="644.0" type="line"/>
      <point x="743.1428571428571" y="660.0" type="line"/>
      <point x="532.8928571428571" y="660.0" type="line"/>
      <point x="528.8928571428571" y="644.0" type="line"/>
      <point x="597.6785714285714" y="608.7857142857143" type="line"/>
      <point x="596.6785714285714" y="604.7857142857143" type="line"/>
      <point x="380.75" y="337.4642857142857" type="line"/>
      <point x="411.92857142857144" y="337.4642857142857" type="line"/>
      <point x="269.9642857142857" y="605.5714285714286" type="line"/>
      <point x="270.9642857142857" y="609.5714285714286" type="line"/>
      <point x="350.75" y="644.0" type="line"/>
      <point x="354.75" y="660.0" type="line"/>
      <point x="76.53571428571429" y="660.0" type="line"/>
      <point x="72.53571428571429" y="644.0" type="line"/>
      <point x="155.53571428571428" y="590.0" type="line"/>
      <point x="113.53571428571429" y="632.0" type="line"/>
      <point x="304.5357142857143" y="266.0" type="line"/>
      <point x="289.9642857142857" y="345.35714285714283" type="line"/>
      <point x="239.14285714285714" y="57.214285714285715" type="line"/>
      <point x="150.17857142857144" y="16.0" type="line"/>
    </contour>
  </outline>
</glyph>
<glyph name="Z" format="2">
  <advance width="610.7142857142857"/>
  <unicode hex="005A"/>
  <anchor x="376.5357142857143" y="710.0" name="top"/>
  <anchor x="265.35714285714283" y="0.0" name="bottom"/>
  <outline>
    <contour>
      <point x="7.678571428571431" y="0.0" type="line"/>
      <point x="496.42857142857144" y="0.0" type="line"/>
      <point x="535.8928571428571" y="214.46428571428572" type="line"/>
      <point x="519.8928571428571" y="214.46428571428572" type="line"/>
      <point x="418.5" y="59.107142857142854" type="line"/>
      <point x="147.75" y="59.107142857142854" type="line"/>
      <point x="149.32142857142856" y="16.0" type="line"/>
      <point x="593.3928571428571" y="623.7857142857143" type="line"/>
      <point x="599.3928571428571" y="660.0" type="line"/>
      <point x="131.64285714285714" y="660.0" type="line"/>
      <point x="94.17857142857143" y="455.5357142857143" type="line"/>
      <point x="110.17857142857143" y="455.5357142857143" type="line"/>
      <point x="208.75" y="606.9642857142857" type="line"/>
      <point x="455.75" y="606.9642857142857" type="line"/>
      <point x="454.57142857142856" y="641.4285714285714" type="line"/>
      <point x="13.67857142857143" y="36.214285714285715" type="line"/>
    </contour>
  </outline>
</glyph>
<glyph name="bracketleft" format="2">
  <advance width="271.25"/>
  <unicode hex="005B"/>
  <outline>
    <contour>
      <point x="17.142857142857142" y="-150.0" type="line"/>
      <point x="81.17857142857143" y="-150.0" type="line"/>
      <point x="234.03571428571428" y="740.0" type="line"/>
      <point x="170.39285714285714" y="740.0" type="line"/>
    </contour>
    <contour>
      <point x="172.39285714285714" y="740.0" type="line"/>
      <point x="168.39285714285714" y="717.0" type="line"/>
      <point x="336.7857142857143" y="717.0" type="line"/>
      <point x="340.7857142857143" y="740.0" type="line"/>
    </contour>
    <contour>
      <point x="19.142857142857142" y="-150.0" type="line"/>
      <point x="187.53571428571428" y="-150.0" type="line"/>
      <point x="191.53571428571428" y="-127.0" type="line"/>
      <point x="23.142857142857142" y="-127.0" type="line"/>
    </contour>
  </outline>
</glyph>
<glyph name="bracketright" format="2">
  <advance width="271.25"/>
  <unicode hex="005D"/>
  <outline>
    <contour>
      <point x="48.42857142857143" y="-150.0" type="line"/>
      <point x="112.07142857142857" y="-150.0" type="line"/>
      <point x="265.32142857142856" y="740.0" type="line"/>
      <point x="201.28571428571428" y="740.0" type="line"/>
    </contour>
    <contour>
      <point x="-58.32142857142857" y="-150.0" type="line"/>
      <point x="110.07142857142857" y="-150.0" type="line"/>
      <point x="114.07142857142857" y="-127.0" type="line"/>
      <point x="-54.32142857142857" y="-127.0" type="line"/>
    </contour>
    <contour>
      <point x="90.92857142857143" y="717.0" type="line"/>
      <point x="259.32142857142856" y="717.0" type="line"/>
      <point x="263.32142857142856" y="740.0" type="line"/>
      <point x="94.92857142857143" y="740.0" type="line"/>
    </contour>
  </outline>
</glyph>
<glyph name="asciicircum" format="2">
  <advance width="560.7142857142857"/>
  <unicode hex="005E"/>
  <outline>
    <contour>
      <point x="58.78571428571428" y="250.0" type="line"/>
      <point x="121.67857142857143" y="250.0" type="line"/>
      <point x="364.6428571428571" y="640.0" type="line"/>
      <point x="318.2857142857143" y="640.0" type="line"/>
      <point x="423.64285714285717" y="250.0" type="line"/>
      <point x="481.92857142857144" y="250.0" type="line"/>
      <point x="368.57142857142856" y="670.0" type="line"/>
      <point x="319.75" y="670.0" type="line"/>
    </contour>
  </outline>
</glyph>
<glyph name="a" format="2">
  <advance width="540.3928571428571"/>
  <unicode hex="0061"/>
  <anchor x="334.5357142857143" y="510.0" name="top"/>
  <anchor x="440.3928571428571" y="0.0" name="right"/>
  <anchor x="252.57142857142856" y="0.0" name="bottom"/>
  <outline>
    <contour>
      <point x="129.92857142857142" y="-10.0" type="curve" smooth="yes"/>
      <point x="192.14285714285714" y="-10.0"/>
      <point x="237.60714285714286" y="24.642857142857142"/>
      <point x="294.89285714285717" y="102.25" type="curve"/>
      <point x="319.7857142857143" y="102.25" type="line"/>
      <point x="319.7857142857143" y="175.71428571428572" type="line"/>
      <point x="289.42857142857144" y="129.28571428571428"/>
      <point x="251.71428571428572" y="82.10714285714286"/>
      <point x="212.14285714285714" y="82.10714285714286" type="curve" smooth="yes"/>
      <point x="180.32142857142856" y="82.10714285714286"/>
      <point x="169.75" y="110.21428571428572"/>
      <point x="169.75" y="173.67857142857144" type="curve" smooth="yes"/>
      <point x="169.75" y="302.2857142857143"/>
      <point x="219.85714285714286" y="420.39285714285717"/>
      <point x="291.89285714285717" y="420.39285714285717" type="curve" smooth="yes"/>
      <point x="319.5357142857143" y="420.39285714285717"/>
      <point x="338.07142857142856" y="407.89285714285717"/>
      <point x="354.75" y="385.89285714285717" type="curve"/>
      <point x="348.7142857142857" y="404.17857142857144" type="line"/>
      <point x="300.57142857142856" y="126.03571428571428" type="line" smooth="yes"/>
      <point x="285.32142857142856" y="37.5"/>
      <point x="316.2857142857143" y="-10.0"/>
      <point x="382.10714285714283" y="-10.0" type="curve" smooth="yes"/>
      <point x="446.10714285714283" y="-10.0"/>
      <point x="492.92857142857144" y="45.96428571428571"/>
      <point x="530.1071428571429" y="144.75" type="curve"/>
      <point x="511.6428571428571" y="151.35714285714286" type="line"/>
      <point x="487.6428571428571" y="98.53571428571428"/>
      <point x="465.10714285714283" y="78.78571428571428"/>
      <point x="445.1428571428571" y="78.78571428571428" type="curve" smooth="yes"/>
      <point x="428.35714285714283" y="78.78571428571428"/>
      <point x="423.1428571428571" y="96.0"/>
      <point x="428.32142857142856" y="126.28571428571428" type="curve" smooth="yes"/>
      <point x="486.8928571428571" y="460.0" type="line"/>
      <point x="467.35714285714283" y="460.0" type="line"/>
      <point x="391.4642857142857" y="430.64285714285717" type="line"/>
      <point x="430.60714285714283" y="428.14285714285717" type="line"/>
      <point x="410.2142857142857" y="450.92857142857144"/>
      <point x="372.32142857142856" y="466.07142857142856"/>
      <point x="327.57142857142856" y="466.07142857142856" type="curve" smooth="yes"/>
      <point x="187.10714285714286" y="466.07142857142856"/>
      <point x="36.67857142857143" y="311.82142857142856"/>
      <point x="36.67857142857143" y="120.10714285714286" type="curve" smooth="yes"/>
      <point x="36.67857142857143" y="36.0"/>
      <point x="75.10714285714286" y="-10.0"/>
    </contour>
  </outline>
</glyph>
<glyph name="b" format="2">
  <advance width="514.25"/>
  <unicode hex="0062"/>
  <outline>
    <contour>
      <point x="215.85714285714286" y="-10.0" type="curve" smooth="yes"/>
      <point x="356.32142857142856" y="-10.0"/>
      <point x="476.3928571428571" y="143.64285714285714"/>
      <point x="476.3928571428571" y="321.39285714285717" type="curve" smooth="yes"/>
      <point x="476.3928571428571" y="414.0"/>
      <point x="434.92857142857144" y="466.07142857142856"/>
      <point x="375.25" y="466.07142857142856" type="curve" smooth="yes"/>
      <point x="308.92857142857144" y="466.07142857142856"/>
      <point x="274.5357142857143" y="428.57142857142856"/>
      <point x="221.0" y="359.2857142857143" type="curve"/>
      <point x="192.67857142857142" y="359.2857142857143" type="line"/>
      <point x="192.67857142857142" y="284.60714285714283" type="line"/>
      <point x="225.28571428571428" y="336.7857142857143"/>
      <point x="265.42857142857144" y="373.9642857142857"/>
      <point x="300.32142857142856" y="373.9642857142857" type="curve" smooth="yes"/>
      <point x="334.0" y="373.9642857142857"/>
      <point x="346.3571428571429" y="343.3571428571429"/>
      <point x="346.3571428571429" y="287.85714285714283" type="curve" smooth="yes"/>
      <point x="346.3571428571429" y="143.25"/>
      <point x="288.8571428571429" y="32.035714285714285"/>
      <point x="223.60714285714286" y="32.035714285714285" type="curve" smooth="yes"/>
      <point x="194.67857142857142" y="32.035714285714285"/>
      <point x="177.35714285714286" y="49.857142857142854"/>
      <point x="162.35714285714286" y="85.35714285714286" type="curve"/>
      <point x="163.14285714285714" y="59.17857142857143" type="line"/>
      <point x="284.35714285714283" y="750.0" type="line"/>
      <point x="281.35714285714283" y="750.0" type="line"/>
      <point x="69.17857142857143" y="713.9285714285714" type="line"/>
      <point x="69.17857142857143" y="701.8571428571429" type="line"/>
      <point x="141.32142857142856" y="668.4642857142857" type="line"/>
      <point x="23.75" y="-3.9285714285714284" type="line"/>
      <point x="35.82142857142858" y="-3.9285714285714284" type="line"/>
      <point x="131.32142857142856" y="34.535714285714285" type="line"/>
      <point x="84.89285714285714" y="38.857142857142854" type="line"/>
      <point x="111.96428571428571" y="9.392857142857142"/>
      <point x="157.75" y="-10.0"/>
    </contour>
  </outline>
</glyph>
<glyph name="e" format="2">
  <advance width="439.35714285714283"/>
  <unicode hex="0065"/>
  <anchor x="287.2857142857143" y="0.0" name="right"/>
  <anchor x="199.5" y="0.0" name="bottom"/>
  <anchor x="315.67857142857144" y="510.0" name="top"/>
  <outline>
    <contour>
      <point x="193.53571428571428" y="-10.0" type="curve" smooth="yes"/>
      <point x="283.42857142857144" y="-10.0"/>
      <point x="358.10714285714283" y="60.214285714285715"/>
      <point x="402.5" y="139.82142857142858" type="curve"/>
      <point x="387.6428571428571" y="153.89285714285714" type="line"/>
      <point x="385.0357142857143" y="153.89285714285714" type="line"/>
      <point x="340.0357142857143" y="112.64285714285714"/>
      <point x="305.32142857142856" y="93.89285714285714"/>
      <point x="263.75" y="93.89285714285714" type="curve" smooth="yes"/>
      <point x="204.53571428571428" y="93.89285714285714"/>
      <point x="163.64285714285714" y="139.42857142857142"/>
      <point x="163.64285714285714" y="210.5" type="curve" smooth="yes"/>
      <point x="163.64285714285714" y="334.5357142857143"/>
      <point x="218.39285714285714" y="425.0"/>
      <point x="279.25" y="425.0" type="curve" smooth="yes"/>
      <point x="307.39285714285717" y="425.0"/>
      <point x="317.5" y="407.42857142857144"/>
      <point x="317.5" y="387.7142857142857" type="curve" smooth="yes"/>
      <point x="317.5" y="336.85714285714283"/>
      <point x="274.5357142857143" y="297.10714285714283"/>
      <point x="134.57142857142856" y="265.25" type="curve"/>
      <point x="139.5" y="231.67857142857144" type="line"/>
      <point x="360.42857142857144" y="278.2142857142857"/>
      <point x="417.57142857142856" y="324.92857142857144"/>
      <point x="417.57142857142856" y="386.0357142857143" type="curve" smooth="yes"/>
      <point x="417.57142857142856" y="430.07142857142856"/>
      <point x="381.1428571428571" y="466.07142857142856"/>
      <point x="312.32142857142856" y="466.07142857142856" type="curve" smooth="yes"/>
      <point x="151.28571428571428" y="466.07142857142856"/>
      <point x="34.82142857142857" y="311.07142857142856"/>
      <point x="34.82142857142857" y="161.96428571428572" type="curve" smooth="yes"/>
      <point x="34.82142857142857" y="56.464285714285715"/>
      <point x="84.25" y="-10.0"/>
    </contour>
  </outline>
</glyph>
<glyph name="g" format="2">
  <advance width="470.5357142857143"/>
  <unicode hex="0067"/>
  <anchor x="289.2142857142857" y="510.0" name="top"/>
  <outline>
    <contour>
      <point x="229.85714285714286" y="156.03571428571428" type="curve" smooth="yes"/>
      <point x="355.17857142857144" y="156.03571428571428"/>
      <point x="435.4642857142857" y="247.32142857142858"/>
      <point x="435.4642857142857" y="329.0" type="curve" smooth="yes"/>
      <point x="435.4642857142857" y="366.82142857142856"/>
      <point x="419.2142857142857" y="399.39285714285717"/>
      <point x="390.92857142857144" y="421.67857142857144" type="curve"/>
      <point x="366.5" y="445.67857142857144" type="line"/>
      <point x="342.0357142857143" y="458.2857142857143"/>
      <point x="307.0357142857143" y="466.07142857142856"/>
      <point x="271.92857142857144" y="466.07142857142856" type="curve" smooth="yes"/>
      <point x="158.07142857142858" y="466.07142857142856"/>
      <point x="72.60714285714286" y="377.57142857142856"/>
      <point x="72.60714285714286" y="289.92857142857144" type="curve" smooth="yes"/>
      <point x="72.60714285714286" y="216.53571428571428"/>
      <point x="126.0" y="156.03571428571428"/>
    </contour>
    <contour>
      <point x="243.0" y="196.85714285714286" type="curve" smooth="yes"/>
      <point x="202.89285714285714" y="196.85714285714286"/>
      <point x="185.25" y="230.78571428571428"/>
      <point x="185.25" y="283.92857142857144" type="curve" smooth="yes"/>
      <point x="185.25" y="357.85714285714283"/>
      <point x="217.17857142857142" y="427.07142857142856"/>
      <point x="264.2142857142857" y="427.07142857142856" type="curve" smooth="yes"/>
      <point x="304.14285714285717" y="427.07142857142856"/>
      <point x="320.7857142857143" y="395.75"/>
      <point x="320.7857142857143" y="340.17857142857144" type="curve" smooth="yes"/>
      <point x="320.7857142857143" y="268.6428571428571"/>
      <point x="288.07142857142856" y="196.85714285714286"/>
    </contour>
    <contour>
      <point x="503.82142857142856" y="412.07142857142856" type="line"/>
      <point x="503.82142857142856" y="456.07142857142856" type="line"/>
      <point x="327.60714285714283" y="456.07142857142856" type="line"/>
      <point x="327.60714285714283" y="396.67857142857144" type="line"/>
      <point x="392.17857142857144" y="396.67857142857144" type="line"/>
      <point x="412.3928571428571" y="412.07142857142856" type="line"/>
    </contour>
    <contour>
      <point x="157.32142857142858" y="-240.0" type="curve" smooth="yes"/>
      <point x="324.7142857142857" y="-240.0"/>
      <point x="413.2857142857143" y="-145.28571428571428"/>
      <point x="413.2857142857143" y="-59.214285714285715" type="curve" smooth="yes"/>
      <point x="413.2857142857143" y="110.5"/>
      <point x="120.71428571428571" y="39.82142857142857"/>
      <point x="120.71428571428571" y="128.53571428571428" type="curve" smooth="yes"/>
      <point x="120.71428571428571" y="151.5"/>
      <point x="139.57142857142856" y="173.64285714285714"/>
      <point x="177.35714285714286" y="184.82142857142856" type="curve"/>
      <point x="177.35714285714286" y="196.17857142857142" type="line"/>
      <point x="121.5" y="196.17857142857142" type="line"/>
      <point x="121.5" y="183.35714285714286" type="line"/>
      <point x="56.92857142857143" y="149.96428571428572" type="line"/>
      <point x="32.464285714285715" y="126.14285714285714"/>
      <point x="20.17857142857143" y="100.82142857142857"/>
      <point x="20.17857142857143" y="66.75" type="curve" smooth="yes"/>
      <point x="20.17857142857143" y="-81.96428571428571"/>
      <point x="294.14285714285717" y="8.857142857142858"/>
      <point x="294.14285714285717" y="-113.71428571428571" type="curve" smooth="yes"/>
      <point x="294.14285714285717" y="-162.21428571428572"/>
      <point x="252.35714285714286" y="-206.57142857142858"/>
      <point x="173.71428571428572" y="-206.57142857142858" type="curve" smooth="yes"/>
      <point x="107.35714285714286" y="-206.57142857142858"/>
      <point x="71.07142857142857" y="-170.53571428571428"/>
      <point x="71.07142857142857" y="-125.78571428571429" type="curve" smooth="yes"/>
      <point x="71.07142857142857" y="-84.57142857142857"/>
      <point x="82.28571428571428" y="-50.25"/>
      <point x="138.53571428571428" y="-20.21428571428571" type="curve"/>
      <point x="138.53571428571428" y="-7.785714285714285" type="line"/>
      <point x="87.92857142857143" y="-7.785714285714285" type="line"/>
      <point x="87.92857142857143" y="-20.607142857142854" type="line"/>
      <point x="21.892857142857142" y="-57.107142857142854" type="line"/>
      <point x="-7.044717662627498" y="-88.47328909121072"/>
      <point x="-16.67857142857143" y="-107.109890109875"/>
      <point x="-16.67857142857143" y="-141.03571428571428" type="curve" smooth="yes"/>
      <point x="-16.67857142857143" y="-199.471711457"/>
      <point x="41.964285714285715" y="-240.0"/>
    </contour>
  </outline>
</glyph>
<glyph name="h" format="2">
  <advance width="551.6071428571429"/>
  <unicode hex="0068"/>
  <anchor x="358.2142857142857" y="765.0" name="top"/>
  <anchor x="237.78571428571428" y="0.0" name="bottom"/>
  <outline>
    <contour>
      <point x="152.75" y="0.0" type="line"/>
      <point x="283.5357142857143" y="749.6071428571429" type="line"/>
      <point x="280.5357142857143" y="749.6071428571429" type="line"/>
      <point x="67.96428571428572" y="713.5357142857143" type="line"/>
      <point x="67.96428571428572" y="701.4642857142857" type="line"/>
      <point x="140.5" y="667.6785714285714" type="line"/>
      <point x="23.92857142857143" y="0.0" type="line"/>
    </contour>
    <contour>
      <point x="394.5" y="-10.0" type="curve" smooth="yes"/>
      <point x="458.5" y="-10.0"/>
      <point x="505.32142857142856" y="45.96428571428571"/>
      <point x="542.5" y="144.75" type="curve"/>
      <point x="524.0357142857142" y="151.35714285714286" type="line"/>
      <point x="500.0357142857143" y="98.53571428571428"/>
      <point x="477.5" y="78.78571428571428"/>
      <point x="457.5357142857143" y="78.78571428571428" type="curve" smooth="yes"/>
      <point x="440.75" y="78.78571428571428"/>
      <point x="435.5357142857143" y="96.0"/>
      <point x="440.7142857142857" y="126.28571428571428" type="curve" smooth="yes"/>
      <point x="474.5" y="318.07142857142856" type="line" smooth="yes"/>
      <point x="490.5" y="408.67857142857144"/>
      <point x="448.2857142857143" y="466.07142857142856"/>
      <point x="379.0357142857143" y="466.07142857142856" type="curve" smooth="yes"/>
      <point x="317.21989202667856" y="466.07142857142856"/>
      <point x="285.64092079628574" y="440.81225906407144"/>
      <point x="222.0" y="370.7857142857143" type="curve"/>
      <point x="197.75" y="370.7857142857143" type="line"/>
      <point x="197.75" y="310.32142857142856" type="line"/>
      <point x="224.89285714285714" y="342.07142857142856"/>
      <point x="264.07142857142856" y="382.0"/>
      <point x="300.5357142857143" y="382.0" type="curve" smooth="yes"/>
      <point x="341.92857142857144" y="382.0"/>
      <point x="351.67857142857144" y="349.92857142857144"/>
      <point x="345.89285714285717" y="313.85714285714283" type="curve" smooth="yes"/>
      <point x="312.9642857142857" y="126.03571428571428" type="line" smooth="yes"/>
      <point x="297.1071428571429" y="37.5"/>
      <point x="328.67857142857144" y="-10.0"/>
    </contour>
  </outline>
</glyph>
<glyph name="i" format="2">
  <advance width="301.3571428571429"/>
  <unicode hex="0069"/>
  <anchor x="188.67857142857144" y="510.0" name="top"/>
  <anchor x="152.64285714285714" y="0.0" name="right"/>
  <anchor x="129.14285714285714" y="0.0" name="bottom"/>
  <outline>
    <contour>
      <point x="138.35714285714286" y="-10.0" type="curve" smooth="yes"/>
      <point x="202.35714285714283" y="-10.0"/>
      <point x="249.17857142857142" y="45.96428571428571"/>
      <point x="286.3571428571429" y="144.75" type="curve"/>
      <point x="267.8928571428571" y="151.35714285714286" type="line"/>
      <point x="243.89285714285714" y="98.53571428571428"/>
      <point x="221.35714285714286" y="78.78571428571428"/>
      <point x="201.39285714285714" y="78.78571428571428" type="curve" smooth="yes"/>
      <point x="184.60714285714283" y="78.78571428571428"/>
      <point x="179.39285714285714" y="96.0"/>
      <point x="184.57142857142856" y="126.28571428571428" type="curve" smooth="yes"/>
      <point x="244.96428571428572" y="466.07142857142856" type="line"/>
      <point x="241.96428571428572" y="466.07142857142856" type="line"/>
      <point x="33.142857142857146" y="430.0" type="line"/>
      <point x="33.142857142857146" y="417.92857142857144" type="line"/>
      <point x="102.53571428571429" y="384.5357142857143" type="line"/>
      <point x="56.82142857142857" y="126.03571428571428" type="line" smooth="yes"/>
      <point x="40.964285714285715" y="37.5"/>
      <point x="72.53571428571428" y="-10.0"/>
    </contour>
    <contour>
      <point x="205.10714285714286" y="568.0" type="curve" smooth="yes"/>
      <point x="244.60714285714286" y="568.0"/>
      <point x="274.85714285714283" y="597.6428571428571"/>
      <point x="274.85714285714283" y="637.75" type="curve" smooth="yes"/>
      <point x="274.85714285714283" y="677.8571428571429"/>
      <point x="244.60714285714286" y="708.1071428571429"/>
      <point x="205.10714285714286" y="708.1071428571429" type="curve" smooth="yes"/>
      <point x="165.60714285714286" y="708.1071428571429"/>
      <point x="134.75" y="677.8571428571429"/>
      <point x="134.75" y="637.75" type="curve" smooth="yes"/>
      <point x="134.75" y="597.6428571428571"/>
      <point x="165.60714285714286" y="568.0"/>
    </contour>
  </outline>
</glyph>
<glyph name="j" format="2">
  <advance width="292.25"/>
  <unicode hex="006A"/>
  <anchor x="188.42857142857142" y="510.0" name="top"/>
  <outline>
    <contour>
      <point x="-76.60714285714286" y="-230.0" type="line"/>
      <point x="74.64285714285714" y="-170.14285714285714"/>
      <point x="152.85714285714283" y="-91.71428571428571"/>
      <point x="171.46428571428572" y="23.678571428571427" type="curve" smooth="yes"/>
      <point x="243.75" y="466.07142857142856" type="line"/>
      <point x="240.75" y="466.07142857142856" type="line"/>
      <point x="31.92857142857143" y="430.0" type="line"/>
      <point x="31.92857142857143" y="417.92857142857144" type="line"/>
      <point x="101.32142857142858" y="384.5357142857143" type="line"/>
      <point x="38.214285714285715" y="-10.0" type="line" smooth="yes"/>
      <point x="18.214285714285715" y="-133.96428571428572"/>
      <point x="-5.571428571428571" y="-163.53571428571428"/>
      <point x="-76.60714285714286" y="-211.57142857142858" type="curve"/>
    </contour>
    <contour>
      <point x="202.67857142857142" y="568.0" type="curve" smooth="yes"/>
      <point x="242.17857142857142" y="568.0"/>
      <point x="272.42857142857144" y="597.6428571428571"/>
      <point x="272.42857142857144" y="637.75" type="curve" smooth="yes"/>
      <point x="272.42857142857144" y="677.8571428571429"/>
      <point x="242.17857142857142" y="708.1071428571429"/>
      <point x="202.67857142857142" y="708.1071428571429" type="curve" smooth="yes"/>
      <point x="163.17857142857144" y="708.1071428571429"/>
      <point x="132.32142857142858" y="677.8571428571429"/>
      <point x="132.32142857142858" y="637.75" type="curve" smooth="yes"/>
      <point x="132.32142857142858" y="597.6428571428571"/>
      <point x="163.17857142857144" y="568.0"/>
    </contour>
  </outline>
</glyph>
<glyph name="k" format="2">
  <advance width="516.7857142857142"/>
  <unicode hex="006B"/>
  <anchor x="222.42857142857142" y="0.0" name="bottom"/>
  <outline>
    <contour>
      <point x="23.92857142857143" y="0.0" type="line"/>
      <point x="152.75" y="0.0" type="line"/>
      <point x="283.5357142857143" y="749.6071428571429" type="line"/>
      <point x="280.5357142857143" y="749.6071428571429" type="line"/>
      <point x="67.96428571428572" y="713.5357142857143" type="line"/>
      <point x="67.96428571428572" y="701.4642857142857" type="line"/>
      <point x="140.5" y="667.6785714285714" type="line"/>
    </contour>
    <contour>
      <point x="376.25" y="-10.0" type="curve" smooth="yes"/>
      <point x="435.0" y="-10.0"/>
      <point x="472.5357142857143" y="33.642857142857146"/>
      <point x="503.0" y="144.14285714285714" type="curve"/>
      <point x="484.5357142857143" y="149.53571428571428" type="line"/>
      <point x="467.82142857142856" y="97.92857142857142"/>
      <point x="452.0357142857143" y="78.78571428571428"/>
      <point x="431.67857142857144" y="78.78571428571428" type="curve" smooth="yes"/>
      <point x="413.3832046335" y="78.78571428571428"/>
      <point x="403.5741934928214" y="95.59708922435713"/>
      <point x="388.9642857142857" y="124.78571428571428" type="curve" smooth="yes"/>
      <point x="292.67857142857144" y="325.57142857142856" type="line"/>
      <point x="242.64285714285714" y="275.67857142857144" type="line"/>
      <point x="339.85714285714283" y="354.0357142857143" type="line" smooth="yes"/>
      <point x="358.01047604167854" y="368.3074985205357"/>
      <point x="376.7054794520714" y="374.8571428571429"/>
      <point x="398.17857142857144" y="374.8571428571429" type="curve" smooth="yes"/>
      <point x="420.21739130432144" y="374.8571428571429"/>
      <point x="434.4813572508214" y="371.0947244437857"/>
      <point x="443.5357142857143" y="367.2142857142857" type="curve" smooth="yes"/>
      <point x="459.10714285714283" y="360.82142857142856" type="line"/>
      <point x="463.5" y="362.39285714285717" type="line"/>
      <point x="489.60714285714283" y="428.07142857142856" type="line" smooth="yes"/>
      <point x="494.60714285714283" y="440.07142857142856"/>
      <point x="488.60714285714283" y="450.07142857142856"/>
      <point x="479.60714285714283" y="457.07142857142856" type="curve" smooth="yes"/>
      <point x="472.60714285714283" y="462.07142857142856"/>
      <point x="461.60714285714283" y="466.07142857142856"/>
      <point x="445.60714285714283" y="466.07142857142856" type="curve" smooth="yes"/>
      <point x="402.82142857142856" y="466.07142857142856"/>
      <point x="341.4642857142857" y="414.25"/>
      <point x="197.28571428571428" y="263.07142857142856" type="curve"/>
      <point x="197.28571428571428" y="258.07142857142856" type="line"/>
      <point x="274.07142857142856" y="81.42857142857143" type="line" smooth="yes"/>
      <point x="296.60714285714283" y="30.214285714285715"/>
      <point x="317.7142857142857" y="-10.0"/>
    </contour>
  </outline>
</glyph>
<glyph name="l" format="2">
  <advance width="288.35714285714283"/>
  <unicode hex="006C"/>
  <anchor x="224.21428571428572" y="765.0" name="top"/>
  <anchor x="403.10714285714283" y="740.0" name="right"/>
  <anchor x="319.5" y="300.0" name="mid"/>
  <anchor x="119.71428571428571" y="0.0" name="bottom"/>
  <outline>
    <contour>
      <point x="127.71428571428571" y="-10.0" type="curve" smooth="yes"/>
      <point x="191.71428571428572" y="-10.0"/>
      <point x="238.53571428571428" y="45.96428571428571"/>
      <point x="275.7142857142857" y="144.75" type="curve"/>
      <point x="257.25" y="151.35714285714286" type="line"/>
      <point x="233.25" y="98.53571428571428"/>
      <point x="210.71428571428572" y="78.78571428571428"/>
      <point x="190.75" y="78.78571428571428" type="curve" smooth="yes"/>
      <point x="173.96428571428572" y="78.78571428571428"/>
      <point x="168.75" y="96.0"/>
      <point x="173.92857142857142" y="126.28571428571428" type="curve" smooth="yes"/>
      <point x="284.32142857142856" y="750.0" type="line"/>
      <point x="281.32142857142856" y="750.0" type="line"/>
      <point x="65.21428571428572" y="713.9285714285714" type="line"/>
      <point x="65.21428571428572" y="701.8571428571429" type="line"/>
      <point x="141.28571428571428" y="668.4642857142857" type="line"/>
      <point x="46.17857142857143" y="126.03571428571428" type="line" smooth="yes"/>
      <point x="30.714285714285715" y="37.5"/>
      <point x="61.89285714285714" y="-10.0"/>
    </contour>
  </outline>
</glyph>
<glyph name="m" format="2">
  <advance width="814.8928571428571"/>
  <unicode hex="006D"/>
  <anchor x="358.25" y="0.0" name="bottom"/>
  <outline>
    <contour>
      <point x="35.10714285714286" y="0.0" type="line"/>
      <point x="163.92857142857142" y="0.0" type="line"/>
      <point x="223.92857142857142" y="354.07142857142856" type="line"/>
      <point x="223.92857142857142" y="466.07142857142856" type="line"/>
      <point x="220.92857142857142" y="466.07142857142856" type="line"/>
      <point x="36.42857142857143" y="430.0" type="line"/>
      <point x="36.42857142857143" y="417.92857142857144" type="line"/>
      <point x="102.28571428571429" y="384.14285714285717" type="line"/>
    </contour>
    <contour>
      <point x="293.5357142857143" y="0.0" type="line"/>
      <point x="422.9642857142857" y="0.0" type="line"/>
      <point x="478.3571428571429" y="318.07142857142856" type="line" smooth="yes"/>
      <point x="494.35714285714283" y="408.67857142857144"/>
      <point x="453.5357142857143" y="466.07142857142856"/>
      <point x="385.6428571428571" y="466.07142857142856" type="curve" smooth="yes"/>
      <point x="322.4642857142857" y="466.07142857142856"/>
      <point x="294.8928571428571" y="440.2857142857143"/>
      <point x="229.75" y="367.75" type="curve"/>
      <point x="208.92857142857144" y="367.75" type="line"/>
      <point x="208.92857142857144" y="310.32142857142856" type="line"/>
      <point x="236.07142857142856" y="342.07142857142856"/>
      <point x="270.67857142857144" y="382.0"/>
      <point x="307.14285714285717" y="382.0" type="curve" smooth="yes"/>
      <point x="347.39285714285717" y="382.0"/>
      <point x="356.5357142857143" y="349.92857142857144"/>
      <point x="350.35714285714283" y="313.85714285714283" type="curve" smooth="yes"/>
    </contour>
    <contour>
      <point x="657.7857142857143" y="-10.0" type="curve" smooth="yes"/>
      <point x="721.7857142857142" y="-10.0"/>
      <point x="768.6071428571429" y="45.96428571428571"/>
      <point x="805.7857142857142" y="144.75" type="curve"/>
      <point x="787.3214285714286" y="151.35714285714286" type="line"/>
      <point x="763.3214285714286" y="98.53571428571428"/>
      <point x="740.7857142857142" y="78.78571428571428"/>
      <point x="720.8214285714286" y="78.78571428571428" type="curve" smooth="yes"/>
      <point x="704.0357142857142" y="78.78571428571428"/>
      <point x="698.8214285714286" y="96.0"/>
      <point x="704.0" y="126.28571428571428" type="curve" smooth="yes"/>
      <point x="737.7857142857142" y="318.07142857142856" type="line" smooth="yes"/>
      <point x="753.7857142857142" y="408.67857142857144"/>
      <point x="712.3571428571429" y="466.07142857142856"/>
      <point x="645.0714285714286" y="466.07142857142856" type="curve" smooth="yes"/>
      <point x="581.8928571428571" y="466.07142857142856"/>
      <point x="552.5" y="440.2857142857143"/>
      <point x="487.35714285714283" y="367.75" type="curve"/>
      <point x="466.5357142857143" y="367.75" type="line"/>
      <point x="466.5357142857143" y="310.32142857142856" type="line"/>
      <point x="493.67857142857144" y="342.07142857142856"/>
      <point x="530.1071428571429" y="382.0"/>
      <point x="566.5714285714286" y="382.0" type="curve" smooth="yes"/>
      <point x="605.6071428571429" y="382.0"/>
      <point x="615.3571428571429" y="349.92857142857144"/>
      <point x="609.1785714285714" y="313.85714285714283" type="curve" smooth="yes"/>
      <point x="576.25" y="126.03571428571428" type="line" smooth="yes"/>
      <point x="560.3928571428571" y="37.5"/>
      <point x="591.9642857142857" y="-10.0"/>
    </contour>
  </outline>
</glyph>
<glyph name="n" format="2">
  <advance width="562.7857142857143"/>
  <unicode hex="006E"/>
  <anchor x="316.64285714285717" y="510.0" name="top"/>
  <anchor x="265.3928571428571" y="0.0" name="bottom"/>
  <outline>
    <contour>
      <point x="35.10714285714286" y="0.0" type="line"/>
      <point x="163.92857142857142" y="0.0" type="line"/>
      <point x="223.92857142857142" y="354.07142857142856" type="line"/>
      <point x="223.92857142857142" y="466.07142857142856" type="line"/>
      <point x="220.92857142857142" y="466.07142857142856" type="line"/>
      <point x="36.42857142857143" y="430.0" type="line"/>
      <point x="36.42857142857143" y="417.92857142857144" type="line"/>
      <point x="102.28571428571429" y="384.14285714285717" type="line"/>
    </contour>
    <contour>
      <point x="405.67857142857144" y="-10.0" type="curve" smooth="yes"/>
      <point x="469.67857142857144" y="-10.0"/>
      <point x="516.5" y="45.96428571428571"/>
      <point x="553.6785714285714" y="144.75" type="curve"/>
      <point x="535.2142857142857" y="151.35714285714286" type="line"/>
      <point x="511.2142857142857" y="98.53571428571428"/>
      <point x="488.67857142857144" y="78.78571428571428"/>
      <point x="468.7142857142857" y="78.78571428571428" type="curve" smooth="yes"/>
      <point x="451.92857142857144" y="78.78571428571428"/>
      <point x="446.7142857142857" y="96.0"/>
      <point x="451.8928571428571" y="126.28571428571428" type="curve" smooth="yes"/>
      <point x="485.67857142857144" y="318.07142857142856" type="line" smooth="yes"/>
      <point x="501.67857142857144" y="408.67857142857144"/>
      <point x="459.4642857142857" y="466.07142857142856"/>
      <point x="390.2142857142857" y="466.07142857142856" type="curve" smooth="yes"/>
      <point x="327.0357142857143" y="466.07142857142856"/>
      <point x="295.2857142857143" y="440.2857142857143"/>
      <point x="229.75" y="367.75" type="curve"/>
      <point x="208.92857142857144" y="367.75" type="line"/>
      <point x="208.92857142857144" y="310.32142857142856" type="line"/>
      <point x="236.07142857142856" y="342.07142857142856"/>
      <point x="275.25" y="382.0"/>
      <point x="311.7142857142857" y="382.0" type="curve" smooth="yes"/>
      <point x="353.10714285714283" y="382.0"/>
      <point x="362.85714285714283" y="349.92857142857144"/>
      <point x="357.07142857142856" y="313.85714285714283" type="curve" smooth="yes"/>
      <point x="324.14285714285717" y="126.03571428571428" type="line" smooth="yes"/>
      <point x="308.2857142857143" y="37.5"/>
      <point x="339.85714285714283" y="-10.0"/>
    </contour>
  </outline>
</glyph>
<glyph name="p" format="2">
  <advance width="532.2857142857142"/>
  <unicode hex="0070"/>
  <outline>
    <contour>
      <point x="-49.46428571428571" y="-230.0" type="line"/>
      <point x="223.82142857142856" y="-230.0" type="line"/>
      <point x="223.82142857142856" y="-214.0" type="line"/>
      <point x="140.17857142857144" y="-182.57142857142858" type="line"/>
      <point x="176.0" y="25.42857142857143" type="line"/>
      <point x="102.92857142857143" y="38.25" type="line"/>
      <point x="130.0" y="8.785714285714286"/>
      <point x="175.78571428571428" y="-10.0"/>
      <point x="233.89285714285714" y="-10.0" type="curve" smooth="yes"/>
      <point x="374.35714285714283" y="-10.0"/>
      <point x="494.42857142857144" y="143.64285714285714"/>
      <point x="494.42857142857144" y="321.39285714285717" type="curve" smooth="yes"/>
      <point x="494.42857142857144" y="413.7380952379643"/>
      <point x="452.9642857142857" y="466.07142857142856"/>
      <point x="393.2857142857143" y="466.07142857142856" type="curve" smooth="yes"/>
      <point x="331.07142857142856" y="466.07142857142856"/>
      <point x="294.7142857142857" y="433.85714285714283"/>
      <point x="237.42857142857142" y="357.4642857142857" type="curve"/>
      <point x="210.71428571428572" y="357.4642857142857" type="line"/>
      <point x="210.71428571428572" y="284.60714285714283" type="line"/>
      <point x="237.42857142857142" y="326.17857142857144"/>
      <point x="277.57142857142856" y="373.9642857142857"/>
      <point x="318.35714285714283" y="373.9642857142857" type="curve" smooth="yes"/>
      <point x="353.2142857142857" y="373.9642857142857"/>
      <point x="364.39285714285717" y="341.0"/>
      <point x="364.39285714285717" y="287.85714285714283" type="curve" smooth="yes"/>
      <point x="364.39285714285717" y="145.89285714285714"/>
      <point x="310.6825767691786" y="32.035714285714285"/>
      <point x="241.64285714285714" y="32.035714285714285" type="curve" smooth="yes"/>
      <point x="210.35714285714286" y="32.035714285714285"/>
      <point x="193.21428571428572" y="52.21428571428571"/>
      <point x="179.78571428571428" y="85.35714285714286" type="curve"/>
      <point x="180.57142857142856" y="51.892857142857146" type="line"/>
      <point x="231.0" y="348.9642857142857" type="line"/>
      <point x="231.0" y="466.07142857142856" type="line"/>
      <point x="228.0" y="466.07142857142856" type="line"/>
      <point x="43.5" y="430.0" type="line"/>
      <point x="43.5" y="417.92857142857144" type="line"/>
      <point x="109.35714285714286" y="384.14285714285717" type="line"/>
      <point x="9.17857142857143" y="-183.57142857142858" type="line"/>
      <point x="-49.46428571428571" y="-214.0" type="line"/>
    </contour>
  </outline>
</glyph>
<glyph name="q" format="2">
  <advance width="516.7142857142857"/>
  <unicode hex="0071"/>
  <outline>
    <contour>
      <point x="167.21428571428572" y="-230.0" type="line"/>
      <point x="440.5" y="-230.0" type="line"/>
      <point x="440.5" y="-214.0" type="line"/>
      <point x="373.5357142857143" y="-183.39285714285714" type="line"/>
      <point x="486.8928571428571" y="460.0" type="line"/>
      <point x="474.82142857142856" y="460.0" type="line"/>
      <point x="391.4642857142857" y="430.64285714285717" type="line"/>
      <point x="430.60714285714283" y="428.14285714285717" type="line"/>
      <point x="410.2142857142857" y="450.92857142857144"/>
      <point x="372.32142857142856" y="466.07142857142856"/>
      <point x="327.57142857142856" y="466.07142857142856" type="curve" smooth="yes"/>
      <point x="187.10714285714286" y="466.07142857142856"/>
      <point x="36.67857142857143" y="311.82142857142856"/>
      <point x="36.67857142857143" y="120.10714285714286" type="curve" smooth="yes"/>
      <point x="36.67857142857143" y="36.0"/>
      <point x="75.10714285714286" y="-10.0"/>
      <point x="129.92857142857142" y="-10.0" type="curve" smooth="yes"/>
      <point x="189.71428571428572" y="-10.0"/>
      <point x="234.57142857142858" y="22.82142857142857"/>
      <point x="287.60714285714283" y="93.75" type="curve"/>
      <point x="319.7857142857143" y="93.75" type="line"/>
      <point x="319.7857142857143" y="175.71428571428572" type="line"/>
      <point x="289.42857142857144" y="129.28571428571428"/>
      <point x="251.71428571428572" y="82.10714285714286"/>
      <point x="212.14285714285714" y="82.10714285714286" type="curve" smooth="yes"/>
      <point x="180.32142857142856" y="82.10714285714286"/>
      <point x="169.75" y="109.94884169883214"/>
      <point x="169.75" y="173.67857142857144" type="curve" smooth="yes"/>
      <point x="169.75" y="305.6471489885357"/>
      <point x="218.52142857142857" y="421.0"/>
      <point x="291.2857142857143" y="421.0" type="curve" smooth="yes"/>
      <point x="321.35714285714283" y="421.0"/>
      <point x="340.92857142857144" y="405.67857142857144"/>
      <point x="358.0" y="381.0357142857143" type="curve"/>
      <point x="352.35714285714283" y="424.2142857142857" type="line"/>
      <point x="244.10714285714286" y="-183.96428571428572" type="line"/>
      <point x="167.21428571428572" y="-214.0" type="line"/>
    </contour>
  </outline>
</glyph>
<glyph name="r" format="2">
  <advance width="382.0357142857143"/>
  <unicode hex="0072"/>
  <anchor x="265.25" y="510.0" name="top"/>
  <anchor x="100.82142857142857" y="0.0" name="bottom"/>
  <outline>
    <contour>
      <point x="35.10714285714286" y="0.0" type="line"/>
      <point x="163.92857142857144" y="0.0" type="line"/>
      <point x="223.53571428571428" y="346.10714285714283" type="line"/>
      <point x="223.53571428571428" y="466.07142857142856" type="line"/>
      <point x="220.53571428571428" y="466.07142857142856" type="line"/>
      <point x="36.42857142857143" y="430.0" type="line"/>
      <point x="36.42857142857143" y="417.92857142857144" type="line"/>
      <point x="102.28571428571429" y="384.14285714285717" type="line"/>
    </contour>
    <contour>
      <point x="299.2857142857143" y="366.25" type="curve" smooth="yes"/>
      <point x="321.0" y="366.25"/>
      <point x="333.39285714285717" y="359.6071428571429"/>
      <point x="348.0357142857143" y="348.57142857142856" type="curve" smooth="yes"/>
      <point x="359.6428571428571" y="339.9642857142857" type="line"/>
      <point x="365.6428571428571" y="339.9642857142857" type="line"/>
      <point x="400.9642857142857" y="411.60714285714283" type="line" smooth="yes"/>
      <point x="404.17857142857144" y="418.64285714285717"/>
      <point x="405.17857142857144" y="423.25"/>
      <point x="405.17857142857144" y="429.2857142857143" type="curve" smooth="yes"/>
      <point x="405.17857142857144" y="446.25"/>
      <point x="380.57142857142856" y="466.07142857142856"/>
      <point x="351.10714285714283" y="466.07142857142856" type="curve" smooth="yes"/>
      <point x="316.0357142857143" y="466.07142857142856"/>
      <point x="291.75" y="453.39285714285717"/>
      <point x="229.96428571428572" y="359.4642857142857" type="curve"/>
      <point x="207.78571428571428" y="359.4642857142857" type="line"/>
      <point x="207.78571428571428" y="293.25" type="line"/>
      <point x="245.92857142857142" y="352.67857142857144"/>
      <point x="267.75" y="366.25"/>
    </contour>
  </outline>
</glyph>
<glyph name="s" format="2">
  <advance width="380.92857142857144"/>
  <unicode hex="0073"/>
  <anchor x="245.78571428571428" y="510.0" name="top"/>
  <anchor x="149.89285714285714" y="0.0" name="bottom"/>
  <outline>
    <contour>
      <point x="142.82142857142858" y="-10.0" type="curve"/>
      <point x="257.2857142857143" y="-10.0"/>
      <point x="332.9642857142857" y="71.78571428571428"/>
      <point x="332.9642857142857" y="158.57142857142856" type="curve" smooth="yes"/>
      <point x="332.9642857142857" y="226.71428571428572"/>
      <point x="291.8928571428571" y="255.71428571428572"/>
      <point x="233.25" y="288.0" type="curve" smooth="yes"/>
      <point x="179.42857142857144" y="316.5"/>
      <point x="160.96428571428572" y="337.40698587127156"/>
      <point x="160.96428571428572" y="367.89285714285717" type="curve" smooth="yes"/>
      <point x="160.96428571428572" y="397.2753456221786"/>
      <point x="182.31390977450002" y="417.5357142857143"/>
      <point x="213.35714285714286" y="417.5357142857143" type="curve" smooth="yes"/>
      <point x="240.9248768475" y="417.5357142857143"/>
      <point x="255.76229987514284" y="403.6648523367857"/>
      <point x="276.2142857142857" y="378.9642857142857" type="curve" smooth="yes"/>
      <point x="300.64285714285717" y="349.17857142857144" type="line"/>
      <point x="307.64285714285717" y="349.17857142857144" type="line"/>
      <point x="346.67857142857144" y="378.0" type="line" smooth="yes"/>
      <point x="353.0357142857143" y="381.7857142857143"/>
      <point x="354.60714285714283" y="388.5357142857143"/>
      <point x="354.60714285714283" y="395.7142857142857" type="curve" smooth="yes"/>
      <point x="354.60714285714283" y="404.92857142857144"/>
      <point x="349.57142857142856" y="416.17857142857144"/>
      <point x="339.5357142857143" y="429.0" type="curve" smooth="yes"/>
      <point x="324.17857142857144" y="449.10714285714283"/>
      <point x="299.85714285714283" y="466.07142857142856"/>
      <point x="250.35714285714286" y="466.07142857142856" type="curve" smooth="yes"/>
      <point x="152.96428571428572" y="466.07142857142856"/>
      <point x="58.53571428571429" y="384.5357142857143"/>
      <point x="58.53571428571429" y="316.82142857142856" type="curve" smooth="yes"/>
      <point x="58.53571428571429" y="250.34448818897636"/>
      <point x="84.31711864229784" y="224.95520294489475"/>
      <point x="147.92857142857144" y="187.82142857142858" type="curve" smooth="yes"/>
      <point x="214.27918563806264" y="150.3949225422686"/>
      <point x="238.21428571428572" y="134.34173669467788"/>
      <point x="238.21428571428572" y="94.5" type="curve" smooth="yes"/>
      <point x="238.21428571428572" y="61.107142857142854"/>
      <point x="213.96428571428572" y="37.75"/>
      <point x="170.03571428571428" y="37.75" type="curve" smooth="yes"/>
      <point x="135.82142857142856" y="37.75"/>
      <point x="106.10714285714286" y="55.57142857142857"/>
      <point x="83.67857142857142" y="87.14285714285714" type="curve" smooth="yes"/>
      <point x="66.67857142857143" y="111.28571428571428" type="line"/>
      <point x="60.285714285714285" y="111.28571428571428" type="line"/>
      <point x="23.107142857142858" y="84.10714285714286" type="line" smooth="yes"/>
      <point x="13.928571428571429" y="78.10714285714286"/>
      <point x="11.714285714285715" y="69.71428571428571"/>
      <point x="11.714285714285715" y="61.714285714285715" type="curve" smooth="yes"/>
      <point x="11.714285714285715" y="50.285714285714285"/>
      <point x="19.17857142857143" y="39.035714285714285"/>
      <point x="33.857142857142854" y="26.42857142857143" type="curve" smooth="yes"/>
      <point x="54.07142857142857" y="5.928571428571429"/>
      <point x="89.39285714285714" y="-10.0"/>
    </contour>
  </outline>
</glyph>
<glyph name="v" format="2">
  <advance width="460.75"/>
  <unicode hex="0076"/>
  <outline>
    <contour>
      <point x="183.03571428571428" y="0.0" type="line"/>
      <point x="214.25" y="0.0" type="line"/>
      <point x="290.35714285714283" y="113.85714285714285" type="line"/>
      <point x="290.35714285714283" y="145.0" type="line"/>
      <point x="279.75" y="145.0" type="line"/>
      <point x="197.67857142857142" y="466.07142857142856" type="line"/>
      <point x="194.67857142857142" y="466.07142857142856" type="line"/>
      <point x="12.071428571428573" y="430.0" type="line"/>
      <point x="12.071428571428573" y="417.92857142857144" type="line"/>
      <point x="108.67857142857143" y="379.75" type="line"/>
      <point x="73.07142857142857" y="419.9642857142857" type="line"/>
    </contour>
    <contour>
      <point x="221.64285714285714" y="0.0" type="line"/>
      <point x="387.3928571428571" y="229.82142857142858" type="line" smooth="yes"/>
      <point x="440.3928571428571" y="303.9642857142857"/>
      <point x="457.57142857142856" y="341.1071428571429"/>
      <point x="457.57142857142856" y="380.39285714285717" type="curve" smooth="yes"/>
      <point x="457.57142857142856" y="421.89285714285717"/>
      <point x="423.8928571428571" y="466.07142857142856"/>
      <point x="389.4642857142857" y="466.07142857142856" type="curve" smooth="yes"/>
      <point x="372.0357142857143" y="466.07142857142856"/>
      <point x="366.42857142857144" y="462.07142857142856"/>
      <point x="354.0" y="438.2142857142857" type="curve" smooth="yes"/>
      <point x="328.89285714285717" y="388.7857142857143" type="line"/>
      <point x="328.89285714285717" y="384.17857142857144" type="line"/>
      <point x="344.32142857142856" y="375.57142857142856" type="line" smooth="yes"/>
      <point x="363.9642857142857" y="364.3571428571429"/>
      <point x="374.1428571428571" y="348.5"/>
      <point x="374.1428571428571" y="323.8571428571429" type="curve" smooth="yes"/>
      <point x="374.1428571428571" y="303.10714285714283"/>
      <point x="370.5357142857143" y="272.35714285714283"/>
      <point x="335.67857142857144" y="219.96428571428572" type="curve" smooth="yes"/>
      <point x="208.64285714285714" y="28.892857142857142" type="line"/>
      <point x="208.64285714285714" y="0.0" type="line"/>
    </contour>
  </outline>
</glyph>
<glyph name="w" format="2">
  <advance width="677.3571428571429"/>
  <unicode hex="0077"/>
  <anchor x="418.75" y="510.0" name="top"/>
  <outline>
    <contour>
      <point x="166.57142857142858" y="0.0" type="line"/>
      <point x="198.35714285714286" y="0.0" type="line"/>
      <point x="268.10714285714283" y="127.10714285714285" type="line"/>
      <point x="268.10714285714283" y="173.60714285714283" type="line"/>
      <point x="257.4642857142857" y="173.60714285714283" type="line"/>
      <point x="197.67857142857142" y="466.07142857142856" type="line"/>
      <point x="194.67857142857142" y="466.07142857142856" type="line"/>
      <point x="12.071428571428573" y="430.0" type="line"/>
      <point x="12.071428571428573" y="417.92857142857144" type="line"/>
      <point x="109.89285714285714" y="378.5357142857143" type="line"/>
      <point x="74.67857142857143" y="415.10714285714283" type="line"/>
    </contour>
    <contour>
      <point x="396.8928571428571" y="456.07142857142856" type="line"/>
      <point x="191.53571428571428" y="26.928571428571427" type="line"/>
      <point x="191.53571428571428" y="0.0" type="line"/>
      <point x="205.17857142857142" y="0.0" type="line"/>
      <point x="366.39285714285717" y="295.75" type="line"/>
      <point x="340.07142857142856" y="295.75" type="line"/>
      <point x="425.5" y="0.0" type="line"/>
      <point x="454.2857142857143" y="0.0" type="line"/>
      <point x="524.2142857142857" y="124.28571428571428" type="line"/>
      <point x="432.75" y="456.07142857142856" type="line"/>
    </contour>
    <contour>
      <point x="464.10714285714283" y="0.0" type="line"/>
      <point x="604.0" y="229.82142857142858" type="line" smooth="yes"/>
      <point x="650.3928571428571" y="306.9642857142857"/>
      <point x="674.1785714285714" y="341.1071428571429"/>
      <point x="674.1785714285714" y="380.39285714285717" type="curve" smooth="yes"/>
      <point x="674.1785714285714" y="421.89285714285717"/>
      <point x="640.5" y="466.07142857142856"/>
      <point x="606.0714285714286" y="466.07142857142856" type="curve" smooth="yes"/>
      <point x="588.6428571428571" y="466.07142857142856"/>
      <point x="583.0357142857143" y="462.07142857142856"/>
      <point x="570.6071428571429" y="438.2142857142857" type="curve" smooth="yes"/>
      <point x="545.5" y="388.7857142857143" type="line"/>
      <point x="545.5" y="384.17857142857144" type="line"/>
      <point x="560.9285714285714" y="375.57142857142856" type="line" smooth="yes"/>
      <point x="580.5714285714286" y="364.3571428571429"/>
      <point x="590.75" y="348.5"/>
      <point x="590.75" y="323.8571428571429" type="curve" smooth="yes"/>
      <point x="590.75" y="303.10714285714283"/>
      <point x="581.75" y="274.75"/>
      <point x="553.0714285714286" y="219.96428571428572" type="curve" smooth="yes"/>
      <point x="521.0" y="158.57142857142856" type="line"/>
      <point x="445.6428571428571" y="158.57142857142856" type="line"/>
      <point x="445.6428571428571" y="0.0" type="line"/>
    </contour>
  </outline>
</glyph>
<glyph name="x" format="2">
  <advance width="484.42857142857144"/>
  <unicode hex="0078"/>
  <outline>
    <contour>
      <point x="272.07142857142856" y="-6.071428571428571" type="line"/>
      <point x="275.07142857142856" y="-6.071428571428571" type="line"/>
      <point x="447.85714285714283" y="30.0" type="line"/>
      <point x="447.85714285714283" y="42.07142857142857" type="line"/>
      <point x="358.85714285714283" y="79.89285714285714" type="line"/>
      <point x="383.35714285714283" y="62.0" type="line"/>
      <point x="224.14285714285714" y="466.07142857142856" type="line"/>
      <point x="221.53571428571428" y="466.07142857142856" type="line"/>
      <point x="46.78571428571429" y="430.0" type="line"/>
      <point x="46.78571428571429" y="417.92857142857144" type="line"/>
      <point x="137.75" y="379.32142857142856" type="line"/>
      <point x="108.85714285714286" y="402.0" type="line"/>
    </contour>
    <contour>
      <point x="473.57142857142856" y="456.07142857142856" type="curve"/>
      <point x="397.35714285714283" y="456.07142857142856" type="line"/>
      <point x="383.27784272160716" y="426.3448537703929"/>
      <point x="386.3905469224643" y="408.0509510832857"/>
      <point x="261.2142857142857" y="253.07142857142858" type="curve"/>
      <point x="288.8928571428571" y="243.07142857142858" type="line"/>
      <point x="437.57142857142856" y="407.4642857142857"/>
      <point x="471.35714285714283" y="426.07142857142856"/>
    </contour>
    <contour>
      <point x="-11.357142857142854" y="0.0" type="curve"/>
      <point x="69.07142857142857" y="0.0" type="line"/>
      <point x="85.28571428571428" y="34.0"/>
      <point x="84.60714285714286" y="50.25"/>
      <point x="230.85714285714286" y="231.0" type="curve"/>
      <point x="202.57142857142858" y="241.0" type="line"/>
      <point x="34.07142857142857" y="54.607142857142854"/>
      <point x="-9.14285714285714" y="34.0"/>
    </contour>
  </outline>
</glyph>
<glyph name="y" format="2">
  <advance width="465.2142857142857"/>
  <unicode hex="0079"/>
  <anchor x="306.1428571428571" y="510.0" name="top"/>
  <anchor x="285.5" y="-17.07142857142857" name="bottom"/>
  <outline>
    <contour>
      <point x="12.75" y="417.92857142857144" type="line"/>
      <point x="108.75" y="377.9642857142857" type="line"/>
      <point x="73.75" y="418.57142857142856" type="line"/>
      <point x="193.25" y="-32.17857142857142" type="line"/>
      <point x="290.85714285714283" y="105.85714285714286" type="line"/>
      <point x="290.85714285714283" y="135.35714285714286" type="line"/>
      <point x="280.42857142857144" y="135.35714285714286" type="line"/>
      <point x="194.71428571428572" y="466.07142857142856" type="line"/>
      <point x="191.71428571428572" y="466.07142857142856" type="line"/>
      <point x="12.75" y="430.0" type="line"/>
    </contour>
    <contour>
      <point x="5.928571428571431" y="-240.0" type="curve" smooth="yes"/>
      <point x="46.607142857142854" y="-240.0"/>
      <point x="82.75" y="-221.39285714285714"/>
      <point x="116.35714285714286" y="-183.0" type="curve" smooth="yes"/>
      <point x="152.96428571428572" y="-141.0"/>
      <point x="158.78571428571428" y="-125.21428571428571"/>
      <point x="189.0" y="-79.0" type="curve" smooth="yes"/>
      <point x="389.8928571428571" y="229.82142857142858" type="line" smooth="yes"/>
      <point x="438.67857142857144" y="304.9642857142857"/>
      <point x="460.07142857142856" y="341.1071428571429"/>
      <point x="460.07142857142856" y="380.39285714285717" type="curve" smooth="yes"/>
      <point x="460.07142857142856" y="422.67857142857144"/>
      <point x="427.17857142857144" y="466.07142857142856"/>
      <point x="391.9642857142857" y="466.07142857142856" type="curve" smooth="yes"/>
      <point x="374.5357142857143" y="466.07142857142856"/>
      <point x="368.92857142857144" y="462.07142857142856"/>
      <point x="356.5" y="438.2142857142857" type="curve" smooth="yes"/>
      <point x="331.39285714285717" y="388.7857142857143" type="line"/>
      <point x="331.39285714285717" y="384.17857142857144" type="line"/>
      <point x="346.82142857142856" y="375.57142857142856" type="line" smooth="yes"/>
      <point x="366.4642857142857" y="364.3571428571429"/>
      <point x="376.6428571428571" y="348.5"/>
      <point x="376.6428571428571" y="323.8571428571429" type="curve" smooth="yes"/>
      <point x="376.6428571428571" y="303.10714285714283"/>
      <point x="372.5" y="271.32142857142856"/>
      <point x="340.0357142857143" y="219.96428571428572" type="curve" smooth="yes"/>
      <point x="175.0" y="-38.42857142857143" type="line" smooth="yes"/>
      <point x="118.14285714285714" y="-127.07142857142858"/>
      <point x="113.5" y="-132.71428571428572"/>
      <point x="40.82142857142857" y="-132.71428571428572" type="curve" smooth="yes"/>
      <point x="-15.071428571428577" y="-132.71428571428572" type="line"/>
      <point x="-22.071428571428577" y="-138.71428571428572" type="line"/>
      <point x="-22.071428571428577" y="-211.0" type="line" smooth="yes"/>
      <point x="-22.071428571428577" y="-232.0"/>
      <point x="-14.07142857142857" y="-240.0"/>
    </contour>
  </outline>
</glyph>
<glyph name="z" format="2">
  <advance width="441.67857142857144"/>
  <unicode hex="007A"/>
  <anchor x="262.14285714285717" y="510.0" name="top"/>
  <anchor x="173.14285714285714" y="0.0" name="bottom"/>
  <outline>
    <contour>
      <point x="21.071428571428573" y="-6.4642857142857135" type="line"/>
      <point x="36.67857142857143" y="10.535714285714286" type="line" smooth="yes"/>
      <point x="58.5" y="34.142857142857146"/>
      <point x="75.32142857142857" y="46.57142857142857"/>
      <point x="100.35714285714286" y="46.57142857142857" type="curve" smooth="yes"/>
      <point x="110.57142857142857" y="46.57142857142857"/>
      <point x="121.78571428571429" y="44.57142857142857"/>
      <point x="138.03571428571428" y="40.964285714285715" type="curve" smooth="yes"/>
      <point x="350.17857142857144" y="-5.0" type="line"/>
      <point x="387.85714285714283" y="191.82142857142856" type="line"/>
      <point x="371.85714285714283" y="191.82142857142856" type="line"/>
      <point x="301.0357142857143" y="77.92857142857142" type="line"/>
      <point x="356.85714285714283" y="102.60714285714286" type="line"/>
      <point x="141.17857142857142" y="150.96428571428572" type="line"/>
      <point x="141.17857142857142" y="115.0" type="line"/>
      <point x="409.2142857142857" y="434.64285714285717" type="line"/>
      <point x="401.25" y="456.07142857142856" type="line"/>
      <point x="89.53571428571429" y="456.07142857142856" type="line"/>
      <point x="61.25" y="279.3928571428571" type="line"/>
      <point x="77.25" y="279.3928571428571" type="line"/>
      <point x="133.03571428571428" y="383.2857142857143" type="line"/>
      <point x="93.03571428571429" y="350.6071428571429" type="line"/>
      <point x="319.0" y="350.6071428571429" type="line"/>
      <point x="319.0" y="392.89285714285717" type="line"/>
      <point x="2.0357142857142883" y="10.75" type="line"/>
    </contour>
  </outline>
</glyph>
<glyph name="braceleft" format="2">
  <advance width="271.25"/>
  <unicode hex="007B"/>
  <outline>
    <contour>
      <point x="189.35714285714286" y="-150.0" type="line"/>
      <point x="193.35714285714286" y="-127.0" type="line"/>
      <point x="172.82142857142858" y="-127.0" type="line" smooth="yes"/>
      <point x="124.39285714285714" y="-127.0"/>
      <point x="99.17857142857143" y="-107.39285714285714"/>
      <point x="99.17857142857143" y="-59.57142857142857" type="curve" smooth="yes"/>
      <point x="99.17857142857143" y="10.214285714285715"/>
      <point x="181.17857142857142" y="130.89285714285714"/>
      <point x="181.17857142857142" y="198.57142857142858" type="curve" smooth="yes"/>
      <point x="181.17857142857142" y="243.17857142857142"/>
      <point x="167.0" y="274.82142857142856"/>
      <point x="113.53571428571428" y="295.0" type="curve"/>
      <point x="195.75" y="330.9642857142857"/>
      <point x="219.35714285714286" y="387.0"/>
      <point x="219.35714285714286" y="448.0" type="curve" smooth="yes"/>
      <point x="219.35714285714286" y="492.2142857142857"/>
      <point x="207.96428571428572" y="535.8214285714286"/>
      <point x="207.35714285714286" y="585.0357142857143" type="curve" smooth="yes"/>
      <point x="206.14285714285714" y="663.4285714285714"/>
      <point x="236.75" y="717.0"/>
      <point x="312.2142857142857" y="717.0" type="curve" smooth="yes"/>
      <point x="333.35714285714283" y="717.0" type="line"/>
      <point x="337.35714285714283" y="740.0" type="line"/>
      <point x="314.5" y="740.0" type="line" smooth="yes"/>
      <point x="194.10714285714286" y="740.0"/>
      <point x="140.71428571428572" y="671.2142857142857"/>
      <point x="140.71428571428572" y="569.0357142857143" type="curve" smooth="yes"/>
      <point x="140.71428571428572" y="516.6428571428571"/>
      <point x="154.5" y="467.0"/>
      <point x="154.5" y="420.7857142857143" type="curve" smooth="yes"/>
      <point x="154.5" y="362.39285714285717"/>
      <point x="131.5" y="307.0"/>
      <point x="55.5" y="307.0" type="curve" smooth="yes"/>
      <point x="32.5" y="307.0" type="line"/>
      <point x="28.5" y="284.0" type="line"/>
      <point x="52.5" y="284.0" type="line" smooth="yes"/>
      <point x="104.92857142857143" y="284.0"/>
      <point x="120.5" y="256.60714285714283"/>
      <point x="120.5" y="222.21428571428572" type="curve" smooth="yes"/>
      <point x="120.5" y="137.60714285714286"/>
      <point x="36.5" y="44.607142857142854"/>
      <point x="36.5" y="-47.0" type="curve" smooth="yes"/>
      <point x="36.5" y="-109.0"/>
      <point x="75.5" y="-150.0"/>
      <point x="166.5" y="-150.0" type="curve" smooth="yes"/>
    </contour>
  </outline>
</glyph>
<glyph name="bar" format="2">
  <advance width="250.0"/>
  <unicode hex="007C"/>
  <outline>
    <contour>
      <point x="12.392857142857142" y="-250.0" type="line"/>
      <point x="61.214285714285715" y="-250.0" type="line"/>
      <point x="237.60714285714286" y="750.0" type="line"/>
      <point x="188.39285714285714" y="750.0" type="line"/>
    </contour>
  </outline>
</glyph>
<glyph name="braceright" format="2">
  <advance width="271.25"/>
  <unicode hex="007D"/>
  <outline>
    <contour>
      <point x="-43.60714285714286" y="-150.0" type="line"/>
      <point x="-20.750000000000004" y="-150.0" type="line" smooth="yes"/>
      <point x="99.64285714285714" y="-150.0"/>
      <point x="153.03571428571428" y="-81.21428571428571"/>
      <point x="153.03571428571428" y="20.964285714285715" type="curve" smooth="yes"/>
      <point x="153.03571428571428" y="73.35714285714286"/>
      <point x="139.25" y="123.0"/>
      <point x="139.25" y="169.21428571428572" type="curve" smooth="yes"/>
      <point x="139.25" y="227.60714285714286"/>
      <point x="162.25" y="283.0"/>
      <point x="238.25" y="283.0" type="curve" smooth="yes"/>
      <point x="261.25" y="283.0" type="line"/>
      <point x="265.25" y="306.0" type="line"/>
      <point x="241.25" y="306.0" type="line" smooth="yes"/>
      <point x="188.82142857142856" y="306.0"/>
      <point x="173.25" y="333.39285714285717"/>
      <point x="173.25" y="367.7857142857143" type="curve" smooth="yes"/>
      <point x="173.25" y="452.39285714285717"/>
      <point x="257.25" y="545.3928571428571"/>
      <point x="257.25" y="637.0" type="curve" smooth="yes"/>
      <point x="257.25" y="699.0"/>
      <point x="218.25" y="740.0"/>
      <point x="127.25" y="740.0" type="curve" smooth="yes"/>
      <point x="104.39285714285714" y="740.0" type="line"/>
      <point x="100.39285714285714" y="717.0" type="line"/>
      <point x="120.92857142857143" y="717.0" type="line" smooth="yes"/>
      <point x="169.35714285714286" y="717.0"/>
      <point x="194.57142857142858" y="697.3928571428571"/>
      <point x="194.57142857142858" y="649.5714285714286" type="curve" smooth="yes"/>
      <point x="194.57142857142858" y="579.7857142857143"/>
      <point x="112.57142857142857" y="459.10714285714283"/>
      <point x="112.57142857142857" y="391.42857142857144" type="curve" smooth="yes"/>
      <point x="112.57142857142857" y="346.82142857142856"/>
      <point x="126.75" y="315.17857142857144"/>
      <point x="180.21428571428572" y="295.0" type="curve"/>
      <point x="98.0" y="259.0357142857143"/>
      <point x="74.39285714285714" y="203.0"/>
      <point x="74.39285714285714" y="142.0" type="curve" smooth="yes"/>
      <point x="74.39285714285714" y="97.78571428571429"/>
      <point x="85.78571428571428" y="54.17857142857143"/>
      <point x="86.39285714285714" y="4.964285714285715" type="curve" smooth="yes"/>
      <point x="87.60714285714286" y="-73.42857142857143"/>
      <point x="57.0" y="-127.0"/>
      <point x="-18.464285714285715" y="-127.0" type="curve" smooth="yes"/>
      <point x="-39.60714285714286" y="-127.0" type="line"/>
    </contour>
  </outline>
</glyph>
<glyph name="asciitilde" format="2">
  <advance width="560.7142857142857"/>
  <unicode hex="007E"/>
  <outline>
    <contour>
      <point x="361.8928571428571" y="201.0" type="curve" smooth="yes"/>
      <point x="434.17857142857144" y="201.0"/>
      <point x="479.92857142857144" y="253.0"/>
      <point x="493.92857142857144" y="343.0" type="curve"/>
      <point x="441.25" y="343.0" type="line"/>
      <point x="432.85714285714283" y="288.57142857142856"/>
      <point x="412.07142857142856" y="252.89285714285714"/>
      <point x="367.7142857142857" y="252.89285714285714" type="curve" smooth="yes"/>
      <point x="298.17857142857144" y="252.89285714285714"/>
      <point x="279.7142857142857" y="343.0"/>
      <point x="182.14285714285714" y="343.0" type="curve" smooth="yes"/>
      <point x="109.85714285714286" y="343.0"/>
      <point x="64.71428571428571" y="291.0"/>
      <point x="50.71428571428571" y="201.0" type="curve"/>
      <point x="103.39285714285714" y="201.0" type="line"/>
      <point x="111.78571428571428" y="255.42857142857144"/>
      <point x="132.57142857142856" y="291.1071428571429"/>
      <point x="176.92857142857142" y="291.1071428571429" type="curve" smooth="yes"/>
      <point x="245.85714285714286" y="291.1071428571429"/>
      <point x="264.32142857142856" y="201.0"/>
    </contour>
  </outline>
</glyph>
<glyph name="exclamdown" format="2">
  <advance width="236.14285714285714"/>
  <unicode hex="00A1"/>
  <outline>
    <contour>
      <point x="-39.0" y="-200.89285714285714" type="line"/>
      <point x="98.10714285714285" y="-200.89285714285714" type="line"/>
      <point x="121.07142857142857" y="240.89285714285714" type="line"/>
      <point x="92.75" y="240.89285714285714" type="line"/>
    </contour>
    <contour>
      <point x="126.17857142857143" y="329.07142857142856" type="curve" smooth="yes"/>
      <point x="168.25" y="329.07142857142856"/>
      <point x="197.5" y="366.14285714285717"/>
      <point x="197.5" y="405.60714285714283" type="curve" smooth="yes"/>
      <point x="197.5" y="439.4642857142857"/>
      <point x="180.07142857142856" y="464.10714285714283"/>
      <point x="141.0" y="464.10714285714283" type="curve" smooth="yes"/>
      <point x="97.92857142857143" y="464.10714285714283"/>
      <point x="69.67857142857143" y="430.07142857142856"/>
      <point x="69.67857142857143" y="387.57142857142856" type="curve" smooth="yes"/>
      <point x="69.67857142857143" y="353.7142857142857"/>
      <point x="87.10714285714286" y="329.07142857142856"/>
    </contour>
  </outline>
</glyph>
<glyph name="cent" format="2">
  <advance width="560.7142857142857"/>
  <unicode hex="00A2"/>
  <outline>
    <contour>
      <point x="253.42857142857142" y="91.96428571428571" type="curve" smooth="yes"/>
      <point x="342.67857142857144" y="91.96428571428571"/>
      <point x="411.2142857142857" y="161.21428571428572"/>
      <point x="459.92857142857144" y="248.07142857142858" type="curve"/>
      <point x="442.7142857142857" y="263.7142857142857" type="line"/>
      <point x="440.10714285714283" y="263.7142857142857" type="line"/>
      <point x="393.1428571428571" y="215.78571428571428"/>
      <point x="360.7857142857143" y="197.82142857142856"/>
      <point x="316.85714285714283" y="197.82142857142856" type="curve" smooth="yes"/>
      <point x="261.17857142857144" y="197.82142857142856"/>
      <point x="221.85714285714286" y="243.35714285714286"/>
      <point x="221.85714285714286" y="317.9642857142857" type="curve" smooth="yes"/>
      <point x="221.85714285714286" y="427.39285714285717"/>
      <point x="277.7857142857143" y="522.6428571428571"/>
      <point x="335.42857142857144" y="522.6428571428571" type="curve" smooth="yes"/>
      <point x="370.2142857142857" y="522.6428571428571"/>
      <point x="379.9642857142857" y="500.35714285714283"/>
      <point x="397.32142857142856" y="469.75" type="curve" smooth="yes"/>
      <point x="418.5357142857143" y="431.0357142857143" type="line"/>
      <point x="424.92857142857144" y="431.0357142857143" type="line"/>
      <point x="470.32142857142856" y="465.0357142857143" type="line" smooth="yes"/>
      <point x="481.32142857142856" y="472.85714285714283"/>
      <point x="485.32142857142856" y="483.25"/>
      <point x="485.32142857142856" y="492.85714285714283" type="curve" smooth="yes"/>
      <point x="485.32142857142856" y="500.64285714285717"/>
      <point x="484.5357142857143" y="506.42857142857144"/>
      <point x="476.5357142857143" y="519.0357142857143" type="curve" smooth="yes"/>
      <point x="457.5357142857143" y="549.25"/>
      <point x="419.42857142857144" y="568.0357142857143"/>
      <point x="363.75" y="568.0357142857143" type="curve" smooth="yes"/>
      <point x="221.96428571428572" y="568.0357142857143"/>
      <point x="91.46428571428571" y="418.7857142857143"/>
      <point x="91.46428571428571" y="268.0357142857143" type="curve" smooth="yes"/>
      <point x="91.46428571428571" y="155.82142857142858"/>
      <point x="142.85714285714286" y="91.96428571428571"/>
    </contour>
    <contour>
      <point x="151.03571428571428" y="26.0" type="line"/>
      <point x="193.10714285714286" y="26.0" type="line"/>
      <point x="445.0" y="635.0" type="line"/>
      <point x="402.92857142857144" y="635.0" type="line"/>
    </contour>
  </outline>
</glyph>
<glyph name="currency" format="2">
  <advance width="560.7142857142857"/>
  <unicode hex="00A4"/>
  <outline>
    <contour>
      <point x="405.0357142857143" y="62.0" type="line"/>
      <point x="446.85714285714283" y="95.82142857142857" type="line"/>
      <point x="391.0357142857143" y="165.21428571428572" type="line"/>
      <point x="423.42857142857144" y="198.60714285714286"/>
      <point x="438.42857142857144" y="242.60714285714286"/>
      <point x="438.42857142857144" y="289.0" type="curve" smooth="yes"/>
      <point x="438.42857142857144" y="317.0"/>
      <point x="431.42857142857144" y="343.39285714285717"/>
      <point x="419.0357142857143" y="366.39285714285717" type="curve"/>
      <point x="508.0357142857143" y="445.39285714285717" type="line"/>
      <point x="476.82142857142856" y="483.2142857142857" type="line"/>
      <point x="387.82142857142856" y="403.60714285714283" type="line"/>
      <point x="363.82142857142856" y="423.0"/>
      <point x="329.82142857142856" y="434.0"/>
      <point x="293.42857142857144" y="434.0" type="curve" smooth="yes"/>
      <point x="259.0357142857143" y="434.0"/>
      <point x="229.64285714285714" y="426.0"/>
      <point x="204.64285714285714" y="411.60714285714283" type="curve"/>
      <point x="148.42857142857144" y="482.60714285714283" type="line"/>
      <point x="106.60714285714285" y="448.7857142857143" type="line"/>
      <point x="162.82142857142856" y="379.39285714285717" type="line"/>
      <point x="130.42857142857142" y="346.0"/>
      <point x="115.42857142857142" y="302.0"/>
      <point x="115.42857142857142" y="256.0" type="curve" smooth="yes"/>
      <point x="115.42857142857142" y="227.60714285714286"/>
      <point x="122.42857142857142" y="201.21428571428572"/>
      <point x="134.82142857142856" y="178.60714285714286" type="curve"/>
      <point x="45.42857142857142" y="99.21428571428572" type="line"/>
      <point x="76.64285714285714" y="61.392857142857146" type="line"/>
      <point x="166.03571428571428" y="141.39285714285714" type="line"/>
      <point x="190.03571428571428" y="122.0"/>
      <point x="224.03571428571428" y="110.60714285714286"/>
      <point x="260.82142857142856" y="110.60714285714286" type="curve" smooth="yes"/>
      <point x="294.82142857142856" y="110.60714285714286"/>
      <point x="324.2142857142857" y="118.60714285714286"/>
      <point x="349.2142857142857" y="133.0" type="curve"/>
    </contour>
    <contour>
      <point x="266.82142857142856" y="156.64285714285714" type="curve" smooth="yes"/>
      <point x="205.42857142857142" y="156.64285714285714"/>
      <point x="166.85714285714286" y="194.42857142857142"/>
      <point x="166.85714285714286" y="260.0" type="curve" smooth="yes"/>
      <point x="166.85714285714286" y="334.0"/>
      <point x="215.42857142857144" y="387.9642857142857"/>
      <point x="287.42857142857144" y="387.9642857142857" type="curve" smooth="yes"/>
      <point x="348.42857142857144" y="387.9642857142857"/>
      <point x="387.0" y="350.17857142857144"/>
      <point x="387.0" y="285.0" type="curve" smooth="yes"/>
      <point x="387.0" y="210.60714285714286"/>
      <point x="338.42857142857144" y="156.64285714285714"/>
    </contour>
  </outline>
</glyph>
<glyph name="yen" format="2">
  <advance width="560.7142857142857"/>
  <unicode hex="00A5"/>
  <outline>
    <contour>
      <point x="87.92857142857143" y="0.0" type="line"/>
      <point x="377.7857142857143" y="0.0" type="line"/>
      <point x="380.7857142857143" y="16.0" type="line"/>
      <point x="307.3928571428571" y="57.214285714285715" type="line"/>
      <point x="373.0357142857143" y="436.92857142857144" type="line"/>
      <point x="334.07142857142856" y="359.10714285714283" type="line"/>
      <point x="561.5" y="634.75" type="line"/>
      <point x="492.9642857142857" y="599.3214285714286" type="line"/>
      <point x="609.8571428571429" y="644.0" type="line"/>
      <point x="612.25" y="660.0" type="line"/>
      <point x="422.9642857142857" y="660.0" type="line"/>
      <point x="420.57142857142856" y="644.0" type="line"/>
      <point x="477.17857142857144" y="614.9642857142857" type="line"/>
      <point x="476.7857142857143" y="611.3571428571429" type="line"/>
      <point x="333.4642857142857" y="419.17857142857144" type="line"/>
      <point x="359.85714285714283" y="432.32142857142856" type="line"/>
      <point x="267.32142857142856" y="613.9285714285714" type="line"/>
      <point x="267.92857142857144" y="617.1428571428571" type="line"/>
      <point x="332.9642857142857" y="644.6071428571429" type="line"/>
      <point x="335.35714285714283" y="660.0" type="line"/>
      <point x="76.42857142857143" y="660.0" type="line"/>
      <point x="74.03571428571428" y="644.0" type="line"/>
      <point x="154.42857142857142" y="599.3214285714286" type="line"/>
      <point x="111.21428571428572" y="634.75" type="line"/>
      <point x="260.82142857142856" y="355.60714285714283" type="line"/>
      <point x="243.57142857142858" y="436.92857142857144" type="line"/>
      <point x="177.92857142857142" y="57.214285714285715" type="line"/>
      <point x="90.92857142857143" y="16.0" type="line"/>
    </contour>
    <contour>
      <point x="76.10714285714286" y="237.78571428571428" type="line"/>
      <point x="471.6428571428571" y="237.78571428571428" type="line"/>
      <point x="479.25" y="279.42857142857144" type="line"/>
      <point x="83.71428571428571" y="279.42857142857144" type="line"/>
    </contour>
    <contour>
      <point x="101.71428571428571" y="387.17857142857144" type="line"/>
      <point x="496.85714285714283" y="387.17857142857144" type="line"/>
      <point x="504.85714285714283" y="428.82142857142856" type="line"/>
      <point x="109.32142857142857" y="428.82142857142856" type="line"/>
    </contour>
  </outline>
</glyph>
<glyph name="brokenbar" format="2">
  <advance width="250.0"/>
  <unicode hex="00A6"/>
  <outline>
    <contour>
      <point x="118.39285714285714" y="350.0" type="line"/>
      <point x="167.60714285714286" y="350.0" type="line"/>
      <point x="237.60714285714286" y="750.0" type="line"/>
      <point x="188.39285714285714" y="750.0" type="line"/>
    </contour>
    <contour>
      <point x="12.392857142857144" y="-250.0" type="line"/>
      <point x="61.214285714285715" y="-250.0" type="line"/>
      <point x="131.21428571428572" y="150.0" type="line"/>
      <point x="82.39285714285714" y="150.0" type="line"/>
    </contour>
  </outline>
</glyph>
<glyph name="section" format="2">
  <advance width="539.7288789935715"/>
  <unicode hex="00A7"/>
  <outline>
    <contour>
      <point x="500.8928571428571" y="313.75" type="curve" smooth="yes"/>
      <point x="500.8928571428571" y="471.75"/>
      <point x="248.57142857142856" y="429.1428571428571"/>
      <point x="248.57142857142856" y="541.3214285714286" type="curve" smooth="yes"/>
      <point x="248.57142857142856" y="586.7857142857143"/>
      <point x="282.85714285714283" y="620.0"/>
      <point x="335.8928571428571" y="620.0" type="curve" smooth="yes"/>
      <point x="385.42857142857144" y="620.0"/>
      <point x="406.3928571428571" y="578.75"/>
      <point x="422.57142857142856" y="557.1785714285714" type="curve" smooth="yes"/>
      <point x="433.7142857142857" y="541.8571428571429" type="line"/>
      <point x="441.35714285714283" y="540.0357142857143" type="line"/>
      <point x="490.67857142857144" y="580.3214285714286" type="line" smooth="yes"/>
      <point x="501.2857142857143" y="589.9285714285714"/>
      <point x="507.5" y="596.9285714285714"/>
      <point x="507.8928571428571" y="605.9642857142857" type="curve" smooth="yes"/>
      <point x="508.2857142857143" y="613.1428571428571"/>
      <point x="504.5" y="619.3214285714286"/>
      <point x="497.8928571428571" y="628.1071428571429" type="curve" smooth="yes"/>
      <point x="478.85714285714283" y="648.3214285714286"/>
      <point x="445.1428571428571" y="670.0"/>
      <point x="380.17857142857144" y="670.0" type="curve" smooth="yes"/>
      <point x="242.57142857142856" y="670.0"/>
      <point x="142.28571428571428" y="574.6428571428571"/>
      <point x="142.28571428571428" y="480.89285714285717" type="curve" smooth="yes"/>
      <point x="142.28571428571428" y="323.7142857142857"/>
      <point x="388.9642857142857" y="379.07142857142856"/>
      <point x="388.9642857142857" y="255.92857142857144" type="curve" smooth="yes"/>
      <point x="388.9642857142857" y="215.67857142857142"/>
      <point x="351.17857142857144" y="181.14285714285714"/>
      <point x="305.75" y="174.46428571428572" type="curve"/>
      <point x="294.42857142857144" y="134.0" type="line"/>
      <point x="415.1428571428571" y="149.78571428571428"/>
      <point x="500.8928571428571" y="223.35714285714286"/>
    </contour>
    <contour>
      <point x="150.25" y="-121.21428571428571" type="curve" smooth="yes"/>
      <point x="277.25" y="-121.21428571428571"/>
      <point x="393.2142857142857" y="-27.928571428571427"/>
      <point x="393.2142857142857" y="67.64285714285714" type="curve" smooth="yes"/>
      <point x="393.2142857142857" y="223.64285714285714"/>
      <point x="141.46428571428572" y="171.28571428571428"/>
      <point x="141.46428571428572" y="294.6428571428571" type="curve" smooth="yes"/>
      <point x="141.46428571428572" y="337.2857142857143"/>
      <point x="176.64285714285714" y="375.25"/>
      <point x="230.17857142857144" y="384.5357142857143" type="curve"/>
      <point x="243.64285714285714" y="418.32142857142856" type="line"/>
      <point x="119.32142857142857" y="404.32142857142856"/>
      <point x="28.75" y="323.57142857142856"/>
      <point x="28.75" y="233.78571428571428" type="curve" smooth="yes"/>
      <point x="28.75" y="75.35714285714286"/>
      <point x="281.7142857142857" y="120.82142857142858"/>
      <point x="282.5" y="10.392857142857146" type="curve" smooth="yes"/>
      <point x="282.89285714285717" y="-33.535714285714285"/>
      <point x="248.07142857142856" y="-69.64285714285714"/>
      <point x="195.03571428571428" y="-69.64285714285714" type="curve" smooth="yes"/>
      <point x="145.75" y="-69.64285714285714"/>
      <point x="119.32142857142857" y="-26.821428571428577"/>
      <point x="103.75" y="-4.464285714285715" type="curve" smooth="yes"/>
      <point x="91.60714285714286" y="11.642857142857139" type="line"/>
      <point x="84.17857142857143" y="13.464285714285708" type="line"/>
      <point x="33.67857142857143" y="-28.0" type="line" smooth="yes"/>
      <point x="22.07142857142857" y="-37.214285714285715"/>
      <point x="16.464285714285715" y="-46.0"/>
      <point x="16.464285714285715" y="-54.035714285714285" type="curve" smooth="yes"/>
      <point x="15.678571428571427" y="-61.214285714285715"/>
      <point x="18.464285714285715" y="-67.78571428571429"/>
      <point x="26.857142857142858" y="-77.35714285714286" type="curve" smooth="yes"/>
      <point x="45.89285714285714" y="-97.96428571428572"/>
      <point x="84.10714285714286" y="-121.21428571428571"/>
    </contour>
  </outline>
</glyph>
<glyph name="copyright" format="2">
  <advance width="806.0"/>
  <unicode hex="00A9"/>
  <outline>
    <contour>
      <point x="361.60714285714283" y="-10.0" type="curve" smooth="yes"/>
      <point x="590.25" y="-10.0"/>
      <point x="743.0357142857143" y="166.53571428571428"/>
      <point x="743.0357142857143" y="373.39285714285717" type="curve" smooth="yes"/>
      <point x="743.0357142857143" y="543.0"/>
      <point x="619.4285714285714" y="670.0"/>
      <point x="444.60714285714283" y="670.0" type="curve" smooth="yes"/>
      <point x="215.35714285714286" y="670.0"/>
      <point x="62.964285714285715" y="493.4642857142857"/>
      <point x="62.964285714285715" y="286.39285714285717" type="curve" smooth="yes"/>
      <point x="62.964285714285715" y="117.0"/>
      <point x="186.17857142857142" y="-10.0"/>
    </contour>
    <contour>
      <point x="365.42857142857144" y="24.607142857142854" type="curve" smooth="yes"/>
      <point x="210.78571428571428" y="24.607142857142854"/>
      <point x="104.57142857142857" y="138.60714285714286"/>
      <point x="104.57142857142857" y="289.7857142857143" type="curve" smooth="yes"/>
      <point x="104.57142857142857" y="485.82142857142856"/>
      <point x="246.96428571428572" y="634.1785714285714"/>
      <point x="440.17857142857144" y="634.1785714285714" type="curve" smooth="yes"/>
      <point x="595.0" y="634.1785714285714"/>
      <point x="701.4285714285714" y="520.3928571428571"/>
      <point x="701.4285714285714" y="370.0" type="curve" smooth="yes"/>
      <point x="701.4285714285714" y="174.17857142857142"/>
      <point x="558.4285714285714" y="24.607142857142854"/>
    </contour>
    <contour>
      <point x="378.0" y="129.0" type="curve" smooth="yes"/>
      <point x="435.7075123153929" y="129.0"/>
      <point x="471.85601494575" y="142.1161247167143"/>
      <point x="513.5714285714286" y="164.39285714285714" type="curve"/>
      <point x="539.1785714285714" y="266.0" type="line"/>
      <point x="513.1785714285714" y="266.0" type="line"/>
      <point x="426.2142857142857" y="159.60714285714286" type="line"/>
      <point x="485.75" y="210.0" type="line"/>
      <point x="462.0871469274643" y="195.4390503324643"/>
      <point x="437.84970238082144" y="175.0"/>
      <point x="395.9642857142857" y="175.0" type="curve" smooth="yes"/>
      <point x="338.9642857142857" y="175.0"/>
      <point x="305.2142857142857" y="219.82142857142858"/>
      <point x="305.2142857142857" y="297.85714285714283" type="curve" smooth="yes"/>
      <point x="305.2142857142857" y="413.39285714285717"/>
      <point x="366.42857142857144" y="495.60714285714283"/>
      <point x="446.14285714285717" y="495.60714285714283" type="curve" smooth="yes"/>
      <point x="475.5357142857143" y="495.60714285714283"/>
      <point x="492.594657935" y="484.25604521092856"/>
      <point x="523.75" y="458.60714285714283" type="curve"/>
      <point x="494.17857142857144" y="493.35714285714283" type="line"/>
      <point x="529.1785714285714" y="394.0" type="line"/>
      <point x="555.1785714285714" y="394.0" type="line"/>
      <point x="572.1785714285714" y="509.0" type="line"/>
      <point x="539.3571428571429" y="528.0"/>
      <point x="511.35714285714283" y="540.0"/>
      <point x="453.2857142857143" y="540.0" type="curve" smooth="yes"/>
      <point x="309.32142857142856" y="540.0"/>
      <point x="205.21428571428572" y="424.0357142857143"/>
      <point x="205.21428571428572" y="300.4642857142857" type="curve" smooth="yes"/>
      <point x="205.21428571428572" y="196.39285714285714"/>
      <point x="266.76102292760714" y="129.0"/>
    </contour>
  </outline>
</glyph>
<glyph name="ordfeminine" format="2">
  <advance width="400.0"/>
  <unicode hex="00AA"/>
  <outline>
    <contour>
      <point x="148.53571428571428" y="417.0" type="curve" smooth="yes"/>
      <point x="183.6015873015" y="417.0"/>
      <point x="211.1796063054643" y="436.4473003468214"/>
      <point x="237.53571428571428" y="475.17857142857144" type="curve"/>
      <point x="256.92857142857144" y="475.17857142857144" type="line"/>
      <point x="256.92857142857144" y="535.0" type="line"/>
      <point x="242.35714285714286" y="509.6428571428571"/>
      <point x="223.42857142857142" y="471.32142857142856"/>
      <point x="196.25" y="471.32142857142856" type="curve" smooth="yes"/>
      <point x="182.89285714285714" y="471.32142857142856"/>
      <point x="177.89285714285714" y="486.2857142857143"/>
      <point x="177.89285714285714" y="512.0" type="curve" smooth="yes"/>
      <point x="177.89285714285714" y="570.1428571428571"/>
      <point x="201.07142857142856" y="645.3571428571429"/>
      <point x="243.28571428571428" y="645.3571428571429" type="curve" smooth="yes"/>
      <point x="256.4642857142857" y="645.3571428571429"/>
      <point x="266.2142857142857" y="638.3928571428571"/>
      <point x="271.7857142857143" y="622.4642857142857" type="curve"/>
      <point x="269.75" y="642.3214285714286" type="line"/>
      <point x="241.75" y="485.2857142857143" type="line" smooth="yes"/>
      <point x="235.75" y="453.2857142857143"/>
      <point x="243.53571428571428" y="417.0"/>
      <point x="289.2142857142857" y="417.0" type="curve" smooth="yes"/>
      <point x="320.85714285714283" y="417.0"/>
      <point x="352.07142857142856" y="437.57142857142856"/>
      <point x="374.4642857142857" y="493.2142857142857" type="curve"/>
      <point x="361.4642857142857" y="498.2142857142857" type="line"/>
      <point x="348.2857142857143" y="470.2142857142857"/>
      <point x="338.5" y="459.64285714285717"/>
      <point x="328.5" y="459.64285714285717" type="curve" smooth="yes"/>
      <point x="318.5" y="459.64285714285717"/>
      <point x="314.5" y="468.64285714285717"/>
      <point x="318.5" y="489.64285714285717" type="curve" smooth="yes"/>
      <point x="351.89285714285717" y="670.0" type="line"/>
      <point x="338.8928571428571" y="670.0" type="line"/>
      <point x="281.92857142857144" y="645.0" type="line"/>
      <point x="310.2857142857143" y="649.6428571428571" type="line"/>
      <point x="300.5" y="661.4285714285714"/>
      <point x="275.7142857142857" y="670.0"/>
      <point x="251.53571428571428" y="670.0" type="curve" smooth="yes"/>
      <point x="164.57142857142858" y="670.0"/>
      <point x="99.92857142857143" y="580.0"/>
      <point x="99.92857142857143" y="491.0" type="curve" smooth="yes"/>
      <point x="99.92857142857143" y="442.0"/>
      <point x="118.92857142857143" y="417.0"/>
    </contour>
    <contour>
      <point x="73.92857142857143" y="292.0" type="line"/>
      <point x="317.8928571428571" y="292.0" type="line"/>
      <point x="326.89285714285717" y="342.0" type="line"/>
      <point x="82.92857142857143" y="342.0" type="line"/>
    </contour>
  </outline>
</glyph>
<glyph name="logicalnot" format="2">
  <advance width="560.7142857142857"/>
  <unicode hex="00AC"/>
  <outline>
    <contour>
      <point x="389.10714285714283" y="62.0" type="line"/>
      <point x="446.0" y="62.0" type="line"/>
      <point x="487.60714285714283" y="298.0357142857143" type="line"/>
      <point x="68.39285714285714" y="298.0357142857143" type="line"/>
      <point x="59.17857142857143" y="245.96428571428572" type="line"/>
      <point x="421.5" y="245.96428571428572" type="line"/>
    </contour>
  </outline>
</glyph>
<glyph name="registered" format="2">
  <advance width="500.0"/>
  <unicode hex="00AE"/>
  <outline>
    <contour>
      <point x="243.39285714285714" y="227.07142857142858" type="curve" smooth="yes"/>
      <point x="392.4642857142857" y="227.07142857142858"/>
      <point x="491.67857142857144" y="341.2857142857143"/>
      <point x="491.67857142857144" y="477.14285714285717" type="curve" smooth="yes"/>
      <point x="491.67857142857144" y="587.1785714285714"/>
      <point x="411.25" y="670.0"/>
      <point x="297.60714285714283" y="670.0" type="curve" smooth="yes"/>
      <point x="148.53571428571428" y="670.0"/>
      <point x="48.714285714285715" y="556.0"/>
      <point x="48.714285714285715" y="419.92857142857144" type="curve" smooth="yes"/>
      <point x="48.714285714285715" y="309.5"/>
      <point x="129.14285714285714" y="227.07142857142858"/>
    </contour>
    <contour>
      <point x="247.0" y="256.89285714285717" type="curve" smooth="yes"/>
      <point x="149.57142857142858" y="256.89285714285717"/>
      <point x="83.14285714285714" y="329.10714285714283"/>
      <point x="83.14285714285714" y="421.75" type="curve" smooth="yes"/>
      <point x="83.14285714285714" y="548.1428571428571"/>
      <point x="173.53571428571428" y="639.5714285714286"/>
      <point x="293.60714285714283" y="639.5714285714286" type="curve" smooth="yes"/>
      <point x="390.42857142857144" y="639.5714285714286"/>
      <point x="457.4642857142857" y="567.9642857142857"/>
      <point x="457.4642857142857" y="475.32142857142856" type="curve" smooth="yes"/>
      <point x="457.4642857142857" y="348.92857142857144"/>
      <point x="366.4642857142857" y="256.89285714285717"/>
    </contour>
    <contour>
      <point x="138.60714285714286" y="322.92857142857144" type="line"/>
      <point x="252.53571428571428" y="322.92857142857144" type="line"/>
      <point x="254.14285714285714" y="329.92857142857144" type="line"/>
      <point x="227.14285714285714" y="345.92857142857144" type="line"/>
      <point x="268.14285714285717" y="577.9285714285714" type="line"/>
      <point x="183.60714285714286" y="577.9285714285714" type="line"/>
      <point x="182.60714285714286" y="571.9285714285714" type="line"/>
      <point x="211.21428571428572" y="555.9285714285714" type="line"/>
      <point x="173.60714285714286" y="345.92857142857144" type="line"/>
      <point x="140.21428571428572" y="329.92857142857144" type="line"/>
    </contour>
    <contour>
      <point x="375.5" y="520.9285714285714" type="curve" smooth="yes"/>
      <point x="375.5" y="555.1071428571429"/>
      <point x="349.32142857142856" y="577.9285714285714"/>
      <point x="297.8928571428571" y="577.9285714285714" type="curve" smooth="yes"/>
      <point x="231.0" y="577.9285714285714" type="line"/>
      <point x="227.0" y="554.9285714285714" type="line"/>
      <point x="277.0357142857143" y="554.9285714285714" type="line" smooth="yes"/>
      <point x="303.82142857142856" y="554.9285714285714"/>
      <point x="319.7857142857143" y="542.7142857142857"/>
      <point x="319.7857142857143" y="519.5357142857143" type="curve" smooth="yes"/>
      <point x="319.7857142857143" y="482.7142857142857"/>
      <point x="295.2142857142857" y="462.92857142857144"/>
      <point x="259.39285714285717" y="462.92857142857144" type="curve"/>
      <point x="214.0" y="462.92857142857144" type="line"/>
      <point x="210.0" y="439.92857142857144" type="line"/>
      <point x="281.5357142857143" y="439.92857142857144" type="line"/>
      <point x="281.5357142857143" y="446.57142857142856" type="line"/>
      <point x="340.14285714285717" y="452.57142857142856"/>
      <point x="375.5" y="477.5"/>
    </contour>
    <contour>
      <point x="292.7857142857143" y="322.92857142857144" type="line"/>
      <point x="369.5357142857143" y="322.92857142857144" type="line"/>
      <point x="371.14285714285717" y="329.92857142857144" type="line"/>
      <point x="347.5357142857143" y="342.92857142857144" type="line"/>
      <point x="310.75" y="457.35714285714283" type="line"/>
      <point x="257.4642857142857" y="457.35714285714283" type="line"/>
    </contour>
  </outline>
</glyph>
<glyph name="degree" format="2">
  <advance width="500.0"/>
  <unicode hex="00B0"/>
  <outline>
    <contour>
      <point x="283.92857142857144" y="410.0" type="curve" smooth="yes"/>
      <point x="358.92857142857144" y="410.0"/>
      <point x="413.92857142857144" y="470.0"/>
      <point x="413.92857142857144" y="540.0" type="curve" smooth="yes"/>
      <point x="413.92857142857144" y="610.0"/>
      <point x="358.92857142857144" y="670.0"/>
      <point x="283.92857142857144" y="670.0" type="curve" smooth="yes"/>
      <point x="208.92857142857142" y="670.0"/>
      <point x="153.92857142857142" y="610.0"/>
      <point x="153.92857142857142" y="540.0" type="curve" smooth="yes"/>
      <point x="153.92857142857142" y="470.0"/>
      <point x="208.92857142857142" y="410.0"/>
    </contour>
    <contour>
      <point x="283.92857142857144" y="453.25" type="curve" smooth="yes"/>
      <point x="238.57142857142858" y="453.25"/>
      <point x="202.60714285714286" y="486.42857142857144"/>
      <point x="202.60714285714286" y="540.0" type="curve" smooth="yes"/>
      <point x="202.60714285714286" y="593.5714285714286"/>
      <point x="238.57142857142858" y="626.75"/>
      <point x="283.92857142857144" y="626.75" type="curve" smooth="yes"/>
      <point x="329.2857142857143" y="626.75"/>
      <point x="365.25" y="593.5714285714286"/>
      <point x="365.25" y="540.0" type="curve" smooth="yes"/>
      <point x="365.25" y="486.42857142857144"/>
      <point x="329.2857142857143" y="453.25"/>
    </contour>
  </outline>
</glyph>
<glyph name="plusminus" format="2">
  <advance width="560.7142857142857"/>
  <unicode hex="00B1"/>
  <outline>
    <contour>
      <point x="447.60714285714283" y="60.964285714285715" type="line"/>
      <point x="456.82142857142856" y="113.03571428571428" type="line"/>
      <point x="37.607142857142854" y="113.03571428571428" type="line"/>
      <point x="28.392857142857142" y="60.964285714285715" type="line"/>
    </contour>
    <contour>
      <point x="487.2142857142857" y="285.9642857142857" type="line"/>
      <point x="496.42857142857144" y="338.0357142857143" type="line"/>
      <point x="77.21428571428571" y="338.0357142857143" type="line"/>
      <point x="68.0" y="285.9642857142857" type="line"/>
    </contour>
    <contour>
      <point x="283.9642857142857" y="482.0" type="line"/>
      <point x="225.96428571428572" y="152.0" type="line"/>
      <point x="282.85714285714283" y="152.0" type="line"/>
      <point x="340.85714285714283" y="482.0" type="line"/>
    </contour>
  </outline>
</glyph>
<glyph name="paragraph" format="2">
  <advance width="510.2142857142857"/>
  <unicode hex="00B6"/>
  <outline>
    <contour>
      <point x="179.96428571428572" y="-110.0" type="line"/>
      <point x="234.25" y="-110.0" type="line"/>
      <point x="372.6071428571429" y="660.0" type="line"/>
      <point x="261.92857142857144" y="660.0" type="line" smooth="yes"/>
      <point x="144.85714285714286" y="660.0"/>
      <point x="65.07142857142857" y="593.75"/>
      <point x="65.07142857142857" y="490.57142857142856" type="curve" smooth="yes"/>
      <point x="65.07142857142857" y="412.2142857142857"/>
      <point x="128.10714285714286" y="359.0"/>
      <point x="223.75" y="359.0" type="curve" smooth="yes"/>
      <point x="264.1428571428571" y="359.0" type="line"/>
    </contour>
    <contour>
      <point x="289.42857142857144" y="-110.0" type="line"/>
      <point x="344.10714285714283" y="-110.0" type="line"/>
      <point x="472.07142857142856" y="602.7857142857143" type="line"/>
      <point x="557.5" y="644.0" type="line"/>
      <point x="560.5" y="660.0" type="line"/>
      <point x="427.7857142857143" y="660.0" type="line"/>
    </contour>
  </outline>
</glyph>
<glyph name="periodcentered" format="2">
  <advance width="250.0"/>
  <unicode hex="00B7"/>
  <outline>
    <contour>
      <point x="117.39285714285714" y="204.28571428571428" type="curve" smooth="yes"/>
      <point x="160.46428571428572" y="204.28571428571428"/>
      <point x="188.71428571428572" y="241.35714285714286"/>
      <point x="188.71428571428572" y="280.82142857142856" type="curve" smooth="yes"/>
      <point x="188.71428571428572" y="314.67857142857144"/>
      <point x="171.28571428571428" y="339.32142857142856"/>
      <point x="132.21428571428572" y="339.32142857142856" type="curve" smooth="yes"/>
      <point x="90.14285714285714" y="339.32142857142856"/>
      <point x="60.892857142857146" y="302.25"/>
      <point x="60.892857142857146" y="262.7857142857143" type="curve" smooth="yes"/>
      <point x="60.892857142857146" y="228.92857142857144"/>
      <point x="78.32142857142857" y="204.28571428571428"/>
    </contour>
  </outline>
</glyph>
<glyph name="ordmasculine" format="2">
  <advance width="400.0"/>
  <unicode hex="00BA"/>
  <outline>
    <contour>
      <point x="215.39285714285714" y="417.0" type="curve" smooth="yes"/>
      <point x="303.60714285714283" y="417.0"/>
      <point x="358.60714285714283" y="486.7142857142857"/>
      <point x="358.60714285714283" y="561.75" type="curve" smooth="yes"/>
      <point x="358.60714285714283" y="625.1785714285714"/>
      <point x="321.9642857142857" y="670.0"/>
      <point x="247.92857142857142" y="670.0" type="curve" smooth="yes"/>
      <point x="161.10714285714286" y="670.0"/>
      <point x="104.10714285714286" y="603.2857142857143"/>
      <point x="104.10714285714286" y="526.25" type="curve" smooth="yes"/>
      <point x="104.10714285714286" y="461.82142857142856"/>
      <point x="140.75" y="417.0"/>
    </contour>
    <contour>
      <point x="219.17857142857142" y="441.2142857142857" type="curve" smooth="yes"/>
      <point x="194.82142857142856" y="441.2142857142857"/>
      <point x="188.03571428571428" y="474.0"/>
      <point x="188.03571428571428" y="514.5357142857143" type="curve" smooth="yes"/>
      <point x="188.03571428571428" y="574.6071428571429"/>
      <point x="205.96428571428572" y="646.7857142857143"/>
      <point x="245.14285714285714" y="646.7857142857143" type="curve" smooth="yes"/>
      <point x="268.89285714285717" y="646.7857142857143"/>
      <point x="274.67857142857144" y="615.0"/>
      <point x="274.67857142857144" y="575.6785714285714" type="curve" smooth="yes"/>
      <point x="274.67857142857144" y="517.3571428571429"/>
      <point x="257.14285714285717" y="441.2142857142857"/>
    </contour>
    <contour>
      <point x="65.67857142857143" y="292.0" type="line"/>
      <point x="309.6428571428571" y="292.0" type="line"/>
      <point x="318.6428571428571" y="342.0" type="line"/>
      <point x="74.67857142857143" y="342.0" type="line"/>
    </contour>
  </outline>
</glyph>
<glyph name="questiondown" format="2">
  <advance width="397.32142857142856"/>
  <unicode hex="00BF"/>
  <outline>
    <contour>
      <point x="216.28571428571428" y="-208.32142857142858" type="curve" smooth="yes"/>
      <point x="264.2857142857143" y="-208.32142857142858"/>
      <point x="277.2857142857143" y="-197.32142857142858"/>
      <point x="277.2857142857143" y="-182.32142857142858" type="curve" smooth="yes"/>
      <point x="277.2857142857143" y="-177.32142857142858"/>
      <point x="275.67857142857144" y="-170.71428571428572"/>
      <point x="272.2857142857143" y="-163.32142857142858" type="curve" smooth="yes"/>
      <point x="245.96428571428572" y="-100.57142857142858" type="line"/>
      <point x="231.75" y="-94.96428571428572" type="line"/>
      <point x="191.39285714285714" y="-103.35714285714286" type="line" smooth="yes"/>
      <point x="176.21428571428572" y="-106.75"/>
      <point x="148.67857142857144" y="-108.35714285714286"/>
      <point x="135.89285714285714" y="-108.35714285714286" type="curve" smooth="yes"/>
      <point x="85.0" y="-108.35714285714286"/>
      <point x="32.785714285714285" y="-94.14285714285714"/>
      <point x="32.785714285714285" y="-54.714285714285715" type="curve" smooth="yes"/>
      <point x="32.785714285714285" y="19.714285714285715"/>
      <point x="260.42857142857144" y="-10.25"/>
      <point x="260.42857142857144" y="141.0" type="curve" smooth="yes"/>
      <point x="260.42857142857144" y="181.39285714285714"/>
      <point x="239.60714285714286" y="215.92857142857142"/>
      <point x="210.0" y="247.0" type="curve"/>
      <point x="183.64285714285714" y="242.28571428571428" type="line"/>
      <point x="193.75" y="228.35714285714286"/>
      <point x="200.10714285714286" y="214.42857142857142"/>
      <point x="200.10714285714286" y="194.71428571428572" type="curve" smooth="yes"/>
      <point x="200.10714285714286" y="80.64285714285714"/>
      <point x="-13.892857142857142" y="137.60714285714286"/>
      <point x="-13.892857142857142" y="-25.892857142857142" type="curve" smooth="yes"/>
      <point x="-13.892857142857142" y="-126.75"/>
      <point x="113.85714285714286" y="-208.32142857142858"/>
    </contour>
    <contour>
      <point x="217.28571428571428" y="331.64285714285717" type="curve" smooth="yes"/>
      <point x="259.35714285714283" y="331.64285714285717"/>
      <point x="288.60714285714283" y="368.10714285714283"/>
      <point x="288.60714285714283" y="408.17857142857144" type="curve" smooth="yes"/>
      <point x="288.60714285714283" y="442.0357142857143"/>
      <point x="271.17857142857144" y="466.67857142857144"/>
      <point x="232.10714285714286" y="466.67857142857144" type="curve" smooth="yes"/>
      <point x="189.03571428571428" y="466.67857142857144"/>
      <point x="160.78571428571428" y="429.60714285714283"/>
      <point x="160.78571428571428" y="390.14285714285717" type="curve" smooth="yes"/>
      <point x="160.78571428571428" y="356.2857142857143"/>
      <point x="178.21428571428572" y="331.64285714285717"/>
    </contour>
  </outline>
</glyph>
